ISO-10303-21;
HEADER;
/* Generated by software containing ST-Developer
 * from STEP Tools, Inc. (www.steptools.com) 
 */

FILE_DESCRIPTION(
/* description */ ('STEP AP203'),
/* implementation_level */ '2;1');

FILE_NAME(
/* name */ 'Base1.2.step',
/* time_stamp */ '2025-12-11T15:19:05+05:30',
/* author */ (''),
/* organization */ (''),
/* preprocessor_version */ 'ST-DEVELOPER v20.1',
/* originating_system */ 'Autodesk Translation Framework v14.21.0.0',
/* authorisation */ '');

FILE_SCHEMA (('AUTOMOTIVE_DESIGN { 1 0 10303 214 3 1 1 }'));
ENDSEC;

DATA;
#10=MECHANICAL_DESIGN_GEOMETRIC_PRESENTATION_REPRESENTATION('',(#17),#1687);
#11=ITEM_DEFINED_TRANSFORMATION($,$,#891,#998);
#12=(
REPRESENTATION_RELATIONSHIP($,$,#1698,#1697)
REPRESENTATION_RELATIONSHIP_WITH_TRANSFORMATION(#11)
SHAPE_REPRESENTATION_RELATIONSHIP()
);
#13=CONTEXT_DEPENDENT_SHAPE_REPRESENTATION(#12,#1696);
#14=NEXT_ASSEMBLY_USAGE_OCCURRENCE('c_base_new v3:1','c_base_new v3:1',
'c_base_new v3:1',#1700,#1701,'c_base_new v3:1');
#15=SHAPE_REPRESENTATION_RELATIONSHIP('SRR','None',#1698,#16);
#16=ADVANCED_BREP_SHAPE_REPRESENTATION('',(#877),#1686);
#17=STYLED_ITEM('',(#1711),#877);
#18=ORIENTED_CLOSED_SHELL('',*,#876,.F.);
#19=TOROIDAL_SURFACE('',#938,39.,3.25);
#20=TOROIDAL_SURFACE('',#997,38.9818831744315,3.25);
#21=FACE_BOUND('',#182,.T.);
#22=FACE_BOUND('',#185,.T.);
#23=FACE_BOUND('',#188,.T.);
#24=FACE_BOUND('',#191,.T.);
#25=FACE_BOUND('',#194,.T.);
#26=FACE_BOUND('',#199,.T.);
#27=FACE_BOUND('',#206,.T.);
#28=FACE_BOUND('',#209,.T.);
#29=FACE_BOUND('',#215,.T.);
#30=FACE_BOUND('',#216,.T.);
#31=FACE_BOUND('',#217,.T.);
#32=FACE_BOUND('',#218,.T.);
#33=FACE_BOUND('',#219,.T.);
#34=FACE_BOUND('',#220,.T.);
#35=FACE_BOUND('',#221,.T.);
#36=FACE_BOUND('',#222,.T.);
#37=FACE_BOUND('',#223,.T.);
#38=FACE_BOUND('',#224,.T.);
#39=FACE_BOUND('',#225,.T.);
#40=FACE_BOUND('',#229,.T.);
#41=FACE_BOUND('',#232,.T.);
#42=FACE_BOUND('',#246,.T.);
#43=FACE_BOUND('',#247,.T.);
#44=FACE_BOUND('',#248,.T.);
#45=FACE_BOUND('',#249,.T.);
#46=FACE_BOUND('',#250,.T.);
#47=FACE_BOUND('',#251,.T.);
#48=FACE_BOUND('',#252,.T.);
#49=FACE_BOUND('',#253,.T.);
#50=FACE_BOUND('',#254,.T.);
#51=FACE_BOUND('',#255,.T.);
#52=FACE_BOUND('',#256,.T.);
#53=PLANE('',#900);
#54=PLANE('',#905);
#55=PLANE('',#910);
#56=PLANE('',#915);
#57=PLANE('',#920);
#58=PLANE('',#922);
#59=PLANE('',#926);
#60=PLANE('',#930);
#61=PLANE('',#942);
#62=PLANE('',#947);
#63=PLANE('',#957);
#64=PLANE('',#971);
#65=PLANE('',#976);
#66=PLANE('',#984);
#67=PLANE('',#987);
#68=PLANE('',#990);
#69=PLANE('',#993);
#70=PLANE('',#994);
#71=PLANE('',#995);
#72=CIRCLE('',#894,39.);
#73=CIRCLE('',#895,39.);
#74=CIRCLE('',#896,39.);
#75=CIRCLE('',#898,2.5);
#76=CIRCLE('',#899,2.5);
#77=CIRCLE('',#901,1.5);
#78=CIRCLE('',#903,2.5);
#79=CIRCLE('',#904,2.5);
#80=CIRCLE('',#906,1.5);
#81=CIRCLE('',#908,2.5);
#82=CIRCLE('',#909,2.5);
#83=CIRCLE('',#911,1.5);
#84=CIRCLE('',#913,2.5);
#85=CIRCLE('',#914,2.5);
#86=CIRCLE('',#916,1.5);
#87=CIRCLE('',#918,2.5);
#88=CIRCLE('',#919,2.5);
#89=CIRCLE('',#921,1.5);
#90=CIRCLE('',#924,29.5);
#91=CIRCLE('',#925,29.5);
#92=CIRCLE('',#928,50.5);
#93=CIRCLE('',#929,50.5);
#94=CIRCLE('',#932,29.5);
#95=CIRCLE('',#933,29.5);
#96=CIRCLE('',#935,39.);
#97=CIRCLE('',#936,39.);
#98=CIRCLE('',#937,39.);
#99=CIRCLE('',#940,2.5);
#100=CIRCLE('',#941,2.5);
#101=CIRCLE('',#943,1.5);
#102=CIRCLE('',#945,2.5);
#103=CIRCLE('',#946,2.5);
#104=CIRCLE('',#948,1.5);
#105=CIRCLE('',#950,1.5);
#106=CIRCLE('',#952,1.5);
#107=CIRCLE('',#954,1.5);
#108=CIRCLE('',#956,1.5);
#109=CIRCLE('',#958,1.5);
#110=CIRCLE('',#959,1.5);
#111=CIRCLE('',#960,1.5);
#112=CIRCLE('',#961,1.5);
#113=CIRCLE('',#962,1.5);
#114=CIRCLE('',#963,2.00000000000001);
#115=CIRCLE('',#964,2.);
#116=CIRCLE('',#965,2.);
#117=CIRCLE('',#966,2.);
#118=CIRCLE('',#969,2.5);
#119=CIRCLE('',#970,2.5);
#120=CIRCLE('',#972,1.5);
#121=CIRCLE('',#974,2.5);
#122=CIRCLE('',#975,2.5);
#123=CIRCLE('',#977,1.5);
#124=CIRCLE('',#983,2.);
#125=CIRCLE('',#986,2.00000000000001);
#126=CIRCLE('',#989,2.);
#127=CIRCLE('',#992,2.);
#128=FACE_OUTER_BOUND('',#178,.T.);
#129=FACE_OUTER_BOUND('',#179,.T.);
#130=FACE_OUTER_BOUND('',#180,.T.);
#131=FACE_OUTER_BOUND('',#181,.T.);
#132=FACE_OUTER_BOUND('',#183,.T.);
#133=FACE_OUTER_BOUND('',#184,.T.);
#134=FACE_OUTER_BOUND('',#186,.T.);
#135=FACE_OUTER_BOUND('',#187,.T.);
#136=FACE_OUTER_BOUND('',#189,.T.);
#137=FACE_OUTER_BOUND('',#190,.T.);
#138=FACE_OUTER_BOUND('',#192,.T.);
#139=FACE_OUTER_BOUND('',#193,.T.);
#140=FACE_OUTER_BOUND('',#195,.T.);
#141=FACE_OUTER_BOUND('',#196,.T.);
#142=FACE_OUTER_BOUND('',#197,.T.);
#143=FACE_OUTER_BOUND('',#198,.T.);
#144=FACE_OUTER_BOUND('',#200,.T.);
#145=FACE_OUTER_BOUND('',#201,.T.);
#146=FACE_OUTER_BOUND('',#202,.T.);
#147=FACE_OUTER_BOUND('',#203,.T.);
#148=FACE_OUTER_BOUND('',#204,.T.);
#149=FACE_OUTER_BOUND('',#205,.T.);
#150=FACE_OUTER_BOUND('',#207,.T.);
#151=FACE_OUTER_BOUND('',#208,.T.);
#152=FACE_OUTER_BOUND('',#210,.T.);
#153=FACE_OUTER_BOUND('',#211,.T.);
#154=FACE_OUTER_BOUND('',#212,.T.);
#155=FACE_OUTER_BOUND('',#213,.T.);
#156=FACE_OUTER_BOUND('',#214,.T.);
#157=FACE_OUTER_BOUND('',#226,.T.);
#158=FACE_OUTER_BOUND('',#227,.T.);
#159=FACE_OUTER_BOUND('',#228,.T.);
#160=FACE_OUTER_BOUND('',#230,.T.);
#161=FACE_OUTER_BOUND('',#231,.T.);
#162=FACE_OUTER_BOUND('',#233,.T.);
#163=FACE_OUTER_BOUND('',#234,.T.);
#164=FACE_OUTER_BOUND('',#235,.T.);
#165=FACE_OUTER_BOUND('',#236,.T.);
#166=FACE_OUTER_BOUND('',#237,.T.);
#167=FACE_OUTER_BOUND('',#238,.T.);
#168=FACE_OUTER_BOUND('',#239,.T.);
#169=FACE_OUTER_BOUND('',#240,.T.);
#170=FACE_OUTER_BOUND('',#241,.T.);
#171=FACE_OUTER_BOUND('',#242,.T.);
#172=FACE_OUTER_BOUND('',#243,.T.);
#173=FACE_OUTER_BOUND('',#244,.T.);
#174=FACE_OUTER_BOUND('',#245,.T.);
#175=FACE_OUTER_BOUND('',#257,.T.);
#176=FACE_OUTER_BOUND('',#258,.T.);
#177=FACE_OUTER_BOUND('',#259,.T.);
#178=EDGE_LOOP('',(#564,#565,#566,#567,#568,#569,#570,#571,#572,#573));
#179=EDGE_LOOP('',(#574,#575,#576,#577,#578,#579));
#180=EDGE_LOOP('',(#580,#581,#582,#583));
#181=EDGE_LOOP('',(#584));
#182=EDGE_LOOP('',(#585));
#183=EDGE_LOOP('',(#586,#587,#588,#589));
#184=EDGE_LOOP('',(#590));
#185=EDGE_LOOP('',(#591));
#186=EDGE_LOOP('',(#592,#593,#594,#595));
#187=EDGE_LOOP('',(#596));
#188=EDGE_LOOP('',(#597));
#189=EDGE_LOOP('',(#598,#599,#600,#601));
#190=EDGE_LOOP('',(#602));
#191=EDGE_LOOP('',(#603));
#192=EDGE_LOOP('',(#604,#605,#606,#607));
#193=EDGE_LOOP('',(#608));
#194=EDGE_LOOP('',(#609));
#195=EDGE_LOOP('',(#610,#611,#612,#613));
#196=EDGE_LOOP('',(#614,#615,#616,#617));
#197=EDGE_LOOP('',(#618,#619,#620,#621));
#198=EDGE_LOOP('',(#622,#623,#624,#625));
#199=EDGE_LOOP('',(#626,#627,#628));
#200=EDGE_LOOP('',(#629,#630,#631,#632));
#201=EDGE_LOOP('',(#633,#634,#635,#636));
#202=EDGE_LOOP('',(#637,#638,#639,#640,#641,#642));
#203=EDGE_LOOP('',(#643,#644,#645,#646,#647,#648,#649));
#204=EDGE_LOOP('',(#650,#651,#652,#653));
#205=EDGE_LOOP('',(#654));
#206=EDGE_LOOP('',(#655));
#207=EDGE_LOOP('',(#656,#657,#658,#659));
#208=EDGE_LOOP('',(#660));
#209=EDGE_LOOP('',(#661));
#210=EDGE_LOOP('',(#662,#663,#664,#665));
#211=EDGE_LOOP('',(#666,#667,#668,#669));
#212=EDGE_LOOP('',(#670,#671,#672,#673));
#213=EDGE_LOOP('',(#674,#675,#676,#677));
#214=EDGE_LOOP('',(#678,#679,#680,#681,#682,#683));
#215=EDGE_LOOP('',(#684));
#216=EDGE_LOOP('',(#685));
#217=EDGE_LOOP('',(#686));
#218=EDGE_LOOP('',(#687));
#219=EDGE_LOOP('',(#688));
#220=EDGE_LOOP('',(#689));
#221=EDGE_LOOP('',(#690));
#222=EDGE_LOOP('',(#691));
#223=EDGE_LOOP('',(#692));
#224=EDGE_LOOP('',(#693));
#225=EDGE_LOOP('',(#694,#695,#696,#697,#698,#699,#700,#701));
#226=EDGE_LOOP('',(#702,#703,#704,#705));
#227=EDGE_LOOP('',(#706,#707,#708,#709));
#228=EDGE_LOOP('',(#710));
#229=EDGE_LOOP('',(#711));
#230=EDGE_LOOP('',(#712,#713,#714,#715));
#231=EDGE_LOOP('',(#716));
#232=EDGE_LOOP('',(#717));
#233=EDGE_LOOP('',(#718,#719,#720,#721));
#234=EDGE_LOOP('',(#722,#723,#724,#725));
#235=EDGE_LOOP('',(#726,#727,#728,#729));
#236=EDGE_LOOP('',(#730,#731,#732,#733));
#237=EDGE_LOOP('',(#734,#735,#736,#737));
#238=EDGE_LOOP('',(#738,#739,#740,#741));
#239=EDGE_LOOP('',(#742,#743,#744,#745));
#240=EDGE_LOOP('',(#746,#747,#748,#749));
#241=EDGE_LOOP('',(#750,#751,#752,#753));
#242=EDGE_LOOP('',(#754,#755,#756,#757));
#243=EDGE_LOOP('',(#758,#759,#760,#761));
#244=EDGE_LOOP('',(#762,#763,#764,#765));
#245=EDGE_LOOP('',(#766,#767,#768,#769,#770,#771));
#246=EDGE_LOOP('',(#772));
#247=EDGE_LOOP('',(#773));
#248=EDGE_LOOP('',(#774));
#249=EDGE_LOOP('',(#775));
#250=EDGE_LOOP('',(#776));
#251=EDGE_LOOP('',(#777));
#252=EDGE_LOOP('',(#778));
#253=EDGE_LOOP('',(#779));
#254=EDGE_LOOP('',(#780));
#255=EDGE_LOOP('',(#781));
#256=EDGE_LOOP('',(#782,#783,#784,#785,#786,#787,#788,#789));
#257=EDGE_LOOP('',(#790,#791));
#258=EDGE_LOOP('',(#792,#793));
#259=EDGE_LOOP('',(#794,#795));
#260=LINE('',#1317,#310);
#261=LINE('',#1402,#311);
#262=LINE('',#1409,#312);
#263=LINE('',#1418,#313);
#264=LINE('',#1427,#314);
#265=LINE('',#1436,#315);
#266=LINE('',#1445,#316);
#267=LINE('',#1453,#317);
#268=LINE('',#1455,#318);
#269=LINE('',#1457,#319);
#270=LINE('',#1458,#320);
#271=LINE('',#1464,#321);
#272=LINE('',#1467,#322);
#273=LINE('',#1469,#323);
#274=LINE('',#1470,#324);
#275=LINE('',#1476,#325);
#276=LINE('',#1479,#326);
#277=LINE('',#1481,#327);
#278=LINE('',#1482,#328);
#279=LINE('',#1490,#329);
#280=LINE('',#1498,#330);
#281=LINE('',#1507,#331);
#282=LINE('',#1514,#332);
#283=LINE('',#1518,#333);
#284=LINE('',#1522,#334);
#285=LINE('',#1526,#335);
#286=LINE('',#1541,#336);
#287=LINE('',#1545,#337);
#288=LINE('',#1549,#338);
#289=LINE('',#1553,#339);
#290=LINE('',#1556,#340);
#291=LINE('',#1561,#341);
#292=LINE('',#1570,#342);
#293=LINE('',#1576,#343);
#294=LINE('',#1578,#344);
#295=LINE('',#1580,#345);
#296=LINE('',#1582,#346);
#297=LINE('',#1585,#347);
#298=LINE('',#1588,#348);
#299=LINE('',#1591,#349);
#300=LINE('',#1592,#350);
#301=LINE('',#1595,#351);
#302=LINE('',#1599,#352);
#303=LINE('',#1600,#353);
#304=LINE('',#1603,#354);
#305=LINE('',#1607,#355);
#306=LINE('',#1608,#356);
#307=LINE('',#1611,#357);
#308=LINE('',#1614,#358);
#309=LINE('',#1630,#359);
#310=VECTOR('',#1005,3.3);
#311=VECTOR('',#1010,39.);
#312=VECTOR('',#1019,2.5);
#313=VECTOR('',#1030,2.5);
#314=VECTOR('',#1041,2.5);
#315=VECTOR('',#1052,2.5);
#316=VECTOR('',#1063,2.5);
#317=VECTOR('',#1072,10.);
#318=VECTOR('',#1073,10.);
#319=VECTOR('',#1074,10.);
#320=VECTOR('',#1075,10.);
#321=VECTOR('',#1082,10.);
#322=VECTOR('',#1085,10.);
#323=VECTOR('',#1086,10.);
#324=VECTOR('',#1087,10.);
#325=VECTOR('',#1094,10.);
#326=VECTOR('',#1097,10.);
#327=VECTOR('',#1098,10.);
#328=VECTOR('',#1099,10.);
#329=VECTOR('',#1110,39.);
#330=VECTOR('',#1121,2.5);
#331=VECTOR('',#1132,2.5);
#332=VECTOR('',#1141,1.5);
#333=VECTOR('',#1146,1.5);
#334=VECTOR('',#1151,1.5);
#335=VECTOR('',#1156,1.5);
#336=VECTOR('',#1171,10.);
#337=VECTOR('',#1174,10.);
#338=VECTOR('',#1177,10.);
#339=VECTOR('',#1180,10.);
#340=VECTOR('',#1185,1.5);
#341=VECTOR('',#1190,2.5);
#342=VECTOR('',#1201,2.5);
#343=VECTOR('',#1210,1.5);
#344=VECTOR('',#1213,1.5);
#345=VECTOR('',#1216,1.5);
#346=VECTOR('',#1219,1.5);
#347=VECTOR('',#1222,10.);
#348=VECTOR('',#1225,10.);
#349=VECTOR('',#1228,10.);
#350=VECTOR('',#1229,10.);
#351=VECTOR('',#1232,10.);
#352=VECTOR('',#1237,10.);
#353=VECTOR('',#1238,10.);
#354=VECTOR('',#1241,10.);
#355=VECTOR('',#1246,10.);
#356=VECTOR('',#1247,10.);
#357=VECTOR('',#1250,10.);
#358=VECTOR('',#1255,10.);
#359=VECTOR('',#1260,10.);
#360=B_SPLINE_CURVE_WITH_KNOTS('',3,(#1272,#1273,#1274,#1275,#1276,#1277,
#1278,#1279,#1280,#1281,#1282,#1283),.UNSPECIFIED.,.F.,.F.,(4,2,2,2,2,4),
(0.380490310041597,0.497283878933714,0.62173926411547,0.746194649297227,
0.870545115561415,0.994895581825603),.UNSPECIFIED.);
#361=B_SPLINE_CURVE_WITH_KNOTS('',3,(#1285,#1286,#1287,#1288,#1289,#1290,
#1291,#1292,#1293,#1294,#1295,#1296,#1297,#1298,#1299,#1300,#1301,#1302,
#1303),.UNSPECIFIED.,.F.,.F.,(4,2,2,2,3,2,2,2,4),(1.60930085360961,1.61681383687311,
1.74112038902872,1.86545577633996,1.9897911636512,2.11412655096245,2.23846193827369,
2.3627684904293,2.3702814736928),.UNSPECIFIED.);
#362=B_SPLINE_CURVE_WITH_KNOTS('',3,(#1304,#1305,#1306,#1307,#1308,#1309,
#1310,#1311,#1312,#1313,#1314,#1315),.UNSPECIFIED.,.F.,.F.,(4,2,2,2,2,4),
(0.994895581825603,1.11924604808979,1.24359651435398,1.36805189953573,1.49250728471749,
1.60930085360961),.UNSPECIFIED.);
#363=B_SPLINE_CURVE_WITH_KNOTS('',3,(#1319,#1320,#1321,#1322,#1323,#1324,
#1325,#1326,#1327,#1328,#1329,#1330,#1331,#1332,#1333,#1334),
 .UNSPECIFIED.,.F.,.F.,(4,2,2,2,2,2,2,4),(-0.700588432073824,-0.700281188774466,
-0.653449506933304,-0.540976763918212,-0.330708754186693,-0.200081330180903,
-0.0957858202664175,-4.21561402366827E-5),.UNSPECIFIED.);
#364=B_SPLINE_CURVE_WITH_KNOTS('',3,(#1336,#1337,#1338,#1339,#1340,#1341),
 .UNSPECIFIED.,.F.,.F.,(4,2,4),(1.43616388741641,1.49251968076097,1.54890332710891),
 .UNSPECIFIED.);
#365=B_SPLINE_CURVE_WITH_KNOTS('',3,(#1343,#1344,#1345,#1346,#1347,#1348,
#1349,#1350,#1351,#1352,#1353,#1354,#1355,#1356,#1357,#1358,#1359,#1360,
#1361,#1362,#1363,#1364,#1365,#1366,#1367,#1368,#1369,#1370,#1371),
 .UNSPECIFIED.,.F.,.F.,(4,2,2,2,2,2,3,2,2,2,2,2,2,4),(-0.717428798379294,
-0.691563898961178,-0.599403180621466,-0.351707198471819,-0.205408868531551,
-0.09561452681369,0.,0.0620865589950141,0.121195927094461,0.234914965443847,
0.385194923898276,0.485697620508968,0.575072464273532,0.620854668271552),
 .UNSPECIFIED.);
#366=B_SPLINE_CURVE_WITH_KNOTS('',3,(#1373,#1374,#1375,#1376,#1377,#1378),
 .UNSPECIFIED.,.F.,.F.,(4,2,4),(0.441956085859783,0.497874101908114,0.553764692394952),
 .UNSPECIFIED.);
#367=B_SPLINE_CURVE_WITH_KNOTS('',3,(#1379,#1380,#1381,#1382,#1383,#1384,
#1385,#1386,#1387,#1388,#1389,#1390,#1391,#1392,#1393,#1394,#1395,#1396,
#1397),.UNSPECIFIED.,.F.,.F.,(4,3,2,2,2,2,2,2,4),(-4.21561402366827E-5,
0.,0.0642640018611242,0.126995313167667,0.251260671780447,0.426834973538249,
0.539631072442369,0.629946091700218,0.68209512360074),.UNSPECIFIED.);
#368=B_SPLINE_CURVE_WITH_KNOTS('',3,(#1619,#1620,#1621,#1622,#1623,#1624,
#1625,#1626,#1627,#1628,#1629),.UNSPECIFIED.,.F.,.F.,(4,2,3,2,4),(-0.141901632278781,
-0.119950917919896,0.,0.119950917919896,0.141901632279225),
 .UNSPECIFIED.);
#369=B_SPLINE_CURVE_WITH_KNOTS('',3,(#1632,#1633,#1634,#1635,#1636,#1637,
#1638,#1639,#1640,#1641,#1642,#1643,#1644,#1645,#1646,#1647,#1648,#1649,
#1650,#1651,#1652,#1653,#1654,#1655,#1656,#1657,#1658,#1659,#1660,#1661,
#1662,#1663,#1664,#1665,#1666,#1667,#1668,#1669,#1670,#1671,#1672,#1673,
#1674,#1675,#1676,#1677,#1678,#1679),.UNSPECIFIED.,.F.,.F.,(4,2,2,2,2,2,
2,2,2,2,2,2,2,2,2,2,2,2,2,2,2,2,2,4),(-10.6149760894476,-10.1614973309366,
-9.47613231264616,-8.76495043546332,-8.02821207946233,-7.27797720862339,
-6.45182149566575,-6.03071296522997,-5.93432763564679,-5.90808676510935,
-5.89722806778877,-5.89099292813982,-5.88577787747399,-5.87980516784564,
-5.87035717446572,-5.84488111245345,-5.74344797968394,-5.33530871745521,
-4.58618473818886,-3.84780534709312,-3.08106472156747,-2.28689647458805,
-1.47660032405277,-0.875993987084473),.UNSPECIFIED.);
#370=VERTEX_POINT('',#1270);
#371=VERTEX_POINT('',#1271);
#372=VERTEX_POINT('',#1284);
#373=VERTEX_POINT('',#1316);
#374=VERTEX_POINT('',#1318);
#375=VERTEX_POINT('',#1335);
#376=VERTEX_POINT('',#1342);
#377=VERTEX_POINT('',#1372);
#378=VERTEX_POINT('',#1399);
#379=VERTEX_POINT('',#1401);
#380=VERTEX_POINT('',#1406);
#381=VERTEX_POINT('',#1408);
#382=VERTEX_POINT('',#1412);
#383=VERTEX_POINT('',#1415);
#384=VERTEX_POINT('',#1417);
#385=VERTEX_POINT('',#1421);
#386=VERTEX_POINT('',#1424);
#387=VERTEX_POINT('',#1426);
#388=VERTEX_POINT('',#1430);
#389=VERTEX_POINT('',#1433);
#390=VERTEX_POINT('',#1435);
#391=VERTEX_POINT('',#1439);
#392=VERTEX_POINT('',#1442);
#393=VERTEX_POINT('',#1444);
#394=VERTEX_POINT('',#1448);
#395=VERTEX_POINT('',#1451);
#396=VERTEX_POINT('',#1452);
#397=VERTEX_POINT('',#1454);
#398=VERTEX_POINT('',#1456);
#399=VERTEX_POINT('',#1460);
#400=VERTEX_POINT('',#1462);
#401=VERTEX_POINT('',#1466);
#402=VERTEX_POINT('',#1468);
#403=VERTEX_POINT('',#1472);
#404=VERTEX_POINT('',#1474);
#405=VERTEX_POINT('',#1478);
#406=VERTEX_POINT('',#1480);
#407=VERTEX_POINT('',#1487);
#408=VERTEX_POINT('',#1489);
#409=VERTEX_POINT('',#1495);
#410=VERTEX_POINT('',#1497);
#411=VERTEX_POINT('',#1501);
#412=VERTEX_POINT('',#1504);
#413=VERTEX_POINT('',#1506);
#414=VERTEX_POINT('',#1510);
#415=VERTEX_POINT('',#1513);
#416=VERTEX_POINT('',#1517);
#417=VERTEX_POINT('',#1521);
#418=VERTEX_POINT('',#1525);
#419=VERTEX_POINT('',#1529);
#420=VERTEX_POINT('',#1531);
#421=VERTEX_POINT('',#1533);
#422=VERTEX_POINT('',#1535);
#423=VERTEX_POINT('',#1537);
#424=VERTEX_POINT('',#1539);
#425=VERTEX_POINT('',#1540);
#426=VERTEX_POINT('',#1542);
#427=VERTEX_POINT('',#1544);
#428=VERTEX_POINT('',#1546);
#429=VERTEX_POINT('',#1548);
#430=VERTEX_POINT('',#1550);
#431=VERTEX_POINT('',#1552);
#432=VERTEX_POINT('',#1558);
#433=VERTEX_POINT('',#1560);
#434=VERTEX_POINT('',#1564);
#435=VERTEX_POINT('',#1567);
#436=VERTEX_POINT('',#1569);
#437=VERTEX_POINT('',#1573);
#438=VERTEX_POINT('',#1584);
#439=VERTEX_POINT('',#1586);
#440=VERTEX_POINT('',#1590);
#441=VERTEX_POINT('',#1594);
#442=VERTEX_POINT('',#1598);
#443=VERTEX_POINT('',#1602);
#444=VERTEX_POINT('',#1606);
#445=VERTEX_POINT('',#1610);
#446=VERTEX_POINT('',#1617);
#447=VERTEX_POINT('',#1618);
#448=EDGE_CURVE('',#370,#371,#360,.T.);
#449=EDGE_CURVE('',#372,#370,#361,.T.);
#450=EDGE_CURVE('',#371,#372,#362,.T.);
#451=EDGE_CURVE('',#371,#373,#260,.T.);
#452=EDGE_CURVE('',#374,#373,#363,.T.);
#453=EDGE_CURVE('',#375,#374,#364,.T.);
#454=EDGE_CURVE('',#376,#375,#365,.T.);
#455=EDGE_CURVE('',#377,#376,#366,.T.);
#456=EDGE_CURVE('',#373,#377,#367,.T.);
#457=EDGE_CURVE('',#376,#378,#72,.T.);
#458=EDGE_CURVE('',#378,#379,#261,.T.);
#459=EDGE_CURVE('',#379,#379,#73,.T.);
#460=EDGE_CURVE('',#378,#377,#74,.T.);
#461=EDGE_CURVE('',#380,#380,#75,.T.);
#462=EDGE_CURVE('',#380,#381,#262,.T.);
#463=EDGE_CURVE('',#381,#381,#76,.T.);
#464=EDGE_CURVE('',#382,#382,#77,.T.);
#465=EDGE_CURVE('',#383,#383,#78,.T.);
#466=EDGE_CURVE('',#383,#384,#263,.T.);
#467=EDGE_CURVE('',#384,#384,#79,.T.);
#468=EDGE_CURVE('',#385,#385,#80,.T.);
#469=EDGE_CURVE('',#386,#386,#81,.T.);
#470=EDGE_CURVE('',#386,#387,#264,.T.);
#471=EDGE_CURVE('',#387,#387,#82,.T.);
#472=EDGE_CURVE('',#388,#388,#83,.T.);
#473=EDGE_CURVE('',#389,#389,#84,.T.);
#474=EDGE_CURVE('',#389,#390,#265,.T.);
#475=EDGE_CURVE('',#390,#390,#85,.T.);
#476=EDGE_CURVE('',#391,#391,#86,.T.);
#477=EDGE_CURVE('',#392,#392,#87,.T.);
#478=EDGE_CURVE('',#392,#393,#266,.T.);
#479=EDGE_CURVE('',#393,#393,#88,.T.);
#480=EDGE_CURVE('',#394,#394,#89,.T.);
#481=EDGE_CURVE('',#395,#396,#267,.T.);
#482=EDGE_CURVE('',#395,#397,#268,.T.);
#483=EDGE_CURVE('',#398,#397,#269,.T.);
#484=EDGE_CURVE('',#396,#398,#270,.T.);
#485=EDGE_CURVE('',#396,#399,#90,.T.);
#486=EDGE_CURVE('',#400,#398,#91,.T.);
#487=EDGE_CURVE('',#399,#400,#271,.T.);
#488=EDGE_CURVE('',#399,#401,#272,.T.);
#489=EDGE_CURVE('',#402,#400,#273,.T.);
#490=EDGE_CURVE('',#401,#402,#274,.T.);
#491=EDGE_CURVE('',#401,#403,#92,.T.);
#492=EDGE_CURVE('',#404,#402,#93,.T.);
#493=EDGE_CURVE('',#403,#404,#275,.T.);
#494=EDGE_CURVE('',#403,#405,#276,.T.);
#495=EDGE_CURVE('',#406,#404,#277,.T.);
#496=EDGE_CURVE('',#405,#406,#278,.T.);
#497=EDGE_CURVE('',#405,#395,#94,.T.);
#498=EDGE_CURVE('',#397,#406,#95,.T.);
#499=EDGE_CURVE('',#407,#407,#96,.T.);
#500=EDGE_CURVE('',#407,#408,#279,.T.);
#501=EDGE_CURVE('',#408,#375,#97,.T.);
#502=EDGE_CURVE('',#374,#408,#98,.T.);
#503=EDGE_CURVE('',#409,#409,#99,.T.);
#504=EDGE_CURVE('',#409,#410,#280,.T.);
#505=EDGE_CURVE('',#410,#410,#100,.T.);
#506=EDGE_CURVE('',#411,#411,#101,.T.);
#507=EDGE_CURVE('',#412,#412,#102,.T.);
#508=EDGE_CURVE('',#412,#413,#281,.T.);
#509=EDGE_CURVE('',#413,#413,#103,.T.);
#510=EDGE_CURVE('',#414,#414,#104,.T.);
#511=EDGE_CURVE('',#414,#415,#282,.T.);
#512=EDGE_CURVE('',#415,#415,#105,.T.);
#513=EDGE_CURVE('',#388,#416,#283,.T.);
#514=EDGE_CURVE('',#416,#416,#106,.T.);
#515=EDGE_CURVE('',#411,#417,#284,.T.);
#516=EDGE_CURVE('',#417,#417,#107,.T.);
#517=EDGE_CURVE('',#394,#418,#285,.T.);
#518=EDGE_CURVE('',#418,#418,#108,.T.);
#519=EDGE_CURVE('',#419,#419,#109,.T.);
#520=EDGE_CURVE('',#420,#420,#110,.T.);
#521=EDGE_CURVE('',#421,#421,#111,.T.);
#522=EDGE_CURVE('',#422,#422,#112,.T.);
#523=EDGE_CURVE('',#423,#423,#113,.T.);
#524=EDGE_CURVE('',#424,#425,#286,.T.);
#525=EDGE_CURVE('',#425,#426,#114,.T.);
#526=EDGE_CURVE('',#426,#427,#287,.T.);
#527=EDGE_CURVE('',#427,#428,#115,.T.);
#528=EDGE_CURVE('',#428,#429,#288,.T.);
#529=EDGE_CURVE('',#429,#430,#116,.T.);
#530=EDGE_CURVE('',#430,#431,#289,.T.);
#531=EDGE_CURVE('',#431,#424,#117,.T.);
#532=EDGE_CURVE('',#382,#419,#290,.T.);
#533=EDGE_CURVE('',#432,#432,#118,.T.);
#534=EDGE_CURVE('',#432,#433,#291,.T.);
#535=EDGE_CURVE('',#433,#433,#119,.T.);
#536=EDGE_CURVE('',#434,#434,#120,.T.);
#537=EDGE_CURVE('',#435,#435,#121,.T.);
#538=EDGE_CURVE('',#435,#436,#292,.T.);
#539=EDGE_CURVE('',#436,#436,#122,.T.);
#540=EDGE_CURVE('',#437,#437,#123,.T.);
#541=EDGE_CURVE('',#437,#420,#293,.T.);
#542=EDGE_CURVE('',#385,#421,#294,.T.);
#543=EDGE_CURVE('',#391,#422,#295,.T.);
#544=EDGE_CURVE('',#434,#423,#296,.T.);
#545=EDGE_CURVE('',#438,#427,#297,.T.);
#546=EDGE_CURVE('',#439,#438,#124,.T.);
#547=EDGE_CURVE('',#439,#428,#298,.T.);
#548=EDGE_CURVE('',#440,#426,#299,.T.);
#549=EDGE_CURVE('',#438,#440,#300,.T.);
#550=EDGE_CURVE('',#441,#425,#301,.T.);
#551=EDGE_CURVE('',#440,#441,#125,.T.);
#552=EDGE_CURVE('',#442,#424,#302,.T.);
#553=EDGE_CURVE('',#441,#442,#303,.T.);
#554=EDGE_CURVE('',#443,#431,#304,.T.);
#555=EDGE_CURVE('',#442,#443,#126,.T.);
#556=EDGE_CURVE('',#444,#430,#305,.T.);
#557=EDGE_CURVE('',#443,#444,#306,.T.);
#558=EDGE_CURVE('',#445,#429,#307,.T.);
#559=EDGE_CURVE('',#444,#445,#127,.T.);
#560=EDGE_CURVE('',#445,#439,#308,.T.);
#561=EDGE_CURVE('',#446,#447,#368,.T.);
#562=EDGE_CURVE('',#447,#446,#309,.T.);
#563=EDGE_CURVE('',#447,#446,#369,.T.);
#564=ORIENTED_EDGE('',*,*,#448,.F.);
#565=ORIENTED_EDGE('',*,*,#449,.F.);
#566=ORIENTED_EDGE('',*,*,#450,.F.);
#567=ORIENTED_EDGE('',*,*,#451,.T.);
#568=ORIENTED_EDGE('',*,*,#452,.F.);
#569=ORIENTED_EDGE('',*,*,#453,.F.);
#570=ORIENTED_EDGE('',*,*,#454,.F.);
#571=ORIENTED_EDGE('',*,*,#455,.F.);
#572=ORIENTED_EDGE('',*,*,#456,.F.);
#573=ORIENTED_EDGE('',*,*,#451,.F.);
#574=ORIENTED_EDGE('',*,*,#455,.T.);
#575=ORIENTED_EDGE('',*,*,#457,.T.);
#576=ORIENTED_EDGE('',*,*,#458,.T.);
#577=ORIENTED_EDGE('',*,*,#459,.T.);
#578=ORIENTED_EDGE('',*,*,#458,.F.);
#579=ORIENTED_EDGE('',*,*,#460,.T.);
#580=ORIENTED_EDGE('',*,*,#461,.F.);
#581=ORIENTED_EDGE('',*,*,#462,.T.);
#582=ORIENTED_EDGE('',*,*,#463,.T.);
#583=ORIENTED_EDGE('',*,*,#462,.F.);
#584=ORIENTED_EDGE('',*,*,#463,.F.);
#585=ORIENTED_EDGE('',*,*,#464,.F.);
#586=ORIENTED_EDGE('',*,*,#465,.F.);
#587=ORIENTED_EDGE('',*,*,#466,.T.);
#588=ORIENTED_EDGE('',*,*,#467,.T.);
#589=ORIENTED_EDGE('',*,*,#466,.F.);
#590=ORIENTED_EDGE('',*,*,#467,.F.);
#591=ORIENTED_EDGE('',*,*,#468,.F.);
#592=ORIENTED_EDGE('',*,*,#469,.F.);
#593=ORIENTED_EDGE('',*,*,#470,.T.);
#594=ORIENTED_EDGE('',*,*,#471,.T.);
#595=ORIENTED_EDGE('',*,*,#470,.F.);
#596=ORIENTED_EDGE('',*,*,#471,.F.);
#597=ORIENTED_EDGE('',*,*,#472,.F.);
#598=ORIENTED_EDGE('',*,*,#473,.F.);
#599=ORIENTED_EDGE('',*,*,#474,.T.);
#600=ORIENTED_EDGE('',*,*,#475,.T.);
#601=ORIENTED_EDGE('',*,*,#474,.F.);
#602=ORIENTED_EDGE('',*,*,#475,.F.);
#603=ORIENTED_EDGE('',*,*,#476,.F.);
#604=ORIENTED_EDGE('',*,*,#477,.F.);
#605=ORIENTED_EDGE('',*,*,#478,.T.);
#606=ORIENTED_EDGE('',*,*,#479,.T.);
#607=ORIENTED_EDGE('',*,*,#478,.F.);
#608=ORIENTED_EDGE('',*,*,#479,.F.);
#609=ORIENTED_EDGE('',*,*,#480,.F.);
#610=ORIENTED_EDGE('',*,*,#481,.F.);
#611=ORIENTED_EDGE('',*,*,#482,.T.);
#612=ORIENTED_EDGE('',*,*,#483,.F.);
#613=ORIENTED_EDGE('',*,*,#484,.F.);
#614=ORIENTED_EDGE('',*,*,#485,.F.);
#615=ORIENTED_EDGE('',*,*,#484,.T.);
#616=ORIENTED_EDGE('',*,*,#486,.F.);
#617=ORIENTED_EDGE('',*,*,#487,.F.);
#618=ORIENTED_EDGE('',*,*,#488,.F.);
#619=ORIENTED_EDGE('',*,*,#487,.T.);
#620=ORIENTED_EDGE('',*,*,#489,.F.);
#621=ORIENTED_EDGE('',*,*,#490,.F.);
#622=ORIENTED_EDGE('',*,*,#491,.F.);
#623=ORIENTED_EDGE('',*,*,#490,.T.);
#624=ORIENTED_EDGE('',*,*,#492,.F.);
#625=ORIENTED_EDGE('',*,*,#493,.F.);
#626=ORIENTED_EDGE('',*,*,#448,.T.);
#627=ORIENTED_EDGE('',*,*,#450,.T.);
#628=ORIENTED_EDGE('',*,*,#449,.T.);
#629=ORIENTED_EDGE('',*,*,#494,.F.);
#630=ORIENTED_EDGE('',*,*,#493,.T.);
#631=ORIENTED_EDGE('',*,*,#495,.F.);
#632=ORIENTED_EDGE('',*,*,#496,.F.);
#633=ORIENTED_EDGE('',*,*,#497,.F.);
#634=ORIENTED_EDGE('',*,*,#496,.T.);
#635=ORIENTED_EDGE('',*,*,#498,.F.);
#636=ORIENTED_EDGE('',*,*,#482,.F.);
#637=ORIENTED_EDGE('',*,*,#499,.F.);
#638=ORIENTED_EDGE('',*,*,#500,.T.);
#639=ORIENTED_EDGE('',*,*,#501,.T.);
#640=ORIENTED_EDGE('',*,*,#453,.T.);
#641=ORIENTED_EDGE('',*,*,#502,.T.);
#642=ORIENTED_EDGE('',*,*,#500,.F.);
#643=ORIENTED_EDGE('',*,*,#452,.T.);
#644=ORIENTED_EDGE('',*,*,#456,.T.);
#645=ORIENTED_EDGE('',*,*,#460,.F.);
#646=ORIENTED_EDGE('',*,*,#457,.F.);
#647=ORIENTED_EDGE('',*,*,#454,.T.);
#648=ORIENTED_EDGE('',*,*,#501,.F.);
#649=ORIENTED_EDGE('',*,*,#502,.F.);
#650=ORIENTED_EDGE('',*,*,#503,.F.);
#651=ORIENTED_EDGE('',*,*,#504,.T.);
#652=ORIENTED_EDGE('',*,*,#505,.T.);
#653=ORIENTED_EDGE('',*,*,#504,.F.);
#654=ORIENTED_EDGE('',*,*,#505,.F.);
#655=ORIENTED_EDGE('',*,*,#506,.F.);
#656=ORIENTED_EDGE('',*,*,#507,.F.);
#657=ORIENTED_EDGE('',*,*,#508,.T.);
#658=ORIENTED_EDGE('',*,*,#509,.T.);
#659=ORIENTED_EDGE('',*,*,#508,.F.);
#660=ORIENTED_EDGE('',*,*,#509,.F.);
#661=ORIENTED_EDGE('',*,*,#510,.F.);
#662=ORIENTED_EDGE('',*,*,#510,.T.);
#663=ORIENTED_EDGE('',*,*,#511,.T.);
#664=ORIENTED_EDGE('',*,*,#512,.F.);
#665=ORIENTED_EDGE('',*,*,#511,.F.);
#666=ORIENTED_EDGE('',*,*,#472,.T.);
#667=ORIENTED_EDGE('',*,*,#513,.T.);
#668=ORIENTED_EDGE('',*,*,#514,.F.);
#669=ORIENTED_EDGE('',*,*,#513,.F.);
#670=ORIENTED_EDGE('',*,*,#506,.T.);
#671=ORIENTED_EDGE('',*,*,#515,.T.);
#672=ORIENTED_EDGE('',*,*,#516,.F.);
#673=ORIENTED_EDGE('',*,*,#515,.F.);
#674=ORIENTED_EDGE('',*,*,#480,.T.);
#675=ORIENTED_EDGE('',*,*,#517,.T.);
#676=ORIENTED_EDGE('',*,*,#518,.F.);
#677=ORIENTED_EDGE('',*,*,#517,.F.);
#678=ORIENTED_EDGE('',*,*,#498,.T.);
#679=ORIENTED_EDGE('',*,*,#495,.T.);
#680=ORIENTED_EDGE('',*,*,#492,.T.);
#681=ORIENTED_EDGE('',*,*,#489,.T.);
#682=ORIENTED_EDGE('',*,*,#486,.T.);
#683=ORIENTED_EDGE('',*,*,#483,.T.);
#684=ORIENTED_EDGE('',*,*,#519,.T.);
#685=ORIENTED_EDGE('',*,*,#459,.F.);
#686=ORIENTED_EDGE('',*,*,#512,.T.);
#687=ORIENTED_EDGE('',*,*,#514,.T.);
#688=ORIENTED_EDGE('',*,*,#516,.T.);
#689=ORIENTED_EDGE('',*,*,#518,.T.);
#690=ORIENTED_EDGE('',*,*,#520,.T.);
#691=ORIENTED_EDGE('',*,*,#521,.T.);
#692=ORIENTED_EDGE('',*,*,#522,.T.);
#693=ORIENTED_EDGE('',*,*,#523,.T.);
#694=ORIENTED_EDGE('',*,*,#524,.T.);
#695=ORIENTED_EDGE('',*,*,#525,.T.);
#696=ORIENTED_EDGE('',*,*,#526,.T.);
#697=ORIENTED_EDGE('',*,*,#527,.T.);
#698=ORIENTED_EDGE('',*,*,#528,.T.);
#699=ORIENTED_EDGE('',*,*,#529,.T.);
#700=ORIENTED_EDGE('',*,*,#530,.T.);
#701=ORIENTED_EDGE('',*,*,#531,.T.);
#702=ORIENTED_EDGE('',*,*,#464,.T.);
#703=ORIENTED_EDGE('',*,*,#532,.T.);
#704=ORIENTED_EDGE('',*,*,#519,.F.);
#705=ORIENTED_EDGE('',*,*,#532,.F.);
#706=ORIENTED_EDGE('',*,*,#533,.F.);
#707=ORIENTED_EDGE('',*,*,#534,.T.);
#708=ORIENTED_EDGE('',*,*,#535,.T.);
#709=ORIENTED_EDGE('',*,*,#534,.F.);
#710=ORIENTED_EDGE('',*,*,#535,.F.);
#711=ORIENTED_EDGE('',*,*,#536,.F.);
#712=ORIENTED_EDGE('',*,*,#537,.F.);
#713=ORIENTED_EDGE('',*,*,#538,.T.);
#714=ORIENTED_EDGE('',*,*,#539,.T.);
#715=ORIENTED_EDGE('',*,*,#538,.F.);
#716=ORIENTED_EDGE('',*,*,#539,.F.);
#717=ORIENTED_EDGE('',*,*,#540,.F.);
#718=ORIENTED_EDGE('',*,*,#540,.T.);
#719=ORIENTED_EDGE('',*,*,#541,.T.);
#720=ORIENTED_EDGE('',*,*,#520,.F.);
#721=ORIENTED_EDGE('',*,*,#541,.F.);
#722=ORIENTED_EDGE('',*,*,#468,.T.);
#723=ORIENTED_EDGE('',*,*,#542,.T.);
#724=ORIENTED_EDGE('',*,*,#521,.F.);
#725=ORIENTED_EDGE('',*,*,#542,.F.);
#726=ORIENTED_EDGE('',*,*,#476,.T.);
#727=ORIENTED_EDGE('',*,*,#543,.T.);
#728=ORIENTED_EDGE('',*,*,#522,.F.);
#729=ORIENTED_EDGE('',*,*,#543,.F.);
#730=ORIENTED_EDGE('',*,*,#536,.T.);
#731=ORIENTED_EDGE('',*,*,#544,.T.);
#732=ORIENTED_EDGE('',*,*,#523,.F.);
#733=ORIENTED_EDGE('',*,*,#544,.F.);
#734=ORIENTED_EDGE('',*,*,#527,.F.);
#735=ORIENTED_EDGE('',*,*,#545,.F.);
#736=ORIENTED_EDGE('',*,*,#546,.F.);
#737=ORIENTED_EDGE('',*,*,#547,.T.);
#738=ORIENTED_EDGE('',*,*,#526,.F.);
#739=ORIENTED_EDGE('',*,*,#548,.F.);
#740=ORIENTED_EDGE('',*,*,#549,.F.);
#741=ORIENTED_EDGE('',*,*,#545,.T.);
#742=ORIENTED_EDGE('',*,*,#525,.F.);
#743=ORIENTED_EDGE('',*,*,#550,.F.);
#744=ORIENTED_EDGE('',*,*,#551,.F.);
#745=ORIENTED_EDGE('',*,*,#548,.T.);
#746=ORIENTED_EDGE('',*,*,#524,.F.);
#747=ORIENTED_EDGE('',*,*,#552,.F.);
#748=ORIENTED_EDGE('',*,*,#553,.F.);
#749=ORIENTED_EDGE('',*,*,#550,.T.);
#750=ORIENTED_EDGE('',*,*,#531,.F.);
#751=ORIENTED_EDGE('',*,*,#554,.F.);
#752=ORIENTED_EDGE('',*,*,#555,.F.);
#753=ORIENTED_EDGE('',*,*,#552,.T.);
#754=ORIENTED_EDGE('',*,*,#530,.F.);
#755=ORIENTED_EDGE('',*,*,#556,.F.);
#756=ORIENTED_EDGE('',*,*,#557,.F.);
#757=ORIENTED_EDGE('',*,*,#554,.T.);
#758=ORIENTED_EDGE('',*,*,#529,.F.);
#759=ORIENTED_EDGE('',*,*,#558,.F.);
#760=ORIENTED_EDGE('',*,*,#559,.F.);
#761=ORIENTED_EDGE('',*,*,#556,.T.);
#762=ORIENTED_EDGE('',*,*,#528,.F.);
#763=ORIENTED_EDGE('',*,*,#547,.F.);
#764=ORIENTED_EDGE('',*,*,#560,.F.);
#765=ORIENTED_EDGE('',*,*,#558,.T.);
#766=ORIENTED_EDGE('',*,*,#497,.T.);
#767=ORIENTED_EDGE('',*,*,#481,.T.);
#768=ORIENTED_EDGE('',*,*,#485,.T.);
#769=ORIENTED_EDGE('',*,*,#488,.T.);
#770=ORIENTED_EDGE('',*,*,#491,.T.);
#771=ORIENTED_EDGE('',*,*,#494,.T.);
#772=ORIENTED_EDGE('',*,*,#461,.T.);
#773=ORIENTED_EDGE('',*,*,#465,.T.);
#774=ORIENTED_EDGE('',*,*,#469,.T.);
#775=ORIENTED_EDGE('',*,*,#473,.T.);
#776=ORIENTED_EDGE('',*,*,#477,.T.);
#777=ORIENTED_EDGE('',*,*,#507,.T.);
#778=ORIENTED_EDGE('',*,*,#503,.T.);
#779=ORIENTED_EDGE('',*,*,#537,.T.);
#780=ORIENTED_EDGE('',*,*,#499,.T.);
#781=ORIENTED_EDGE('',*,*,#533,.T.);
#782=ORIENTED_EDGE('',*,*,#553,.T.);
#783=ORIENTED_EDGE('',*,*,#555,.T.);
#784=ORIENTED_EDGE('',*,*,#557,.T.);
#785=ORIENTED_EDGE('',*,*,#559,.T.);
#786=ORIENTED_EDGE('',*,*,#560,.T.);
#787=ORIENTED_EDGE('',*,*,#546,.T.);
#788=ORIENTED_EDGE('',*,*,#549,.T.);
#789=ORIENTED_EDGE('',*,*,#551,.T.);
#790=ORIENTED_EDGE('',*,*,#561,.F.);
#791=ORIENTED_EDGE('',*,*,#562,.F.);
#792=ORIENTED_EDGE('',*,*,#562,.T.);
#793=ORIENTED_EDGE('',*,*,#563,.F.);
#794=ORIENTED_EDGE('',*,*,#561,.T.);
#795=ORIENTED_EDGE('',*,*,#563,.T.);
#796=CYLINDRICAL_SURFACE('',#892,3.3);
#797=CYLINDRICAL_SURFACE('',#893,39.);
#798=CYLINDRICAL_SURFACE('',#897,2.5);
#799=CYLINDRICAL_SURFACE('',#902,2.5);
#800=CYLINDRICAL_SURFACE('',#907,2.5);
#801=CYLINDRICAL_SURFACE('',#912,2.5);
#802=CYLINDRICAL_SURFACE('',#917,2.5);
#803=CYLINDRICAL_SURFACE('',#923,29.5);
#804=CYLINDRICAL_SURFACE('',#927,50.5);
#805=CYLINDRICAL_SURFACE('',#931,29.5);
#806=CYLINDRICAL_SURFACE('',#934,39.);
#807=CYLINDRICAL_SURFACE('',#939,2.5);
#808=CYLINDRICAL_SURFACE('',#944,2.5);
#809=CYLINDRICAL_SURFACE('',#949,1.5);
#810=CYLINDRICAL_SURFACE('',#951,1.5);
#811=CYLINDRICAL_SURFACE('',#953,1.5);
#812=CYLINDRICAL_SURFACE('',#955,1.5);
#813=CYLINDRICAL_SURFACE('',#967,1.5);
#814=CYLINDRICAL_SURFACE('',#968,2.5);
#815=CYLINDRICAL_SURFACE('',#973,2.5);
#816=CYLINDRICAL_SURFACE('',#978,1.5);
#817=CYLINDRICAL_SURFACE('',#979,1.5);
#818=CYLINDRICAL_SURFACE('',#980,1.5);
#819=CYLINDRICAL_SURFACE('',#981,1.5);
#820=CYLINDRICAL_SURFACE('',#982,2.);
#821=CYLINDRICAL_SURFACE('',#985,2.00000000000001);
#822=CYLINDRICAL_SURFACE('',#988,2.);
#823=CYLINDRICAL_SURFACE('',#991,2.);
#824=CYLINDRICAL_SURFACE('',#996,42.5);
#825=ADVANCED_FACE('',(#128),#796,.F.);
#826=ADVANCED_FACE('',(#129),#797,.F.);
#827=ADVANCED_FACE('',(#130),#798,.F.);
#828=ADVANCED_FACE('',(#131,#21),#53,.T.);
#829=ADVANCED_FACE('',(#132),#799,.F.);
#830=ADVANCED_FACE('',(#133,#22),#54,.T.);
#831=ADVANCED_FACE('',(#134),#800,.F.);
#832=ADVANCED_FACE('',(#135,#23),#55,.T.);
#833=ADVANCED_FACE('',(#136),#801,.F.);
#834=ADVANCED_FACE('',(#137,#24),#56,.T.);
#835=ADVANCED_FACE('',(#138),#802,.F.);
#836=ADVANCED_FACE('',(#139,#25),#57,.T.);
#837=ADVANCED_FACE('',(#140),#58,.T.);
#838=ADVANCED_FACE('',(#141),#803,.T.);
#839=ADVANCED_FACE('',(#142),#59,.T.);
#840=ADVANCED_FACE('',(#143,#26),#804,.T.);
#841=ADVANCED_FACE('',(#144),#60,.T.);
#842=ADVANCED_FACE('',(#145),#805,.T.);
#843=ADVANCED_FACE('',(#146),#806,.F.);
#844=ADVANCED_FACE('',(#147),#19,.F.);
#845=ADVANCED_FACE('',(#148),#807,.F.);
#846=ADVANCED_FACE('',(#149,#27),#61,.T.);
#847=ADVANCED_FACE('',(#150),#808,.F.);
#848=ADVANCED_FACE('',(#151,#28),#62,.T.);
#849=ADVANCED_FACE('',(#152),#809,.F.);
#850=ADVANCED_FACE('',(#153),#810,.F.);
#851=ADVANCED_FACE('',(#154),#811,.F.);
#852=ADVANCED_FACE('',(#155),#812,.F.);
#853=ADVANCED_FACE('',(#156,#29,#30,#31,#32,#33,#34,#35,#36,#37,#38,#39),
#63,.F.);
#854=ADVANCED_FACE('',(#157),#813,.F.);
#855=ADVANCED_FACE('',(#158),#814,.F.);
#856=ADVANCED_FACE('',(#159,#40),#64,.T.);
#857=ADVANCED_FACE('',(#160),#815,.F.);
#858=ADVANCED_FACE('',(#161,#41),#65,.T.);
#859=ADVANCED_FACE('',(#162),#816,.F.);
#860=ADVANCED_FACE('',(#163),#817,.F.);
#861=ADVANCED_FACE('',(#164),#818,.F.);
#862=ADVANCED_FACE('',(#165),#819,.F.);
#863=ADVANCED_FACE('',(#166),#820,.F.);
#864=ADVANCED_FACE('',(#167),#66,.F.);
#865=ADVANCED_FACE('',(#168),#821,.F.);
#866=ADVANCED_FACE('',(#169),#67,.F.);
#867=ADVANCED_FACE('',(#170),#822,.F.);
#868=ADVANCED_FACE('',(#171),#68,.F.);
#869=ADVANCED_FACE('',(#172),#823,.F.);
#870=ADVANCED_FACE('',(#173),#69,.F.);
#871=ADVANCED_FACE('',(#174,#42,#43,#44,#45,#46,#47,#48,#49,#50,#51,#52),
#70,.T.);
#872=ADVANCED_FACE('',(#175),#71,.T.);
#873=ADVANCED_FACE('',(#176),#824,.T.);
#874=ADVANCED_FACE('',(#177),#20,.F.);
#875=CLOSED_SHELL('',(#825,#826,#827,#828,#829,#830,#831,#832,#833,#834,
#835,#836,#837,#838,#839,#840,#841,#842,#843,#844,#845,#846,#847,#848,#849,
#850,#851,#852,#853,#854,#855,#856,#857,#858,#859,#860,#861,#862,#863,#864,
#865,#866,#867,#868,#869,#870,#871));
#876=CLOSED_SHELL('',(#872,#873,#874));
#877=BREP_WITH_VOIDS('Body1',#875,(#18));
#878=DERIVED_UNIT_ELEMENT(#880,1.);
#879=DERIVED_UNIT_ELEMENT(#1689,-3.);
#880=(
MASS_UNIT()
NAMED_UNIT(*)
SI_UNIT(.KILO.,.GRAM.)
);
#881=DERIVED_UNIT((#878,#879));
#882=MEASURE_REPRESENTATION_ITEM('density measure',
POSITIVE_RATIO_MEASURE(7850.),#881);
#883=PROPERTY_DEFINITION_REPRESENTATION(#888,#885);
#884=PROPERTY_DEFINITION_REPRESENTATION(#889,#886);
#885=REPRESENTATION('material name',(#887),#1686);
#886=REPRESENTATION('density',(#882),#1686);
#887=DESCRIPTIVE_REPRESENTATION_ITEM('Steel','Steel');
#888=PROPERTY_DEFINITION('material property','material name',#1701);
#889=PROPERTY_DEFINITION('material property','density of part',#1701);
#890=AXIS2_PLACEMENT_3D('',#1267,#999,#1000);
#891=AXIS2_PLACEMENT_3D('',#1268,#1001,#1002);
#892=AXIS2_PLACEMENT_3D('',#1269,#1003,#1004);
#893=AXIS2_PLACEMENT_3D('',#1398,#1006,#1007);
#894=AXIS2_PLACEMENT_3D('',#1400,#1008,#1009);
#895=AXIS2_PLACEMENT_3D('',#1403,#1011,#1012);
#896=AXIS2_PLACEMENT_3D('',#1404,#1013,#1014);
#897=AXIS2_PLACEMENT_3D('',#1405,#1015,#1016);
#898=AXIS2_PLACEMENT_3D('',#1407,#1017,#1018);
#899=AXIS2_PLACEMENT_3D('',#1410,#1020,#1021);
#900=AXIS2_PLACEMENT_3D('',#1411,#1022,#1023);
#901=AXIS2_PLACEMENT_3D('',#1413,#1024,#1025);
#902=AXIS2_PLACEMENT_3D('',#1414,#1026,#1027);
#903=AXIS2_PLACEMENT_3D('',#1416,#1028,#1029);
#904=AXIS2_PLACEMENT_3D('',#1419,#1031,#1032);
#905=AXIS2_PLACEMENT_3D('',#1420,#1033,#1034);
#906=AXIS2_PLACEMENT_3D('',#1422,#1035,#1036);
#907=AXIS2_PLACEMENT_3D('',#1423,#1037,#1038);
#908=AXIS2_PLACEMENT_3D('',#1425,#1039,#1040);
#909=AXIS2_PLACEMENT_3D('',#1428,#1042,#1043);
#910=AXIS2_PLACEMENT_3D('',#1429,#1044,#1045);
#911=AXIS2_PLACEMENT_3D('',#1431,#1046,#1047);
#912=AXIS2_PLACEMENT_3D('',#1432,#1048,#1049);
#913=AXIS2_PLACEMENT_3D('',#1434,#1050,#1051);
#914=AXIS2_PLACEMENT_3D('',#1437,#1053,#1054);
#915=AXIS2_PLACEMENT_3D('',#1438,#1055,#1056);
#916=AXIS2_PLACEMENT_3D('',#1440,#1057,#1058);
#917=AXIS2_PLACEMENT_3D('',#1441,#1059,#1060);
#918=AXIS2_PLACEMENT_3D('',#1443,#1061,#1062);
#919=AXIS2_PLACEMENT_3D('',#1446,#1064,#1065);
#920=AXIS2_PLACEMENT_3D('',#1447,#1066,#1067);
#921=AXIS2_PLACEMENT_3D('',#1449,#1068,#1069);
#922=AXIS2_PLACEMENT_3D('',#1450,#1070,#1071);
#923=AXIS2_PLACEMENT_3D('',#1459,#1076,#1077);
#924=AXIS2_PLACEMENT_3D('',#1461,#1078,#1079);
#925=AXIS2_PLACEMENT_3D('',#1463,#1080,#1081);
#926=AXIS2_PLACEMENT_3D('',#1465,#1083,#1084);
#927=AXIS2_PLACEMENT_3D('',#1471,#1088,#1089);
#928=AXIS2_PLACEMENT_3D('',#1473,#1090,#1091);
#929=AXIS2_PLACEMENT_3D('',#1475,#1092,#1093);
#930=AXIS2_PLACEMENT_3D('',#1477,#1095,#1096);
#931=AXIS2_PLACEMENT_3D('',#1483,#1100,#1101);
#932=AXIS2_PLACEMENT_3D('',#1484,#1102,#1103);
#933=AXIS2_PLACEMENT_3D('',#1485,#1104,#1105);
#934=AXIS2_PLACEMENT_3D('',#1486,#1106,#1107);
#935=AXIS2_PLACEMENT_3D('',#1488,#1108,#1109);
#936=AXIS2_PLACEMENT_3D('',#1491,#1111,#1112);
#937=AXIS2_PLACEMENT_3D('',#1492,#1113,#1114);
#938=AXIS2_PLACEMENT_3D('',#1493,#1115,#1116);
#939=AXIS2_PLACEMENT_3D('',#1494,#1117,#1118);
#940=AXIS2_PLACEMENT_3D('',#1496,#1119,#1120);
#941=AXIS2_PLACEMENT_3D('',#1499,#1122,#1123);
#942=AXIS2_PLACEMENT_3D('',#1500,#1124,#1125);
#943=AXIS2_PLACEMENT_3D('',#1502,#1126,#1127);
#944=AXIS2_PLACEMENT_3D('',#1503,#1128,#1129);
#945=AXIS2_PLACEMENT_3D('',#1505,#1130,#1131);
#946=AXIS2_PLACEMENT_3D('',#1508,#1133,#1134);
#947=AXIS2_PLACEMENT_3D('',#1509,#1135,#1136);
#948=AXIS2_PLACEMENT_3D('',#1511,#1137,#1138);
#949=AXIS2_PLACEMENT_3D('',#1512,#1139,#1140);
#950=AXIS2_PLACEMENT_3D('',#1515,#1142,#1143);
#951=AXIS2_PLACEMENT_3D('',#1516,#1144,#1145);
#952=AXIS2_PLACEMENT_3D('',#1519,#1147,#1148);
#953=AXIS2_PLACEMENT_3D('',#1520,#1149,#1150);
#954=AXIS2_PLACEMENT_3D('',#1523,#1152,#1153);
#955=AXIS2_PLACEMENT_3D('',#1524,#1154,#1155);
#956=AXIS2_PLACEMENT_3D('',#1527,#1157,#1158);
#957=AXIS2_PLACEMENT_3D('',#1528,#1159,#1160);
#958=AXIS2_PLACEMENT_3D('',#1530,#1161,#1162);
#959=AXIS2_PLACEMENT_3D('',#1532,#1163,#1164);
#960=AXIS2_PLACEMENT_3D('',#1534,#1165,#1166);
#961=AXIS2_PLACEMENT_3D('',#1536,#1167,#1168);
#962=AXIS2_PLACEMENT_3D('',#1538,#1169,#1170);
#963=AXIS2_PLACEMENT_3D('',#1543,#1172,#1173);
#964=AXIS2_PLACEMENT_3D('',#1547,#1175,#1176);
#965=AXIS2_PLACEMENT_3D('',#1551,#1178,#1179);
#966=AXIS2_PLACEMENT_3D('',#1554,#1181,#1182);
#967=AXIS2_PLACEMENT_3D('',#1555,#1183,#1184);
#968=AXIS2_PLACEMENT_3D('',#1557,#1186,#1187);
#969=AXIS2_PLACEMENT_3D('',#1559,#1188,#1189);
#970=AXIS2_PLACEMENT_3D('',#1562,#1191,#1192);
#971=AXIS2_PLACEMENT_3D('',#1563,#1193,#1194);
#972=AXIS2_PLACEMENT_3D('',#1565,#1195,#1196);
#973=AXIS2_PLACEMENT_3D('',#1566,#1197,#1198);
#974=AXIS2_PLACEMENT_3D('',#1568,#1199,#1200);
#975=AXIS2_PLACEMENT_3D('',#1571,#1202,#1203);
#976=AXIS2_PLACEMENT_3D('',#1572,#1204,#1205);
#977=AXIS2_PLACEMENT_3D('',#1574,#1206,#1207);
#978=AXIS2_PLACEMENT_3D('',#1575,#1208,#1209);
#979=AXIS2_PLACEMENT_3D('',#1577,#1211,#1212);
#980=AXIS2_PLACEMENT_3D('',#1579,#1214,#1215);
#981=AXIS2_PLACEMENT_3D('',#1581,#1217,#1218);
#982=AXIS2_PLACEMENT_3D('',#1583,#1220,#1221);
#983=AXIS2_PLACEMENT_3D('',#1587,#1223,#1224);
#984=AXIS2_PLACEMENT_3D('',#1589,#1226,#1227);
#985=AXIS2_PLACEMENT_3D('',#1593,#1230,#1231);
#986=AXIS2_PLACEMENT_3D('',#1596,#1233,#1234);
#987=AXIS2_PLACEMENT_3D('',#1597,#1235,#1236);
#988=AXIS2_PLACEMENT_3D('',#1601,#1239,#1240);
#989=AXIS2_PLACEMENT_3D('',#1604,#1242,#1243);
#990=AXIS2_PLACEMENT_3D('',#1605,#1244,#1245);
#991=AXIS2_PLACEMENT_3D('',#1609,#1248,#1249);
#992=AXIS2_PLACEMENT_3D('',#1612,#1251,#1252);
#993=AXIS2_PLACEMENT_3D('',#1613,#1253,#1254);
#994=AXIS2_PLACEMENT_3D('',#1615,#1256,#1257);
#995=AXIS2_PLACEMENT_3D('',#1616,#1258,#1259);
#996=AXIS2_PLACEMENT_3D('',#1631,#1261,#1262);
#997=AXIS2_PLACEMENT_3D('',#1680,#1263,#1264);
#998=AXIS2_PLACEMENT_3D('',#1681,#1265,#1266);
#999=DIRECTION('axis',(0.,0.,1.));
#1000=DIRECTION('refdir',(1.,0.,0.));
#1001=DIRECTION('axis',(0.,0.,1.));
#1002=DIRECTION('refdir',(1.,0.,0.));
#1003=DIRECTION('center_axis',(-1.,0.,0.));
#1004=DIRECTION('ref_axis',(0.,1.,0.));
#1005=DIRECTION('',(-1.,0.,0.));
#1006=DIRECTION('center_axis',(0.,0.,1.));
#1007=DIRECTION('ref_axis',(-1.,0.,0.));
#1008=DIRECTION('center_axis',(0.,0.,1.));
#1009=DIRECTION('ref_axis',(-1.,0.,0.));
#1010=DIRECTION('',(0.,0.,-1.));
#1011=DIRECTION('center_axis',(0.,0.,-1.));
#1012=DIRECTION('ref_axis',(-1.,0.,0.));
#1013=DIRECTION('center_axis',(0.,0.,1.));
#1014=DIRECTION('ref_axis',(-1.,0.,0.));
#1015=DIRECTION('center_axis',(0.,0.,-1.));
#1016=DIRECTION('ref_axis',(-1.,0.,0.));
#1017=DIRECTION('center_axis',(0.,0.,-1.));
#1018=DIRECTION('ref_axis',(-1.,0.,0.));
#1019=DIRECTION('',(0.,0.,-1.));
#1020=DIRECTION('center_axis',(0.,0.,-1.));
#1021=DIRECTION('ref_axis',(-1.,0.,0.));
#1022=DIRECTION('center_axis',(0.,0.,1.));
#1023=DIRECTION('ref_axis',(-1.,0.,0.));
#1024=DIRECTION('center_axis',(0.,0.,1.));
#1025=DIRECTION('ref_axis',(-1.,0.,0.));
#1026=DIRECTION('center_axis',(0.,0.,-1.));
#1027=DIRECTION('ref_axis',(-1.,0.,0.));
#1028=DIRECTION('center_axis',(0.,0.,-1.));
#1029=DIRECTION('ref_axis',(-1.,0.,0.));
#1030=DIRECTION('',(0.,0.,-1.));
#1031=DIRECTION('center_axis',(0.,0.,-1.));
#1032=DIRECTION('ref_axis',(-1.,0.,0.));
#1033=DIRECTION('center_axis',(0.,0.,1.));
#1034=DIRECTION('ref_axis',(-1.,0.,0.));
#1035=DIRECTION('center_axis',(0.,0.,1.));
#1036=DIRECTION('ref_axis',(-1.,0.,0.));
#1037=DIRECTION('center_axis',(0.,0.,-1.));
#1038=DIRECTION('ref_axis',(-1.,0.,0.));
#1039=DIRECTION('center_axis',(0.,0.,-1.));
#1040=DIRECTION('ref_axis',(-1.,0.,0.));
#1041=DIRECTION('',(0.,0.,-1.));
#1042=DIRECTION('center_axis',(0.,0.,-1.));
#1043=DIRECTION('ref_axis',(-1.,0.,0.));
#1044=DIRECTION('center_axis',(0.,0.,1.));
#1045=DIRECTION('ref_axis',(-1.,0.,0.));
#1046=DIRECTION('center_axis',(0.,0.,1.));
#1047=DIRECTION('ref_axis',(-1.,0.,0.));
#1048=DIRECTION('center_axis',(0.,0.,-1.));
#1049=DIRECTION('ref_axis',(-1.,0.,0.));
#1050=DIRECTION('center_axis',(0.,0.,-1.));
#1051=DIRECTION('ref_axis',(-1.,0.,0.));
#1052=DIRECTION('',(0.,0.,-1.));
#1053=DIRECTION('center_axis',(0.,0.,-1.));
#1054=DIRECTION('ref_axis',(-1.,0.,0.));
#1055=DIRECTION('center_axis',(0.,0.,1.));
#1056=DIRECTION('ref_axis',(-1.,0.,0.));
#1057=DIRECTION('center_axis',(0.,0.,1.));
#1058=DIRECTION('ref_axis',(-1.,0.,0.));
#1059=DIRECTION('center_axis',(0.,0.,-1.));
#1060=DIRECTION('ref_axis',(-1.,0.,0.));
#1061=DIRECTION('center_axis',(0.,0.,-1.));
#1062=DIRECTION('ref_axis',(-1.,0.,0.));
#1063=DIRECTION('',(0.,0.,-1.));
#1064=DIRECTION('center_axis',(0.,0.,-1.));
#1065=DIRECTION('ref_axis',(-1.,0.,0.));
#1066=DIRECTION('center_axis',(0.,0.,1.));
#1067=DIRECTION('ref_axis',(-1.,0.,0.));
#1068=DIRECTION('center_axis',(0.,0.,1.));
#1069=DIRECTION('ref_axis',(-1.,0.,0.));
#1070=DIRECTION('center_axis',(-1.,-4.22942104619107E-16,0.));
#1071=DIRECTION('ref_axis',(-4.22942104619107E-16,1.,0.));
#1072=DIRECTION('',(4.22942104619107E-16,-1.,0.));
#1073=DIRECTION('',(0.,0.,-1.));
#1074=DIRECTION('',(-4.22942104619107E-16,1.,0.));
#1075=DIRECTION('',(0.,0.,-1.));
#1076=DIRECTION('center_axis',(0.,0.,-1.));
#1077=DIRECTION('ref_axis',(-1.,7.52693576017055E-16,0.));
#1078=DIRECTION('center_axis',(0.,0.,1.));
#1079=DIRECTION('ref_axis',(-1.,7.52693576017055E-16,0.));
#1080=DIRECTION('center_axis',(0.,0.,-1.));
#1081=DIRECTION('ref_axis',(-1.,7.52693576017055E-16,0.));
#1082=DIRECTION('',(0.,0.,-1.));
#1083=DIRECTION('center_axis',(8.88178419700126E-16,-1.,0.));
#1084=DIRECTION('ref_axis',(-1.,-8.88178419700126E-16,0.));
#1085=DIRECTION('',(1.,8.88178419700126E-16,0.));
#1086=DIRECTION('',(-1.,-8.88178419700126E-16,0.));
#1087=DIRECTION('',(0.,0.,-1.));
#1088=DIRECTION('center_axis',(0.,0.,-1.));
#1089=DIRECTION('ref_axis',(-8.7938457396052E-17,-1.,0.));
#1090=DIRECTION('center_axis',(0.,0.,1.));
#1091=DIRECTION('ref_axis',(-8.7938457396052E-17,-1.,0.));
#1092=DIRECTION('center_axis',(0.,0.,-1.));
#1093=DIRECTION('ref_axis',(-8.7938457396052E-17,-1.,0.));
#1094=DIRECTION('',(0.,0.,-1.));
#1095=DIRECTION('center_axis',(2.22044604925031E-16,1.,0.));
#1096=DIRECTION('ref_axis',(1.,-2.22044604925031E-16,0.));
#1097=DIRECTION('',(-1.,2.22044604925031E-16,0.));
#1098=DIRECTION('',(1.,-2.22044604925031E-16,0.));
#1099=DIRECTION('',(0.,0.,-1.));
#1100=DIRECTION('center_axis',(0.,0.,-1.));
#1101=DIRECTION('ref_axis',(-1.50538715203411E-16,1.,0.));
#1102=DIRECTION('center_axis',(0.,0.,1.));
#1103=DIRECTION('ref_axis',(-1.50538715203411E-16,1.,0.));
#1104=DIRECTION('center_axis',(0.,0.,-1.));
#1105=DIRECTION('ref_axis',(-1.50538715203411E-16,1.,0.));
#1106=DIRECTION('center_axis',(0.,0.,1.));
#1107=DIRECTION('ref_axis',(-1.,0.,0.));
#1108=DIRECTION('center_axis',(0.,0.,-1.));
#1109=DIRECTION('ref_axis',(-1.,0.,0.));
#1110=DIRECTION('',(0.,0.,-1.));
#1111=DIRECTION('center_axis',(0.,0.,-1.));
#1112=DIRECTION('ref_axis',(-1.,0.,0.));
#1113=DIRECTION('center_axis',(0.,0.,-1.));
#1114=DIRECTION('ref_axis',(-1.,0.,0.));
#1115=DIRECTION('center_axis',(0.,0.,-1.));
#1116=DIRECTION('ref_axis',(-0.999536416373635,0.0304458920538085,0.));
#1117=DIRECTION('center_axis',(0.,0.,-1.));
#1118=DIRECTION('ref_axis',(-1.,0.,0.));
#1119=DIRECTION('center_axis',(0.,0.,-1.));
#1120=DIRECTION('ref_axis',(-1.,0.,0.));
#1121=DIRECTION('',(0.,0.,-1.));
#1122=DIRECTION('center_axis',(0.,0.,-1.));
#1123=DIRECTION('ref_axis',(-1.,0.,0.));
#1124=DIRECTION('center_axis',(0.,0.,1.));
#1125=DIRECTION('ref_axis',(-1.,0.,0.));
#1126=DIRECTION('center_axis',(0.,0.,1.));
#1127=DIRECTION('ref_axis',(-1.,0.,0.));
#1128=DIRECTION('center_axis',(0.,0.,-1.));
#1129=DIRECTION('ref_axis',(-1.,0.,0.));
#1130=DIRECTION('center_axis',(0.,0.,-1.));
#1131=DIRECTION('ref_axis',(-1.,0.,0.));
#1132=DIRECTION('',(0.,0.,-1.));
#1133=DIRECTION('center_axis',(0.,0.,-1.));
#1134=DIRECTION('ref_axis',(-1.,0.,0.));
#1135=DIRECTION('center_axis',(0.,0.,1.));
#1136=DIRECTION('ref_axis',(-1.,0.,0.));
#1137=DIRECTION('center_axis',(0.,0.,1.));
#1138=DIRECTION('ref_axis',(-1.,0.,0.));
#1139=DIRECTION('center_axis',(0.,0.,-1.));
#1140=DIRECTION('ref_axis',(-1.,0.,0.));
#1141=DIRECTION('',(0.,0.,-1.));
#1142=DIRECTION('center_axis',(0.,0.,1.));
#1143=DIRECTION('ref_axis',(-1.,0.,0.));
#1144=DIRECTION('center_axis',(0.,0.,-1.));
#1145=DIRECTION('ref_axis',(-1.,0.,0.));
#1146=DIRECTION('',(0.,0.,-1.));
#1147=DIRECTION('center_axis',(0.,0.,1.));
#1148=DIRECTION('ref_axis',(-1.,0.,0.));
#1149=DIRECTION('center_axis',(0.,0.,-1.));
#1150=DIRECTION('ref_axis',(-1.,0.,0.));
#1151=DIRECTION('',(0.,0.,-1.));
#1152=DIRECTION('center_axis',(0.,0.,1.));
#1153=DIRECTION('ref_axis',(-1.,0.,0.));
#1154=DIRECTION('center_axis',(0.,0.,-1.));
#1155=DIRECTION('ref_axis',(-1.,0.,0.));
#1156=DIRECTION('',(0.,0.,-1.));
#1157=DIRECTION('center_axis',(0.,0.,1.));
#1158=DIRECTION('ref_axis',(-1.,0.,0.));
#1159=DIRECTION('center_axis',(0.,0.,1.));
#1160=DIRECTION('ref_axis',(-1.,0.,0.));
#1161=DIRECTION('center_axis',(0.,0.,1.));
#1162=DIRECTION('ref_axis',(-1.,0.,0.));
#1163=DIRECTION('center_axis',(0.,0.,1.));
#1164=DIRECTION('ref_axis',(-1.,0.,0.));
#1165=DIRECTION('center_axis',(0.,0.,1.));
#1166=DIRECTION('ref_axis',(-1.,0.,0.));
#1167=DIRECTION('center_axis',(0.,0.,1.));
#1168=DIRECTION('ref_axis',(-1.,0.,0.));
#1169=DIRECTION('center_axis',(0.,0.,1.));
#1170=DIRECTION('ref_axis',(-1.,0.,0.));
#1171=DIRECTION('',(1.,0.,0.));
#1172=DIRECTION('center_axis',(0.,0.,1.));
#1173=DIRECTION('ref_axis',(2.22044604925031E-15,-1.,0.));
#1174=DIRECTION('',(0.,1.,0.));
#1175=DIRECTION('center_axis',(0.,0.,1.));
#1176=DIRECTION('ref_axis',(1.,-2.22044604925031E-15,0.));
#1177=DIRECTION('',(-1.,0.,0.));
#1178=DIRECTION('center_axis',(0.,0.,1.));
#1179=DIRECTION('ref_axis',(2.22044604925031E-15,1.,0.));
#1180=DIRECTION('',(0.,-1.,0.));
#1181=DIRECTION('center_axis',(0.,0.,1.));
#1182=DIRECTION('ref_axis',(-1.,2.22044604925031E-15,0.));
#1183=DIRECTION('center_axis',(0.,0.,-1.));
#1184=DIRECTION('ref_axis',(-1.,0.,0.));
#1185=DIRECTION('',(0.,0.,-1.));
#1186=DIRECTION('center_axis',(0.,0.,-1.));
#1187=DIRECTION('ref_axis',(-1.,0.,0.));
#1188=DIRECTION('center_axis',(0.,0.,-1.));
#1189=DIRECTION('ref_axis',(-1.,0.,0.));
#1190=DIRECTION('',(0.,0.,-1.));
#1191=DIRECTION('center_axis',(0.,0.,-1.));
#1192=DIRECTION('ref_axis',(-1.,0.,0.));
#1193=DIRECTION('center_axis',(0.,0.,1.));
#1194=DIRECTION('ref_axis',(-1.,0.,0.));
#1195=DIRECTION('center_axis',(0.,0.,1.));
#1196=DIRECTION('ref_axis',(-1.,0.,0.));
#1197=DIRECTION('center_axis',(0.,0.,-1.));
#1198=DIRECTION('ref_axis',(-1.,0.,0.));
#1199=DIRECTION('center_axis',(0.,0.,-1.));
#1200=DIRECTION('ref_axis',(-1.,0.,0.));
#1201=DIRECTION('',(0.,0.,-1.));
#1202=DIRECTION('center_axis',(0.,0.,-1.));
#1203=DIRECTION('ref_axis',(-1.,0.,0.));
#1204=DIRECTION('center_axis',(0.,0.,1.));
#1205=DIRECTION('ref_axis',(-1.,0.,0.));
#1206=DIRECTION('center_axis',(0.,0.,1.));
#1207=DIRECTION('ref_axis',(-1.,0.,0.));
#1208=DIRECTION('center_axis',(0.,0.,-1.));
#1209=DIRECTION('ref_axis',(-1.,0.,0.));
#1210=DIRECTION('',(0.,0.,-1.));
#1211=DIRECTION('center_axis',(0.,0.,-1.));
#1212=DIRECTION('ref_axis',(-1.,0.,0.));
#1213=DIRECTION('',(0.,0.,-1.));
#1214=DIRECTION('center_axis',(0.,0.,-1.));
#1215=DIRECTION('ref_axis',(-1.,0.,0.));
#1216=DIRECTION('',(0.,0.,-1.));
#1217=DIRECTION('center_axis',(0.,0.,-1.));
#1218=DIRECTION('ref_axis',(-1.,0.,0.));
#1219=DIRECTION('',(0.,0.,-1.));
#1220=DIRECTION('center_axis',(0.,0.,-1.));
#1221=DIRECTION('ref_axis',(1.,-2.22044604925031E-15,0.));
#1222=DIRECTION('',(0.,0.,-1.));
#1223=DIRECTION('center_axis',(0.,0.,-1.));
#1224=DIRECTION('ref_axis',(1.,-2.22044604925031E-15,0.));
#1225=DIRECTION('',(0.,0.,-1.));
#1226=DIRECTION('center_axis',(1.,0.,0.));
#1227=DIRECTION('ref_axis',(0.,-1.,0.));
#1228=DIRECTION('',(0.,0.,-1.));
#1229=DIRECTION('',(0.,-1.,0.));
#1230=DIRECTION('center_axis',(0.,0.,-1.));
#1231=DIRECTION('ref_axis',(2.22044604925031E-15,-1.,0.));
#1232=DIRECTION('',(0.,0.,-1.));
#1233=DIRECTION('center_axis',(0.,0.,-1.));
#1234=DIRECTION('ref_axis',(2.22044604925031E-15,-1.,0.));
#1235=DIRECTION('center_axis',(0.,-1.,0.));
#1236=DIRECTION('ref_axis',(-1.,0.,0.));
#1237=DIRECTION('',(0.,0.,-1.));
#1238=DIRECTION('',(-1.,0.,0.));
#1239=DIRECTION('center_axis',(0.,0.,-1.));
#1240=DIRECTION('ref_axis',(-1.,2.22044604925031E-15,0.));
#1241=DIRECTION('',(0.,0.,-1.));
#1242=DIRECTION('center_axis',(0.,0.,-1.));
#1243=DIRECTION('ref_axis',(-1.,2.22044604925031E-15,0.));
#1244=DIRECTION('center_axis',(-1.,0.,0.));
#1245=DIRECTION('ref_axis',(0.,1.,0.));
#1246=DIRECTION('',(0.,0.,-1.));
#1247=DIRECTION('',(0.,1.,0.));
#1248=DIRECTION('center_axis',(0.,0.,-1.));
#1249=DIRECTION('ref_axis',(2.22044604925031E-15,1.,0.));
#1250=DIRECTION('',(0.,0.,-1.));
#1251=DIRECTION('center_axis',(0.,0.,-1.));
#1252=DIRECTION('ref_axis',(2.22044604925031E-15,1.,0.));
#1253=DIRECTION('center_axis',(0.,1.,0.));
#1254=DIRECTION('ref_axis',(1.,0.,0.));
#1255=DIRECTION('',(1.,0.,0.));
#1256=DIRECTION('center_axis',(0.,0.,1.));
#1257=DIRECTION('ref_axis',(-1.,0.,0.));
#1258=DIRECTION('center_axis',(-0.376602430873175,-0.926374982963387,0.));
#1259=DIRECTION('ref_axis',(-0.926374982963387,0.376602430873175,0.));
#1260=DIRECTION('',(0.,0.,1.));
#1261=DIRECTION('center_axis',(0.,0.,-1.));
#1262=DIRECTION('ref_axis',(-1.,0.,0.));
#1263=DIRECTION('center_axis',(0.,0.,1.));
#1264=DIRECTION('ref_axis',(1.,0.,0.));
#1265=DIRECTION('',(0.,0.,1.));
#1266=DIRECTION('',(1.,0.,0.));
#1267=CARTESIAN_POINT('',(0.,0.,0.));
#1268=CARTESIAN_POINT('',(0.,0.,0.));
#1269=CARTESIAN_POINT('Origin',(71.7136756884011,4.39119616934459E-15,-9.65));
#1270=CARTESIAN_POINT('',(71.7136756884011,1.18860597969886,-12.7285087014696));
#1271=CARTESIAN_POINT('',(71.5137991113015,-3.3,-9.65));
#1272=CARTESIAN_POINT('Ctrl Pts',(71.7136756884011,1.18860597969886,-12.7285087014696));
#1273=CARTESIAN_POINT('Ctrl Pts',(71.7136756884011,0.803024244923463,-12.8773810289696));
#1274=CARTESIAN_POINT('Ctrl Pts',(71.7088489260601,0.389204046119569,-12.95));
#1275=CARTESIAN_POINT('Ctrl Pts',(71.6899215366602,-0.414736358633334,-12.95));
#1276=CARTESIAN_POINT('Ctrl Pts',(71.6738739881164,-0.856894342381355,-12.8670509840055));
#1277=CARTESIAN_POINT('Ctrl Pts',(71.6343454651917,-1.6700201373131,-12.5300551502446));
#1278=CARTESIAN_POINT('Ctrl Pts',(71.6111540909165,-2.04100636559168,-12.2760188638547));
#1279=CARTESIAN_POINT('Ctrl Pts',(71.570206491237,-2.62661163103243,-11.6901725552368));
#1280=CARTESIAN_POINT('Ctrl Pts',(71.5497608965936,-2.88043181179882,-11.3193192188739));
#1281=CARTESIAN_POINT('Ctrl Pts',(71.5214088688106,-3.21713175161788,-10.5064912629502));
#1282=CARTESIAN_POINT('Ctrl Pts',(71.5137991113015,-3.3,-10.064501554214));
#1283=CARTESIAN_POINT('Ctrl Pts',(71.5137991113015,-3.3,-9.65));
#1284=CARTESIAN_POINT('',(71.7136756884011,1.18860597969886,-6.57149129853038));
#1285=CARTESIAN_POINT('Ctrl Pts',(71.7136756884011,1.18860597969886,-6.57149129853038));
#1286=CARTESIAN_POINT('Ctrl Pts',(71.7136756884011,1.21340930703578,-6.58106781302099));
#1287=CARTESIAN_POINT('Ctrl Pts',(71.7136574095389,1.23810122440842,-6.59094581621328));
#1288=CARTESIAN_POINT('Ctrl Pts',(71.7130251990211,1.66917015429245,-6.76946967658576));
#1289=CARTESIAN_POINT('Ctrl Pts',(71.7073445826154,2.04024284788782,-7.02339473652659));
#1290=CARTESIAN_POINT('Ctrl Pts',(71.6940582182114,2.62627883783949,-7.6093174679895));
#1291=CARTESIAN_POINT('Ctrl Pts',(71.6856144724499,2.88029238849831,-7.9803973859924));
#1292=CARTESIAN_POINT('Ctrl Pts',(71.6731980695849,3.21715438219053,-8.79351020108674));
#1293=CARTESIAN_POINT('Ctrl Pts',(71.6695179199112,3.3,-9.23554870896253));
#1294=CARTESIAN_POINT('Ctrl Pts',(71.6695179199112,3.3,-9.65));
#1295=CARTESIAN_POINT('Ctrl Pts',(71.6695179199112,3.3,-10.0644512910375));
#1296=CARTESIAN_POINT('Ctrl Pts',(71.6731980695849,3.21715438219053,-10.5064897989133));
#1297=CARTESIAN_POINT('Ctrl Pts',(71.6856144724499,2.88029238849831,-11.3196026140076));
#1298=CARTESIAN_POINT('Ctrl Pts',(71.6940582182114,2.62627883783948,-11.6906825320105));
#1299=CARTESIAN_POINT('Ctrl Pts',(71.7073445826154,2.04024284788782,-12.2766052634734));
#1300=CARTESIAN_POINT('Ctrl Pts',(71.7130251990211,1.66917015429245,-12.5305303234142));
#1301=CARTESIAN_POINT('Ctrl Pts',(71.7136574095389,1.23810122440842,-12.7090541837867));
#1302=CARTESIAN_POINT('Ctrl Pts',(71.7136756884011,1.21340930703578,-12.718932186979));
#1303=CARTESIAN_POINT('Ctrl Pts',(71.7136756884011,1.18860597969886,-12.7285087014696));
#1304=CARTESIAN_POINT('Ctrl Pts',(71.5137991113015,-3.3,-9.65));
#1305=CARTESIAN_POINT('Ctrl Pts',(71.5137991113015,-3.3,-9.23549844578604));
#1306=CARTESIAN_POINT('Ctrl Pts',(71.5214088688106,-3.21713175161788,-8.79350873704975));
#1307=CARTESIAN_POINT('Ctrl Pts',(71.5497608965936,-2.88043181179882,-7.98068078112606));
#1308=CARTESIAN_POINT('Ctrl Pts',(71.570206491237,-2.62661163103243,-7.6098274447632));
#1309=CARTESIAN_POINT('Ctrl Pts',(71.6111540909165,-2.04100636559168,-7.02398113614528));
#1310=CARTESIAN_POINT('Ctrl Pts',(71.6343454651917,-1.6700201373131,-6.76994484975543));
#1311=CARTESIAN_POINT('Ctrl Pts',(71.6738739881164,-0.856894342381355,-6.43294901599445));
#1312=CARTESIAN_POINT('Ctrl Pts',(71.6899215366602,-0.414736358633335,-6.35));
#1313=CARTESIAN_POINT('Ctrl Pts',(71.7088489260601,0.389204046119568,-6.35));
#1314=CARTESIAN_POINT('Ctrl Pts',(71.7136756884011,0.803024244923462,-6.42261897103041));
#1315=CARTESIAN_POINT('Ctrl Pts',(71.7136756884011,1.18860597969886,-6.57149129853038));
#1316=CARTESIAN_POINT('',(63.224566110395,-3.3,-9.65000000226657));
#1317=CARTESIAN_POINT('',(71.7136756884011,-3.3,-9.65));
#1318=CARTESIAN_POINT('',(60.1737947220646,-0.574665094971513,-6.40042156139889));
#1319=CARTESIAN_POINT('Ctrl Pts',(60.1737947220646,-0.574665094971623,-6.40042156139889));
#1320=CARTESIAN_POINT('Ctrl Pts',(60.174249278852,-0.574665094971623,-6.40042156139889));
#1321=CARTESIAN_POINT('Ctrl Pts',(60.1747039536671,-0.574665633127476,-6.40042165656783));
#1322=CARTESIAN_POINT('Ctrl Pts',(60.2444807769487,-0.574830921495521,-6.4004508867381));
#1323=CARTESIAN_POINT('Ctrl Pts',(60.3110940029186,-0.587587386871472,-6.40265358255943));
#1324=CARTESIAN_POINT('Ctrl Pts',(60.5347874213288,-0.663650785402471,-6.41695907652274));
#1325=CARTESIAN_POINT('Ctrl Pts',(60.6983911024598,-0.775602057379258,-6.43901385615865));
#1326=CARTESIAN_POINT('Ctrl Pts',(61.2015660674413,-1.18432908966231,-6.55739228742445));
#1327=CARTESIAN_POINT('Ctrl Pts',(61.6280566015999,-1.60985248005754,-6.71747066855784));
#1328=CARTESIAN_POINT('Ctrl Pts',(62.3038724559515,-2.30916359316461,-7.26796967613024));
#1329=CARTESIAN_POINT('Ctrl Pts',(62.5403210003364,-2.5606668637963,-7.53333726195898));
#1330=CARTESIAN_POINT('Ctrl Pts',(62.890021020781,-2.93599587143405,-8.11253038195531));
#1331=CARTESIAN_POINT('Ctrl Pts',(63.0170248636205,-3.07387972317972,-8.40375536589529));
#1332=CARTESIAN_POINT('Ctrl Pts',(63.1822587461421,-3.25373079921103,-9.01951951554366));
#1333=CARTESIAN_POINT('Ctrl Pts',(63.2245244793254,-3.30000000043839,-9.33086132433902));
#1334=CARTESIAN_POINT('Ctrl Pts',(63.224566110395,-3.3,-9.65000000453315));
#1335=CARTESIAN_POINT('',(60.2088430375747,0.574665094971565,-6.40042156139889));
#1336=CARTESIAN_POINT('Ctrl Pts',(60.2088430375747,0.574665094971567,-6.40042156139887));
#1337=CARTESIAN_POINT('Ctrl Pts',(60.2057997350093,0.381366202868951,-6.36623801165946));
#1338=CARTESIAN_POINT('Ctrl Pts',(60.2012840622309,0.187765380543574,-6.35));
#1339=CARTESIAN_POINT('Ctrl Pts',(60.1898308338406,-0.187858180759319,-6.35));
#1340=CARTESIAN_POINT('Ctrl Pts',(60.1825393925967,-0.381448402576945,-6.36625254809977));
#1341=CARTESIAN_POINT('Ctrl Pts',(60.1737947220646,-0.574665094971516,-6.40042156139887));
#1342=CARTESIAN_POINT('',(60.2087673579598,0.569876893015603,-12.9004215613989));
#1343=CARTESIAN_POINT('Ctrl Pts',(60.2087673579598,0.569876893015681,-12.9004215613989));
#1344=CARTESIAN_POINT('Ctrl Pts',(60.273931581192,0.56987689301568,-12.9004215613989));
#1345=CARTESIAN_POINT('Ctrl Pts',(60.3384928824988,0.581169427517774,-12.8984916089478));
#1346=CARTESIAN_POINT('Ctrl Pts',(60.6364200719051,0.67693770997303,-12.880718208905));
#1347=CARTESIAN_POINT('Ctrl Pts',(60.8850429589276,0.87850211963392,-12.8326831038123));
#1348=CARTESIAN_POINT('Ctrl Pts',(61.3458940711469,1.25179735627993,-12.7166233433838));
#1349=CARTESIAN_POINT('Ctrl Pts',(61.7825503904722,1.66550517736137,-12.5519147179999));
#1350=CARTESIAN_POINT('Ctrl Pts',(62.4736464540057,2.34478651886591,-11.9948628333381));
#1351=CARTESIAN_POINT('Ctrl Pts',(62.7160444121409,2.58884478548112,-11.7328343346565));
#1352=CARTESIAN_POINT('Ctrl Pts',(63.0709248563144,2.94966490804813,-11.1580247415227));
#1353=CARTESIAN_POINT('Ctrl Pts',(63.2004080355479,3.08271264848837,-10.874348018632));
#1354=CARTESIAN_POINT('Ctrl Pts',(63.366573106721,3.25400233602966,-10.2717055356486));
#1355=CARTESIAN_POINT('Ctrl Pts',(63.4108875315266,3.29995925853459,-9.96913664817079));
#1356=CARTESIAN_POINT('Ctrl Pts',(63.41088549432,3.29999997307366,-9.65042156139889));
#1357=CARTESIAN_POINT('Ctrl Pts',(63.4108841714756,3.30002641074705,-9.44346636644172));
#1358=CARTESIAN_POINT('Ctrl Pts',(63.3920769425102,3.28058008934583,-9.23853992206548));
#1359=CARTESIAN_POINT('Ctrl Pts',(63.3206405777899,3.20686846374979,-8.84774400364966));
#1360=CARTESIAN_POINT('Ctrl Pts',(63.269233580635,3.1538585231964,-8.65906875540393));
#1361=CARTESIAN_POINT('Ctrl Pts',(63.0695916879656,2.94888691700655,-8.12109224215275));
#1362=CARTESIAN_POINT('Ctrl Pts',(62.8820166586441,2.75705094595293,-7.8015061733803));
#1363=CARTESIAN_POINT('Ctrl Pts',(62.3497433856857,2.22225409070533,-7.16492962296046));
#1364=CARTESIAN_POINT('Ctrl Pts',(61.9770715303509,1.85088070753292,-6.88481365531442));
#1365=CARTESIAN_POINT('Ctrl Pts',(61.2886738860875,1.21334361026194,-6.5679221284454));
#1366=CARTESIAN_POINT('Ctrl Pts',(61.0197832077731,0.977053668113476,-6.49355813332236));
#1367=CARTESIAN_POINT('Ctrl Pts',(60.5870435212065,0.672045281829556,-6.41576013762358));
#1368=CARTESIAN_POINT('Ctrl Pts',(60.4507776921936,0.616639039470353,-6.40803819459068));
#1369=CARTESIAN_POINT('Ctrl Pts',(60.3088525129391,0.581434273013808,-6.4016032964471));
#1370=CARTESIAN_POINT('Ctrl Pts',(60.259866737115,0.574665094971633,-6.40042156139889));
#1371=CARTESIAN_POINT('Ctrl Pts',(60.2088430375748,0.574665094971634,-6.40042156139889));
#1372=CARTESIAN_POINT('',(60.174011133394,-0.569876893015634,-12.9004215613989));
#1373=CARTESIAN_POINT('Ctrl Pts',(60.174011133394,-0.569876893015634,-12.9004215613989));
#1374=CARTESIAN_POINT('Ctrl Pts',(60.1826602141268,-0.378250865903032,-12.9340182019851));
#1375=CARTESIAN_POINT('Ctrl Pts',(60.1898781373413,-0.186306800764273,-12.95));
#1376=CARTESIAN_POINT('Ctrl Pts',(60.2012368021541,0.186215424692989,-12.95));
#1377=CARTESIAN_POINT('Ctrl Pts',(60.2057255715012,0.378169820654655,-12.9340324111618));
#1378=CARTESIAN_POINT('Ctrl Pts',(60.2087673579598,0.569876893015605,-12.9004215613989));
#1379=CARTESIAN_POINT('Ctrl Pts',(63.224566110395,-3.3,-9.65000000453315));
#1380=CARTESIAN_POINT('Ctrl Pts',(63.2245661287252,-3.2999999999998,-9.65014052197709));
#1381=CARTESIAN_POINT('Ctrl Pts',(63.2245661388496,-3.29999999102456,-9.65028104093259));
#1382=CARTESIAN_POINT('Ctrl Pts',(63.2245661407675,-3.29999997307365,-9.65042156139889));
#1383=CARTESIAN_POINT('Ctrl Pts',(63.2245690645362,-3.29997260820242,-9.86463489916814));
#1384=CARTESIAN_POINT('Ctrl Pts',(63.2055150052679,-3.2790833565333,-10.0767767399173));
#1385=CARTESIAN_POINT('Ctrl Pts',(63.13219589142,-3.19898823100675,-10.4860034603738));
#1386=CARTESIAN_POINT('Ctrl Pts',(63.0792122282224,-3.14118345521684,-10.6809191706746));
#1387=CARTESIAN_POINT('Ctrl Pts',(62.8772704467312,-2.92189397106207,-11.2339257943351));
#1388=CARTESIAN_POINT('Ctrl Pts',(62.6888753653546,-2.71828626482063,-11.5550930925453));
#1389=CARTESIAN_POINT('Ctrl Pts',(62.1517931601384,-2.14838067290025,-12.2055630694154));
#1390=CARTESIAN_POINT('Ctrl Pts',(61.7799067767958,-1.75848692645026,-12.4718358796794));
#1391=CARTESIAN_POINT('Ctrl Pts',(61.15395327696,-1.15333724340031,-12.7528902206791));
#1392=CARTESIAN_POINT('Ctrl Pts',(60.9222025829464,-0.943044519370211,-12.8158629858486));
#1393=CARTESIAN_POINT('Ctrl Pts',(60.564943823516,-0.683780728088061,-12.8805668292158));
#1394=CARTESIAN_POINT('Ctrl Pts',(60.4468115309969,-0.625536501961066,-12.8903078513851));
#1395=CARTESIAN_POINT('Ctrl Pts',(60.2911300582964,-0.579229028442657,-12.8988137464462));
#1396=CARTESIAN_POINT('Ctrl Pts',(60.2336193080974,-0.569876893015672,-12.9004215613989));
#1397=CARTESIAN_POINT('Ctrl Pts',(60.174011133394,-0.56987689301567,-12.9004215613989));
#1398=CARTESIAN_POINT('Origin',(21.2136756884011,1.18860597969886,-15.6504215613989));
#1399=CARTESIAN_POINT('',(60.2136756884011,1.18860597969886,-12.9004215613989));
#1400=CARTESIAN_POINT('Origin',(21.2136756884011,1.18860597969885,-12.9004215613989));
#1401=CARTESIAN_POINT('',(60.2136756884011,1.18860597969886,-15.6504215613989));
#1402=CARTESIAN_POINT('',(60.2136756884011,1.18860597969886,-15.6504215613989));
#1403=CARTESIAN_POINT('Origin',(21.2136756884011,1.18860597969886,-15.6504215613989));
#1404=CARTESIAN_POINT('Origin',(21.2136756884011,1.18860597969885,-12.9004215613989));
#1405=CARTESIAN_POINT('Origin',(-44.2863243115989,1.18860597969883,-3.65042156139888));
#1406=CARTESIAN_POINT('',(-41.7863243115989,1.18860597969883,-3.65042156139888));
#1407=CARTESIAN_POINT('Origin',(-44.2863243115989,1.18860597969883,-3.65042156139888));
#1408=CARTESIAN_POINT('',(-41.7863243115989,1.18860597969883,-5.15042156139888));
#1409=CARTESIAN_POINT('',(-41.7863243115989,1.18860597969883,-3.65042156139888));
#1410=CARTESIAN_POINT('Origin',(-44.2863243115989,1.18860597969883,-5.15042156139888));
#1411=CARTESIAN_POINT('Origin',(-44.2863243115989,1.18860597969883,-5.15042156139888));
#1412=CARTESIAN_POINT('',(-42.7863243115989,1.18860597969883,-5.15042156139888));
#1413=CARTESIAN_POINT('Origin',(-44.2863243115989,1.18860597969883,-5.15042156139888));
#1414=CARTESIAN_POINT('Origin',(-44.2863243115989,22.1886059796988,-3.65042156139888));
#1415=CARTESIAN_POINT('',(-41.7863243115989,22.1886059796988,-3.65042156139888));
#1416=CARTESIAN_POINT('Origin',(-44.2863243115989,22.1886059796988,-3.65042156139888));
#1417=CARTESIAN_POINT('',(-41.7863243115989,22.1886059796988,-5.15042156139888));
#1418=CARTESIAN_POINT('',(-41.7863243115989,22.1886059796988,-3.65042156139888));
#1419=CARTESIAN_POINT('Origin',(-44.2863243115989,22.1886059796988,-5.15042156139888));
#1420=CARTESIAN_POINT('Origin',(-44.2863243115989,22.1886059796988,-5.15042156139888));
#1421=CARTESIAN_POINT('',(-42.7863243115989,22.1886059796988,-5.15042156139888));
#1422=CARTESIAN_POINT('Origin',(-44.2863243115989,22.1886059796988,-5.15042156139888));
#1423=CARTESIAN_POINT('Origin',(-44.2863243115989,-19.8113940203012,-3.65042156139888));
#1424=CARTESIAN_POINT('',(-41.7863243115989,-19.8113940203012,-3.65042156139888));
#1425=CARTESIAN_POINT('Origin',(-44.2863243115989,-19.8113940203012,-3.65042156139888));
#1426=CARTESIAN_POINT('',(-41.7863243115989,-19.8113940203012,-5.15042156139888));
#1427=CARTESIAN_POINT('',(-41.7863243115989,-19.8113940203012,-3.65042156139888));
#1428=CARTESIAN_POINT('Origin',(-44.2863243115989,-19.8113940203012,-5.15042156139888));
#1429=CARTESIAN_POINT('Origin',(-44.2863243115989,-19.8113940203012,-5.15042156139888));
#1430=CARTESIAN_POINT('',(-42.7863243115989,-19.8113940203012,-5.15042156139888));
#1431=CARTESIAN_POINT('Origin',(-44.2863243115989,-19.8113940203012,-5.15042156139888));
#1432=CARTESIAN_POINT('Origin',(-18.7863243115989,47.6886059796989,-3.65042156139888));
#1433=CARTESIAN_POINT('',(-16.2863243115989,47.6886059796989,-3.65042156139888));
#1434=CARTESIAN_POINT('Origin',(-18.7863243115989,47.6886059796989,-3.65042156139888));
#1435=CARTESIAN_POINT('',(-16.2863243115989,47.6886059796989,-5.15042156139888));
#1436=CARTESIAN_POINT('',(-16.2863243115989,47.6886059796989,-3.65042156139888));
#1437=CARTESIAN_POINT('Origin',(-18.7863243115989,47.6886059796989,-5.15042156139888));
#1438=CARTESIAN_POINT('Origin',(-18.7863243115989,47.6886059796989,-5.15042156139888));
#1439=CARTESIAN_POINT('',(-17.2863243115989,47.6886059796989,-5.15042156139888));
#1440=CARTESIAN_POINT('Origin',(-18.7863243115989,47.6886059796989,-5.15042156139888));
#1441=CARTESIAN_POINT('Origin',(-18.7863243115989,-45.3113940203012,-3.65042156139888));
#1442=CARTESIAN_POINT('',(-16.2863243115989,-45.3113940203012,-3.65042156139888));
#1443=CARTESIAN_POINT('Origin',(-18.7863243115989,-45.3113940203012,-3.65042156139888));
#1444=CARTESIAN_POINT('',(-16.2863243115989,-45.3113940203012,-5.15042156139888));
#1445=CARTESIAN_POINT('',(-16.2863243115989,-45.3113940203012,-3.65042156139888));
#1446=CARTESIAN_POINT('Origin',(-18.7863243115989,-45.3113940203012,-5.15042156139888));
#1447=CARTESIAN_POINT('Origin',(-18.7863243115989,-45.3113940203012,-5.15042156139888));
#1448=CARTESIAN_POINT('',(-17.2863243115989,-45.3113940203012,-5.15042156139888));
#1449=CARTESIAN_POINT('Origin',(-18.7863243115989,-45.3113940203012,-5.15042156139888));
#1450=CARTESIAN_POINT('Origin',(-48.2863243115989,-19.8113940203012,-3.65042156139888));
#1451=CARTESIAN_POINT('',(-48.286324311599,22.1886059796988,-3.65042156139888));
#1452=CARTESIAN_POINT('',(-48.2863243115989,-19.8113940203012,-3.65042156139888));
#1453=CARTESIAN_POINT('',(-48.286324311599,22.1886059796988,-3.65042156139888));
#1454=CARTESIAN_POINT('',(-48.286324311599,22.1886059796988,-15.6504215613989));
#1455=CARTESIAN_POINT('',(-48.286324311599,22.1886059796988,-3.65042156139888));
#1456=CARTESIAN_POINT('',(-48.2863243115989,-19.8113940203012,-15.6504215613989));
#1457=CARTESIAN_POINT('',(-48.286324311599,22.1886059796988,-15.6504215613989));
#1458=CARTESIAN_POINT('',(-48.2863243115989,-19.8113940203012,-3.65042156139888));
#1459=CARTESIAN_POINT('Origin',(-18.7863243115989,-19.8113940203012,-3.65042156139888));
#1460=CARTESIAN_POINT('',(-18.7863243115989,-49.3113940203012,-3.65042156139888));
#1461=CARTESIAN_POINT('Origin',(-18.7863243115989,-19.8113940203012,-3.65042156139888));
#1462=CARTESIAN_POINT('',(-18.7863243115989,-49.3113940203012,-15.6504215613989));
#1463=CARTESIAN_POINT('Origin',(-18.7863243115989,-19.8113940203012,-15.6504215613989));
#1464=CARTESIAN_POINT('',(-18.7863243115989,-49.3113940203012,-3.65042156139888));
#1465=CARTESIAN_POINT('Origin',(21.2136756884011,-49.3113940203012,-3.65042156139888));
#1466=CARTESIAN_POINT('',(21.2136756884011,-49.3113940203012,-3.65042156139888));
#1467=CARTESIAN_POINT('',(-18.7863243115989,-49.3113940203012,-3.65042156139888));
#1468=CARTESIAN_POINT('',(21.2136756884011,-49.3113940203011,-15.6504215613989));
#1469=CARTESIAN_POINT('',(-18.7863243115989,-49.3113940203012,-15.6504215613989));
#1470=CARTESIAN_POINT('',(21.2136756884011,-49.3113940203012,-3.65042156139888));
#1471=CARTESIAN_POINT('Origin',(21.2136756884011,1.18860597969886,-3.65042156139888));
#1472=CARTESIAN_POINT('',(21.2136756884011,51.6886059796989,-3.65042156139888));
#1473=CARTESIAN_POINT('Origin',(21.2136756884011,1.18860597969886,-3.65042156139888));
#1474=CARTESIAN_POINT('',(21.2136756884011,51.6886059796989,-15.6504215613989));
#1475=CARTESIAN_POINT('Origin',(21.2136756884011,1.18860597969886,-15.6504215613989));
#1476=CARTESIAN_POINT('',(21.2136756884011,51.6886059796989,-3.65042156139888));
#1477=CARTESIAN_POINT('Origin',(-18.7863243115989,51.6886059796989,-3.65042156139888));
#1478=CARTESIAN_POINT('',(-18.7863243115989,51.6886059796989,-3.65042156139888));
#1479=CARTESIAN_POINT('',(21.2136756884011,51.6886059796989,-3.65042156139888));
#1480=CARTESIAN_POINT('',(-18.7863243115989,51.6886059796989,-15.6504215613989));
#1481=CARTESIAN_POINT('',(21.2136756884011,51.6886059796989,-15.6504215613989));
#1482=CARTESIAN_POINT('',(-18.7863243115989,51.6886059796989,-3.65042156139888));
#1483=CARTESIAN_POINT('Origin',(-18.7863243115989,22.1886059796988,-3.65042156139888));
#1484=CARTESIAN_POINT('Origin',(-18.7863243115989,22.1886059796988,-3.65042156139888));
#1485=CARTESIAN_POINT('Origin',(-18.7863243115989,22.1886059796988,-15.6504215613989));
#1486=CARTESIAN_POINT('Origin',(21.2136756884011,1.18860597969886,-15.6504215613989));
#1487=CARTESIAN_POINT('',(60.2136756884011,1.18860597969886,-3.65042156139888));
#1488=CARTESIAN_POINT('Origin',(21.2136756884011,1.18860597969886,-3.65042156139888));
#1489=CARTESIAN_POINT('',(60.2136756884011,1.18860597969886,-6.40042156139889));
#1490=CARTESIAN_POINT('',(60.2136756884011,1.18860597969886,-15.6504215613989));
#1491=CARTESIAN_POINT('Origin',(21.2136756884011,1.18860597969885,-6.40042156139889));
#1492=CARTESIAN_POINT('Origin',(21.2136756884011,1.18860597969885,-6.40042156139889));
#1493=CARTESIAN_POINT('Origin',(21.2136756884011,1.18860597969885,-9.65042156139889));
#1494=CARTESIAN_POINT('Origin',(54.0941410135756,-31.6918593454756,-3.65042156139888));
#1495=CARTESIAN_POINT('',(56.5941410135756,-31.6918593454756,-3.65042156139888));
#1496=CARTESIAN_POINT('Origin',(54.0941410135756,-31.6918593454756,-3.65042156139888));
#1497=CARTESIAN_POINT('',(56.5941410135756,-31.6918593454756,-5.25042156139888));
#1498=CARTESIAN_POINT('',(56.5941410135756,-31.6918593454756,-3.65042156139888));
#1499=CARTESIAN_POINT('Origin',(54.0941410135756,-31.6918593454756,-5.25042156139888));
#1500=CARTESIAN_POINT('Origin',(54.0941410135756,-31.6918593454756,-5.25042156139888));
#1501=CARTESIAN_POINT('',(55.5941410135756,-31.6918593454756,-5.25042156139888));
#1502=CARTESIAN_POINT('Origin',(54.0941410135756,-31.6918593454756,-5.25042156139888));
#1503=CARTESIAN_POINT('Origin',(21.2136756884011,-45.3113940203012,-3.65042156139888));
#1504=CARTESIAN_POINT('',(23.7136756884011,-45.3113940203012,-3.65042156139888));
#1505=CARTESIAN_POINT('Origin',(21.2136756884011,-45.3113940203012,-3.65042156139888));
#1506=CARTESIAN_POINT('',(23.7136756884011,-45.3113940203012,-5.25042156139888));
#1507=CARTESIAN_POINT('',(23.7136756884011,-45.3113940203012,-3.65042156139888));
#1508=CARTESIAN_POINT('Origin',(21.2136756884011,-45.3113940203012,-5.25042156139888));
#1509=CARTESIAN_POINT('Origin',(21.2136756884011,-45.3113940203012,-5.25042156139888));
#1510=CARTESIAN_POINT('',(22.7136756884011,-45.3113940203012,-5.25042156139888));
#1511=CARTESIAN_POINT('Origin',(21.2136756884011,-45.3113940203012,-5.25042156139888));
#1512=CARTESIAN_POINT('Origin',(21.2136756884011,-45.3113940203012,-3.65042156139888));
#1513=CARTESIAN_POINT('',(22.7136756884011,-45.3113940203012,-15.6504215613989));
#1514=CARTESIAN_POINT('',(22.7136756884011,-45.3113940203012,-3.65042156139888));
#1515=CARTESIAN_POINT('Origin',(21.2136756884011,-45.3113940203012,-15.6504215613989));
#1516=CARTESIAN_POINT('Origin',(-44.2863243115989,-19.8113940203012,-3.65042156139888));
#1517=CARTESIAN_POINT('',(-42.7863243115989,-19.8113940203012,-15.6504215613989));
#1518=CARTESIAN_POINT('',(-42.7863243115989,-19.8113940203012,-3.65042156139888));
#1519=CARTESIAN_POINT('Origin',(-44.2863243115989,-19.8113940203012,-15.6504215613989));
#1520=CARTESIAN_POINT('Origin',(54.0941410135756,-31.6918593454756,-3.65042156139888));
#1521=CARTESIAN_POINT('',(55.5941410135756,-31.6918593454756,-15.6504215613989));
#1522=CARTESIAN_POINT('',(55.5941410135756,-31.6918593454756,-3.65042156139888));
#1523=CARTESIAN_POINT('Origin',(54.0941410135756,-31.6918593454756,-15.6504215613989));
#1524=CARTESIAN_POINT('Origin',(-18.7863243115989,-45.3113940203012,-3.65042156139888));
#1525=CARTESIAN_POINT('',(-17.2863243115989,-45.3113940203012,-15.6504215613989));
#1526=CARTESIAN_POINT('',(-17.2863243115989,-45.3113940203012,-3.65042156139888));
#1527=CARTESIAN_POINT('Origin',(-18.7863243115989,-45.3113940203012,-15.6504215613989));
#1528=CARTESIAN_POINT('Origin',(11.7136756884011,1.18860597969886,-15.6504215613989));
#1529=CARTESIAN_POINT('',(-42.7863243115989,1.18860597969888,-15.6504215613989));
#1530=CARTESIAN_POINT('Origin',(-44.2863243115989,1.18860597969883,-15.6504215613989));
#1531=CARTESIAN_POINT('',(55.5941410135755,34.0690713048733,-15.6504215613989));
#1532=CARTESIAN_POINT('Origin',(54.0941410135755,34.0690713048733,-15.6504215613989));
#1533=CARTESIAN_POINT('',(-42.7863243115989,22.1886059796988,-15.6504215613989));
#1534=CARTESIAN_POINT('Origin',(-44.2863243115989,22.1886059796988,-15.6504215613989));
#1535=CARTESIAN_POINT('',(-17.2863243115989,47.6886059796989,-15.6504215613989));
#1536=CARTESIAN_POINT('Origin',(-18.7863243115989,47.6886059796989,-15.6504215613989));
#1537=CARTESIAN_POINT('',(22.7136756884011,47.6886059796989,-15.6504215613989));
#1538=CARTESIAN_POINT('Origin',(21.2136756884011,47.6886059796989,-15.6504215613989));
#1539=CARTESIAN_POINT('',(-31.0000004917383,27.0000004023314,-15.6504215613989));
#1540=CARTESIAN_POINT('',(-27.000000372529,27.0000004023314,-15.6504215613989));
#1541=CARTESIAN_POINT('',(-7.64316234206398,27.0000004023314,-15.6504215613989));
#1542=CARTESIAN_POINT('',(-25.000000372529,29.0000004023314,-15.6504215613989));
#1543=CARTESIAN_POINT('Origin',(-27.000000372529,29.0000004023314,-15.6504215613989));
#1544=CARTESIAN_POINT('',(-25.000000372529,37.0000005811453,-15.6504215613989));
#1545=CARTESIAN_POINT('',(-25.000000372529,19.0943032804221,-15.6504215613989));
#1546=CARTESIAN_POINT('',(-27.000000372529,39.0000005811453,-15.6504215613989));
#1547=CARTESIAN_POINT('Origin',(-27.000000372529,37.0000005811453,-15.6504215613989));
#1548=CARTESIAN_POINT('',(-31.0000004917383,39.0000005811453,-15.6504215613989));
#1549=CARTESIAN_POINT('',(-9.64316240166862,39.0000005811453,-15.6504215613989));
#1550=CARTESIAN_POINT('',(-33.0000004917383,37.0000005811453,-15.6504215613989));
#1551=CARTESIAN_POINT('Origin',(-31.0000004917383,37.0000005811453,-15.6504215613989));
#1552=CARTESIAN_POINT('',(-33.0000004917383,29.0000004023314,-15.6504215613989));
#1553=CARTESIAN_POINT('',(-33.0000004917383,15.0943031910151,-15.6504215613989));
#1554=CARTESIAN_POINT('Origin',(-31.0000004917383,29.0000004023314,-15.6504215613989));
#1555=CARTESIAN_POINT('Origin',(-44.2863243115989,1.18860597969883,-3.65042156139888));
#1556=CARTESIAN_POINT('',(-42.7863243115989,1.18860597969883,-3.65042156139888));
#1557=CARTESIAN_POINT('Origin',(21.2136756884011,47.6886059796989,-3.65042156139888));
#1558=CARTESIAN_POINT('',(23.7136756884011,47.6886059796989,-3.65042156139888));
#1559=CARTESIAN_POINT('Origin',(21.2136756884011,47.6886059796989,-3.65042156139888));
#1560=CARTESIAN_POINT('',(23.7136756884011,47.6886059796989,-5.25042156139888));
#1561=CARTESIAN_POINT('',(23.7136756884011,47.6886059796989,-3.65042156139888));
#1562=CARTESIAN_POINT('Origin',(21.2136756884011,47.6886059796989,-5.25042156139888));
#1563=CARTESIAN_POINT('Origin',(21.2136756884011,47.6886059796989,-5.25042156139888));
#1564=CARTESIAN_POINT('',(22.7136756884011,47.6886059796989,-5.25042156139888));
#1565=CARTESIAN_POINT('Origin',(21.2136756884011,47.6886059796989,-5.25042156139888));
#1566=CARTESIAN_POINT('Origin',(54.0941410135755,34.0690713048733,-3.65042156139888));
#1567=CARTESIAN_POINT('',(56.5941410135755,34.0690713048733,-3.65042156139888));
#1568=CARTESIAN_POINT('Origin',(54.0941410135755,34.0690713048733,-3.65042156139888));
#1569=CARTESIAN_POINT('',(56.5941410135755,34.0690713048733,-5.25042156139888));
#1570=CARTESIAN_POINT('',(56.5941410135755,34.0690713048733,-3.65042156139888));
#1571=CARTESIAN_POINT('Origin',(54.0941410135755,34.0690713048733,-5.25042156139888));
#1572=CARTESIAN_POINT('Origin',(54.0941410135755,34.0690713048733,-5.25042156139888));
#1573=CARTESIAN_POINT('',(55.5941410135755,34.0690713048733,-5.25042156139888));
#1574=CARTESIAN_POINT('Origin',(54.0941410135755,34.0690713048733,-5.25042156139888));
#1575=CARTESIAN_POINT('Origin',(54.0941410135755,34.0690713048733,-3.65042156139888));
#1576=CARTESIAN_POINT('',(55.5941410135755,34.0690713048733,-3.65042156139888));
#1577=CARTESIAN_POINT('Origin',(-44.2863243115989,22.1886059796988,-3.65042156139888));
#1578=CARTESIAN_POINT('',(-42.7863243115989,22.1886059796988,-3.65042156139888));
#1579=CARTESIAN_POINT('Origin',(-18.7863243115989,47.6886059796989,-3.65042156139888));
#1580=CARTESIAN_POINT('',(-17.2863243115989,47.6886059796989,-3.65042156139888));
#1581=CARTESIAN_POINT('Origin',(21.2136756884011,47.6886059796989,-3.65042156139888));
#1582=CARTESIAN_POINT('',(22.7136756884011,47.6886059796989,-3.65042156139888));
#1583=CARTESIAN_POINT('Origin',(-27.000000372529,37.0000005811453,-3.65042156139888));
#1584=CARTESIAN_POINT('',(-25.000000372529,37.0000005811453,-3.65042156139888));
#1585=CARTESIAN_POINT('',(-25.000000372529,37.0000005811453,-3.65042156139888));
#1586=CARTESIAN_POINT('',(-27.000000372529,39.0000005811453,-3.65042156139888));
#1587=CARTESIAN_POINT('Origin',(-27.000000372529,37.0000005811453,-3.65042156139888));
#1588=CARTESIAN_POINT('',(-27.000000372529,39.0000005811453,-3.65042156139888));
#1589=CARTESIAN_POINT('Origin',(-25.000000372529,37.0000005811453,-3.65042156139888));
#1590=CARTESIAN_POINT('',(-25.000000372529,29.0000004023314,-3.65042156139888));
#1591=CARTESIAN_POINT('',(-25.000000372529,29.0000004023314,-3.65042156139888));
#1592=CARTESIAN_POINT('',(-25.000000372529,19.0943032804221,-3.65042156139888));
#1593=CARTESIAN_POINT('Origin',(-27.000000372529,29.0000004023314,-3.65042156139888));
#1594=CARTESIAN_POINT('',(-27.000000372529,27.0000004023314,-3.65042156139888));
#1595=CARTESIAN_POINT('',(-27.000000372529,27.0000004023314,-3.65042156139888));
#1596=CARTESIAN_POINT('Origin',(-27.000000372529,29.0000004023314,-3.65042156139888));
#1597=CARTESIAN_POINT('Origin',(-27.000000372529,27.0000004023314,-3.65042156139888));
#1598=CARTESIAN_POINT('',(-31.0000004917383,27.0000004023314,-3.65042156139888));
#1599=CARTESIAN_POINT('',(-31.0000004917383,27.0000004023314,-3.65042156139888));
#1600=CARTESIAN_POINT('',(-7.64316234206398,27.0000004023314,-3.65042156139888));
#1601=CARTESIAN_POINT('Origin',(-31.0000004917383,29.0000004023314,-3.65042156139888));
#1602=CARTESIAN_POINT('',(-33.0000004917383,29.0000004023314,-3.65042156139888));
#1603=CARTESIAN_POINT('',(-33.0000004917383,29.0000004023314,-3.65042156139888));
#1604=CARTESIAN_POINT('Origin',(-31.0000004917383,29.0000004023314,-3.65042156139888));
#1605=CARTESIAN_POINT('Origin',(-33.0000004917383,29.0000004023314,-3.65042156139888));
#1606=CARTESIAN_POINT('',(-33.0000004917383,37.0000005811453,-3.65042156139888));
#1607=CARTESIAN_POINT('',(-33.0000004917383,37.0000005811453,-3.65042156139888));
#1608=CARTESIAN_POINT('',(-33.0000004917383,15.0943031910151,-3.65042156139888));
#1609=CARTESIAN_POINT('Origin',(-31.0000004917383,37.0000005811453,-3.65042156139888));
#1610=CARTESIAN_POINT('',(-31.0000004917383,39.0000005811453,-3.65042156139888));
#1611=CARTESIAN_POINT('',(-31.0000004917383,39.0000005811453,-3.65042156139888));
#1612=CARTESIAN_POINT('Origin',(-31.0000004917383,37.0000005811453,-3.65042156139888));
#1613=CARTESIAN_POINT('Origin',(-31.0000004917383,39.0000005811453,-3.65042156139888));
#1614=CARTESIAN_POINT('',(-9.64316240166862,39.0000005811453,-3.65042156139888));
#1615=CARTESIAN_POINT('Origin',(11.7136756884011,1.18860597969886,-3.65042156139888));
#1616=CARTESIAN_POINT('Origin',(63.5827808345033,-23.4255957972943,-3.65042156139888));
#1617=CARTESIAN_POINT('',(57.4924186403466,-20.9496597569472,-8.20575344317521));
#1618=CARTESIAN_POINT('',(57.492418640333,-20.9496597569633,-11.0950896796245));
#1619=CARTESIAN_POINT('Ctrl Pts',(57.4924186403597,-20.9496597569282,-8.20575344317272));
#1620=CARTESIAN_POINT('Ctrl Pts',(57.5243982603325,-20.9626605426161,-8.27466268006751));
#1621=CARTESIAN_POINT('Ctrl Pts',(57.5534559135539,-20.9744734510387,-8.34346767681197));
#1622=CARTESIAN_POINT('Ctrl Pts',(57.7219116292103,-21.0429563366707,-8.7801219031592));
#1623=CARTESIAN_POINT('Ctrl Pts',(57.8091871635769,-21.0784367619873,-9.25058516833257));
#1624=CARTESIAN_POINT('Ctrl Pts',(57.8091871635769,-21.0784367619873,-9.65042156139889));
#1625=CARTESIAN_POINT('Ctrl Pts',(57.8091871635769,-21.0784367619873,-10.0502579544652));
#1626=CARTESIAN_POINT('Ctrl Pts',(57.7219116292103,-21.0429563366707,-10.5207212196386));
#1627=CARTESIAN_POINT('Ctrl Pts',(57.5534559135534,-20.9744734510384,-10.9573754459872));
#1628=CARTESIAN_POINT('Ctrl Pts',(57.5243982603313,-20.9626605426156,-11.0261804427331));
#1629=CARTESIAN_POINT('Ctrl Pts',(57.4924186403577,-20.9496597569274,-11.0950896796292));
#1630=CARTESIAN_POINT('',(57.4924186403619,-20.9496597569291,-3.65042156139888));
#1631=CARTESIAN_POINT('Origin',(21.2136756884011,1.18860597969886,-3.65042156139888));
#1632=CARTESIAN_POINT('Ctrl Pts',(57.4924186403169,-20.9496597570027,-11.0950896796245));
#1633=CARTESIAN_POINT('Ctrl Pts',(55.7444880605672,-23.814054147906,-11.258862061739));
#1634=CARTESIAN_POINT('Ctrl Pts',(53.5991215331042,-26.5664457584695,-11.384507086487));
#1635=CARTESIAN_POINT('Ctrl Pts',(47.1709360759009,-32.8989191848884,-11.6477774211746));
#1636=CARTESIAN_POINT('Ctrl Pts',(42.6392997145679,-35.9028318580511,-11.7470618795873));
#1637=CARTESIAN_POINT('Ctrl Pts',(32.5998307068474,-40.1318667073309,-11.8831520187398));
#1638=CARTESIAN_POINT('Ctrl Pts',(27.1575968147959,-41.2463986171137,-11.9147470194));
#1639=CARTESIAN_POINT('Ctrl Pts',(16.042445737501,-41.3731037303173,-11.918494584295));
#1640=CARTESIAN_POINT('Ctrl Pts',(10.4780773860634,-40.3080626849977,-11.8883665016246));
#1641=CARTESIAN_POINT('Ctrl Pts',(0.060248588495192,-36.1062252430307,-11.7540191504972));
#1642=CARTESIAN_POINT('Ctrl Pts',(-4.67434990912334,-32.9748475050305,-11.6510904694418));
#1643=CARTESIAN_POINT('Ctrl Pts',(-13.0113693359951,-24.7456695641698,-11.3086355403704));
#1644=CARTESIAN_POINT('Ctrl Pts',(-15.9876895420455,-19.9456657346207,-11.0895344962627));
#1645=CARTESIAN_POINT('Ctrl Pts',(-18.8959266550348,-13.0871090619704,-10.5342947561934));
#1646=CARTESIAN_POINT('Ctrl Pts',(-19.4590813100402,-11.1934269433207,-10.325502571156));
#1647=CARTESIAN_POINT('Ctrl Pts',(-19.8359001035735,-9.82286156937182,-10.0498901230337));
#1648=CARTESIAN_POINT('Ctrl Pts',(-19.9315338227102,-9.45952575040815,-9.96816700252594));
#1649=CARTESIAN_POINT('Ctrl Pts',(-20.0084746507032,-9.15493504274416,-9.84007963660893));
#1650=CARTESIAN_POINT('Ctrl Pts',(-20.024801921982,-9.08954836232167,-9.80736823998435));
#1651=CARTESIAN_POINT('Ctrl Pts',(-20.0417908017364,-9.02104197978234,-9.75520372370097));
#1652=CARTESIAN_POINT('Ctrl Pts',(-20.0467300148514,-9.00105304794745,-9.73704033707081));
#1653=CARTESIAN_POINT('Ctrl Pts',(-20.0524444197252,-8.97787851700748,-9.70508245819359));
#1654=CARTESIAN_POINT('Ctrl Pts',(-20.0541696545785,-8.97087036548382,-9.69232937794041));
#1655=CARTESIAN_POINT('Ctrl Pts',(-20.0560753088647,-8.96312617878792,-9.66726214749245));
#1656=CARTESIAN_POINT('Ctrl Pts',(-20.0564301563014,-8.96168289851749,-9.65566409401699));
#1657=CARTESIAN_POINT('Ctrl Pts',(-20.0559881273756,-8.9634799886579,-9.63043806899954));
#1658=CARTESIAN_POINT('Ctrl Pts',(-20.0550361945285,-8.9673506473639,-9.61775438912031));
#1659=CARTESIAN_POINT('Ctrl Pts',(-20.0513587477551,-8.98228492431387,-9.5870898022231));
#1660=CARTESIAN_POINT('Ctrl Pts',(-20.0479368054633,-8.99616501369692,-9.57043779464126));
#1661=CARTESIAN_POINT('Ctrl Pts',(-20.0346073196791,-9.05008487955721,-9.51807282959403));
#1662=CARTESIAN_POINT('Ctrl Pts',(-20.0199592516437,-9.10905089551357,-9.48390332190994));
#1663=CARTESIAN_POINT('Ctrl Pts',(-19.93951054042,-9.42905927440714,-9.33510646173843));
#1664=CARTESIAN_POINT('Ctrl Pts',(-19.8264647449902,-9.85884984214559,-9.24219259912168));
#1665=CARTESIAN_POINT('Ctrl Pts',(-19.4258116409812,-11.3065771649239,-8.9597729668033));
#1666=CARTESIAN_POINT('Ctrl Pts',(-18.842008473393,-13.2331119876507,-8.75295158339137));
#1667=CARTESIAN_POINT('Ctrl Pts',(-16.0674770304928,-19.7214874747876,-8.23285351640559));
#1668=CARTESIAN_POINT('Ctrl Pts',(-13.3791696916395,-24.1054499783593,-8.02491844590974));
#1669=CARTESIAN_POINT('Ctrl Pts',(-5.86142426875001,-32.0158058322493,-7.68497542262031));
#1670=CARTESIAN_POINT('Ctrl Pts',(-1.44355501705471,-35.1617107777826,-7.5788742948873));
#1671=CARTESIAN_POINT('Ctrl Pts',(8.42696010469707,-39.7188835889968,-7.42997970698513));
#1672=CARTESIAN_POINT('Ctrl Pts',(13.8187428586422,-41.0165571144421,-7.39290246435002));
#1673=CARTESIAN_POINT('Ctrl Pts',(24.9035678959927,-41.5256674080596,-7.37782884307057));
#1674=CARTESIAN_POINT('Ctrl Pts',(30.4913355065489,-40.6568234442424,-7.40227380416691));
#1675=CARTESIAN_POINT('Ctrl Pts',(41.0419557147338,-36.8274509012408,-7.52303414116115));
#1676=CARTESIAN_POINT('Ctrl Pts',(45.8846013985064,-33.864064570766,-7.6185538720751));
#1677=CARTESIAN_POINT('Ctrl Pts',(53.0301174259562,-27.2902875942702,-7.88323639004842));
#1678=CARTESIAN_POINT('Ctrl Pts',(55.51764360123,-24.1857920215224,-8.02072686600851));
#1679=CARTESIAN_POINT('Ctrl Pts',(57.4924186403381,-20.949659756968,-8.20575344317521));
#1680=CARTESIAN_POINT('Origin',(21.2136756884011,3.70536934468646E-14,-9.65042156139889));
#1681=CARTESIAN_POINT('',(0.,0.,0.));
#1682=UNCERTAINTY_MEASURE_WITH_UNIT(LENGTH_MEASURE(0.01),#1688,
'DISTANCE_ACCURACY_VALUE',
'Maximum model space distance between geometric entities at asserted c
onnectivities');
#1683=UNCERTAINTY_MEASURE_WITH_UNIT(LENGTH_MEASURE(0.01),#1688,
'DISTANCE_ACCURACY_VALUE',
'Maximum model space distance between geometric entities at asserted c
onnectivities');
#1684=UNCERTAINTY_MEASURE_WITH_UNIT(LENGTH_MEASURE(0.01),#1688,
'DISTANCE_ACCURACY_VALUE',
'Maximum model space distance between geometric entities at asserted c
onnectivities');
#1685=(
GEOMETRIC_REPRESENTATION_CONTEXT(3)
GLOBAL_UNCERTAINTY_ASSIGNED_CONTEXT((#1682))
GLOBAL_UNIT_ASSIGNED_CONTEXT((#1688,#1690,#1691))
REPRESENTATION_CONTEXT('','3D')
);
#1686=(
GEOMETRIC_REPRESENTATION_CONTEXT(3)
GLOBAL_UNCERTAINTY_ASSIGNED_CONTEXT((#1683))
GLOBAL_UNIT_ASSIGNED_CONTEXT((#1688,#1690,#1691))
REPRESENTATION_CONTEXT('','3D')
);
#1687=(
GEOMETRIC_REPRESENTATION_CONTEXT(3)
GLOBAL_UNCERTAINTY_ASSIGNED_CONTEXT((#1684))
GLOBAL_UNIT_ASSIGNED_CONTEXT((#1688,#1690,#1691))
REPRESENTATION_CONTEXT('','3D')
);
#1688=(
LENGTH_UNIT()
NAMED_UNIT(*)
SI_UNIT(.MILLI.,.METRE.)
);
#1689=(
LENGTH_UNIT()
NAMED_UNIT(*)
SI_UNIT($,.METRE.)
);
#1690=(
NAMED_UNIT(*)
PLANE_ANGLE_UNIT()
SI_UNIT($,.RADIAN.)
);
#1691=(
NAMED_UNIT(*)
SI_UNIT($,.STERADIAN.)
SOLID_ANGLE_UNIT()
);
#1692=SHAPE_DEFINITION_REPRESENTATION(#1694,#1697);
#1693=SHAPE_DEFINITION_REPRESENTATION(#1695,#1698);
#1694=PRODUCT_DEFINITION_SHAPE('',$,#1700);
#1695=PRODUCT_DEFINITION_SHAPE('',$,#1701);
#1696=PRODUCT_DEFINITION_SHAPE($,$,#14);
#1697=SHAPE_REPRESENTATION('',(#890,#998),#1685);
#1698=SHAPE_REPRESENTATION('',(#891),#1686);
#1699=PRODUCT_DEFINITION_CONTEXT('part definition',#1707,'design');
#1700=PRODUCT_DEFINITION('DSSERVO 80 kg','c_base v40',#1702,#1699);
#1701=PRODUCT_DEFINITION('c_base_new v3','c_base_new v3',#1703,#1699);
#1702=PRODUCT_DEFINITION_FORMATION('',$,#1709);
#1703=PRODUCT_DEFINITION_FORMATION('',$,#1710);
#1704=PRODUCT_RELATED_PRODUCT_CATEGORY('c_base v40','c_base v40',(#1709));
#1705=PRODUCT_RELATED_PRODUCT_CATEGORY('c_base_new v3','c_base_new v3',
(#1710));
#1706=APPLICATION_PROTOCOL_DEFINITION('international standard',
'automotive_design',2009,#1707);
#1707=APPLICATION_CONTEXT(
'Core Data for Automotive Mechanical Design Process');
#1708=PRODUCT_CONTEXT('part definition',#1707,'mechanical');
#1709=PRODUCT('DSSERVO 80 kg','c_base v40','STEP AP203',(#1708));
#1710=PRODUCT('c_base_new v3','c_base_new v3',$,(#1708));
#1711=PRESENTATION_STYLE_ASSIGNMENT((#1712));
#1712=SURFACE_STYLE_USAGE(.BOTH.,#1713);
#1713=SURFACE_SIDE_STYLE('',(#1714));
#1714=SURFACE_STYLE_FILL_AREA(#1715);
#1715=FILL_AREA_STYLE('Steel - Satin',(#1716));
#1716=FILL_AREA_STYLE_COLOUR('Steel - Satin',#1717);
#1717=COLOUR_RGB('Steel - Satin',0.627450980392157,0.627450980392157,0.627450980392157);
ENDSEC;
END-ISO-10303-21;
