ISO-10303-21;
HEADER;
/* Generated by software containing ST-Developer
 * from STEP Tools, Inc. (www.steptools.com) 
 */

FILE_DESCRIPTION(
/* description */ ('STEP AP203'),
/* implementation_level */ '2;1');

FILE_NAME(
/* name */ 'Base_connector.step',
/* time_stamp */ '2025-12-11T15:19:36+05:30',
/* author */ (''),
/* organization */ (''),
/* preprocessor_version */ 'ST-DEVELOPER v20.1',
/* originating_system */ 'Autodesk Translation Framework v14.21.0.0',
/* authorisation */ '');

FILE_SCHEMA (('AUTOMOTIVE_DESIGN { 1 0 10303 214 3 1 1 }'));
ENDSEC;

DATA;
#10=MECHANICAL_DESIGN_GEOMETRIC_PRESENTATION_REPRESENTATION('',(#17),#1100);
#11=ITEM_DEFINED_TRANSFORMATION($,$,#634,#715);
#12=(
REPRESENTATION_RELATIONSHIP($,$,#1111,#1110)
REPRESENTATION_RELATIONSHIP_WITH_TRANSFORMATION(#11)
SHAPE_REPRESENTATION_RELATIONSHIP()
);
#13=CONTEXT_DEPENDENT_SHAPE_REPRESENTATION(#12,#1109);
#14=NEXT_ASSEMBLY_USAGE_OCCURRENCE('base_connector v2:1',
'base_connector v2:1','base_connector v2:1',#1113,#1114,
'base_connector v2:1');
#15=SHAPE_REPRESENTATION_RELATIONSHIP('SRR','None',#1111,#16);
#16=ADVANCED_BREP_SHAPE_REPRESENTATION('',(#18),#1099);
#17=STYLED_ITEM('',(#1124),#18);
#18=MANIFOLD_SOLID_BREP('Body1',#620);
#19=FACE_BOUND('',#187,.T.);
#20=FACE_BOUND('',#188,.T.);
#21=FACE_BOUND('',#189,.T.);
#22=FACE_BOUND('',#190,.T.);
#23=FACE_BOUND('',#191,.T.);
#24=FACE_BOUND('',#202,.T.);
#25=FACE_BOUND('',#206,.T.);
#26=FACE_BOUND('',#210,.T.);
#27=FACE_BOUND('',#212,.T.);
#28=FACE_BOUND('',#218,.T.);
#29=FACE_BOUND('',#219,.T.);
#30=FACE_BOUND('',#220,.T.);
#31=FACE_BOUND('',#221,.T.);
#32=FACE_BOUND('',#222,.T.);
#33=FACE_BOUND('',#229,.T.);
#34=FACE_BOUND('',#231,.T.);
#35=FACE_BOUND('',#235,.T.);
#36=PLANE('',#642);
#37=PLANE('',#654);
#38=PLANE('',#655);
#39=PLANE('',#656);
#40=PLANE('',#657);
#41=PLANE('',#667);
#42=PLANE('',#672);
#43=PLANE('',#677);
#44=PLANE('',#679);
#45=PLANE('',#691);
#46=PLANE('',#696);
#47=PLANE('',#697);
#48=PLANE('',#698);
#49=PLANE('',#702);
#50=PLANE('',#704);
#51=PLANE('',#710);
#52=PLANE('',#714);
#53=LINE('',#934,#92);
#54=LINE('',#954,#93);
#55=LINE('',#959,#94);
#56=LINE('',#961,#95);
#57=LINE('',#963,#96);
#58=LINE('',#964,#97);
#59=LINE('',#967,#98);
#60=LINE('',#969,#99);
#61=LINE('',#970,#100);
#62=LINE('',#973,#101);
#63=LINE('',#975,#102);
#64=LINE('',#976,#103);
#65=LINE('',#979,#104);
#66=LINE('',#981,#105);
#67=LINE('',#982,#106);
#68=LINE('',#987,#107);
#69=LINE('',#997,#108);
#70=LINE('',#1003,#109);
#71=LINE('',#1007,#110);
#72=LINE('',#1012,#111);
#73=LINE('',#1016,#112);
#74=LINE('',#1026,#113);
#75=LINE('',#1034,#114);
#76=LINE('',#1043,#115);
#77=LINE('',#1045,#116);
#78=LINE('',#1049,#117);
#79=LINE('',#1050,#118);
#80=LINE('',#1053,#119);
#81=LINE('',#1056,#120);
#82=LINE('',#1059,#121);
#83=LINE('',#1060,#122);
#84=LINE('',#1063,#123);
#85=LINE('',#1064,#124);
#86=LINE('',#1066,#125);
#87=LINE('',#1071,#126);
#88=LINE('',#1077,#127);
#89=LINE('',#1084,#128);
#90=LINE('',#1090,#129);
#91=LINE('',#1092,#130);
#92=VECTOR('',#734,43.);
#93=VECTOR('',#757,38.5);
#94=VECTOR('',#762,10.);
#95=VECTOR('',#763,10.);
#96=VECTOR('',#764,10.);
#97=VECTOR('',#765,10.);
#98=VECTOR('',#768,10.);
#99=VECTOR('',#769,10.);
#100=VECTOR('',#770,10.);
#101=VECTOR('',#773,10.);
#102=VECTOR('',#774,10.);
#103=VECTOR('',#775,10.);
#104=VECTOR('',#778,10.);
#105=VECTOR('',#779,10.);
#106=VECTOR('',#780,10.);
#107=VECTOR('',#785,10.);
#108=VECTOR('',#798,2.75);
#109=VECTOR('',#807,1.5);
#110=VECTOR('',#812,38.5);
#111=VECTOR('',#819,1.5);
#112=VECTOR('',#824,1.5);
#113=VECTOR('',#837,2.75);
#114=VECTOR('',#848,2.75);
#115=VECTOR('',#859,10.);
#116=VECTOR('',#860,10.);
#117=VECTOR('',#863,10.);
#118=VECTOR('',#864,10.);
#119=VECTOR('',#867,10.);
#120=VECTOR('',#870,10.);
#121=VECTOR('',#873,10.);
#122=VECTOR('',#874,10.);
#123=VECTOR('',#877,10.);
#124=VECTOR('',#878,10.);
#125=VECTOR('',#881,10.);
#126=VECTOR('',#886,1.55);
#127=VECTOR('',#895,10.);
#128=VECTOR('',#904,2.75);
#129=VECTOR('',#913,1.5);
#130=VECTOR('',#916,2.5);
#131=CYLINDRICAL_SURFACE('',#640,43.);
#132=CYLINDRICAL_SURFACE('',#652,38.5);
#133=CYLINDRICAL_SURFACE('',#658,15.);
#134=CYLINDRICAL_SURFACE('',#665,2.75);
#135=CYLINDRICAL_SURFACE('',#669,1.5);
#136=CYLINDRICAL_SURFACE('',#670,38.5);
#137=CYLINDRICAL_SURFACE('',#673,1.5);
#138=CYLINDRICAL_SURFACE('',#675,1.5);
#139=CYLINDRICAL_SURFACE('',#681,2.75);
#140=CYLINDRICAL_SURFACE('',#686,2.75);
#141=CYLINDRICAL_SURFACE('',#694,15.);
#142=CYLINDRICAL_SURFACE('',#699,1.55);
#143=CYLINDRICAL_SURFACE('',#708,2.75);
#144=CYLINDRICAL_SURFACE('',#712,1.5);
#145=CYLINDRICAL_SURFACE('',#713,2.5);
#146=FACE_OUTER_BOUND('',#184,.T.);
#147=FACE_OUTER_BOUND('',#185,.T.);
#148=FACE_OUTER_BOUND('',#186,.T.);
#149=FACE_OUTER_BOUND('',#192,.T.);
#150=FACE_OUTER_BOUND('',#193,.T.);
#151=FACE_OUTER_BOUND('',#194,.T.);
#152=FACE_OUTER_BOUND('',#195,.T.);
#153=FACE_OUTER_BOUND('',#196,.T.);
#154=FACE_OUTER_BOUND('',#197,.T.);
#155=FACE_OUTER_BOUND('',#198,.T.);
#156=FACE_OUTER_BOUND('',#199,.T.);
#157=FACE_OUTER_BOUND('',#200,.T.);
#158=FACE_OUTER_BOUND('',#201,.T.);
#159=FACE_OUTER_BOUND('',#203,.T.);
#160=FACE_OUTER_BOUND('',#204,.T.);
#161=FACE_OUTER_BOUND('',#205,.T.);
#162=FACE_OUTER_BOUND('',#207,.T.);
#163=FACE_OUTER_BOUND('',#208,.T.);
#164=FACE_OUTER_BOUND('',#209,.T.);
#165=FACE_OUTER_BOUND('',#211,.T.);
#166=FACE_OUTER_BOUND('',#213,.T.);
#167=FACE_OUTER_BOUND('',#214,.T.);
#168=FACE_OUTER_BOUND('',#215,.T.);
#169=FACE_OUTER_BOUND('',#216,.T.);
#170=FACE_OUTER_BOUND('',#217,.T.);
#171=FACE_OUTER_BOUND('',#223,.T.);
#172=FACE_OUTER_BOUND('',#224,.T.);
#173=FACE_OUTER_BOUND('',#225,.T.);
#174=FACE_OUTER_BOUND('',#226,.T.);
#175=FACE_OUTER_BOUND('',#227,.T.);
#176=FACE_OUTER_BOUND('',#228,.T.);
#177=FACE_OUTER_BOUND('',#230,.T.);
#178=FACE_OUTER_BOUND('',#232,.T.);
#179=FACE_OUTER_BOUND('',#233,.T.);
#180=FACE_OUTER_BOUND('',#234,.T.);
#181=FACE_OUTER_BOUND('',#236,.T.);
#182=FACE_OUTER_BOUND('',#237,.T.);
#183=FACE_OUTER_BOUND('',#238,.T.);
#184=EDGE_LOOP('',(#414,#415,#416,#417,#418));
#185=EDGE_LOOP('',(#419,#420,#421,#422,#423));
#186=EDGE_LOOP('',(#424));
#187=EDGE_LOOP('',(#425));
#188=EDGE_LOOP('',(#426));
#189=EDGE_LOOP('',(#427));
#190=EDGE_LOOP('',(#428));
#191=EDGE_LOOP('',(#429));
#192=EDGE_LOOP('',(#430,#431,#432,#433));
#193=EDGE_LOOP('',(#434,#435,#436,#437));
#194=EDGE_LOOP('',(#438,#439,#440,#441));
#195=EDGE_LOOP('',(#442,#443,#444,#445));
#196=EDGE_LOOP('',(#446,#447,#448,#449));
#197=EDGE_LOOP('',(#450,#451,#452,#453));
#198=EDGE_LOOP('',(#454,#455,#456,#457));
#199=EDGE_LOOP('',(#458,#459,#460,#461));
#200=EDGE_LOOP('',(#462,#463,#464,#465));
#201=EDGE_LOOP('',(#466));
#202=EDGE_LOOP('',(#467));
#203=EDGE_LOOP('',(#468,#469,#470,#471));
#204=EDGE_LOOP('',(#472,#473,#474,#475));
#205=EDGE_LOOP('',(#476));
#206=EDGE_LOOP('',(#477));
#207=EDGE_LOOP('',(#478,#479,#480,#481));
#208=EDGE_LOOP('',(#482,#483,#484,#485));
#209=EDGE_LOOP('',(#486));
#210=EDGE_LOOP('',(#487));
#211=EDGE_LOOP('',(#488));
#212=EDGE_LOOP('',(#489));
#213=EDGE_LOOP('',(#490,#491,#492,#493));
#214=EDGE_LOOP('',(#494,#495,#496,#497));
#215=EDGE_LOOP('',(#498,#499,#500,#501));
#216=EDGE_LOOP('',(#502,#503,#504,#505));
#217=EDGE_LOOP('',(#506));
#218=EDGE_LOOP('',(#507));
#219=EDGE_LOOP('',(#508,#509,#510,#511,#512,#513,#514,#515,#516,#517));
#220=EDGE_LOOP('',(#518));
#221=EDGE_LOOP('',(#519));
#222=EDGE_LOOP('',(#520));
#223=EDGE_LOOP('',(#521,#522,#523,#524));
#224=EDGE_LOOP('',(#525,#526,#527,#528));
#225=EDGE_LOOP('',(#529,#530,#531,#532));
#226=EDGE_LOOP('',(#533,#534,#535,#536));
#227=EDGE_LOOP('',(#537,#538,#539,#540));
#228=EDGE_LOOP('',(#541));
#229=EDGE_LOOP('',(#542));
#230=EDGE_LOOP('',(#543,#544,#545,#546,#547,#548,#549,#550,#551,#552));
#231=EDGE_LOOP('',(#553));
#232=EDGE_LOOP('',(#554,#555,#556,#557));
#233=EDGE_LOOP('',(#558,#559,#560,#561));
#234=EDGE_LOOP('',(#562));
#235=EDGE_LOOP('',(#563));
#236=EDGE_LOOP('',(#564,#565,#566,#567));
#237=EDGE_LOOP('',(#568,#569,#570,#571));
#238=EDGE_LOOP('',(#572,#573,#574,#575));
#239=CIRCLE('',#636,42.5);
#240=CIRCLE('',#637,0.5);
#241=CIRCLE('',#638,43.);
#242=CIRCLE('',#639,43.);
#243=CIRCLE('',#641,43.);
#244=CIRCLE('',#643,1.5);
#245=CIRCLE('',#644,1.5);
#246=CIRCLE('',#645,1.5);
#247=CIRCLE('',#646,1.5);
#248=CIRCLE('',#647,2.5);
#249=CIRCLE('',#649,38.5);
#250=CIRCLE('',#650,3.25);
#251=CIRCLE('',#651,38.5);
#252=CIRCLE('',#653,38.5);
#253=CIRCLE('',#659,15.);
#254=CIRCLE('',#660,15.);
#255=CIRCLE('',#662,3.75);
#256=CIRCLE('',#663,1.);
#257=CIRCLE('',#664,2.75);
#258=CIRCLE('',#666,2.75);
#259=CIRCLE('',#668,1.5);
#260=CIRCLE('',#671,38.5);
#261=CIRCLE('',#674,1.5);
#262=CIRCLE('',#676,1.5);
#263=CIRCLE('',#678,2.75);
#264=CIRCLE('',#680,2.75);
#265=CIRCLE('',#682,2.75);
#266=CIRCLE('',#684,3.75);
#267=CIRCLE('',#685,1.);
#268=CIRCLE('',#687,2.75);
#269=CIRCLE('',#689,3.75);
#270=CIRCLE('',#690,1.);
#271=CIRCLE('',#692,3.75);
#272=CIRCLE('',#693,15.);
#273=CIRCLE('',#695,15.);
#274=CIRCLE('',#700,1.55);
#275=CIRCLE('',#701,1.55);
#276=CIRCLE('',#703,2.5);
#277=CIRCLE('',#706,1.);
#278=CIRCLE('',#707,2.75);
#279=CIRCLE('',#709,2.75);
#280=CIRCLE('',#711,1.5);
#281=VERTEX_POINT('',#924);
#282=VERTEX_POINT('',#926);
#283=VERTEX_POINT('',#928);
#284=VERTEX_POINT('',#932);
#285=VERTEX_POINT('',#936);
#286=VERTEX_POINT('',#938);
#287=VERTEX_POINT('',#940);
#288=VERTEX_POINT('',#942);
#289=VERTEX_POINT('',#944);
#290=VERTEX_POINT('',#947);
#291=VERTEX_POINT('',#949);
#292=VERTEX_POINT('',#953);
#293=VERTEX_POINT('',#957);
#294=VERTEX_POINT('',#958);
#295=VERTEX_POINT('',#960);
#296=VERTEX_POINT('',#962);
#297=VERTEX_POINT('',#966);
#298=VERTEX_POINT('',#968);
#299=VERTEX_POINT('',#972);
#300=VERTEX_POINT('',#974);
#301=VERTEX_POINT('',#978);
#302=VERTEX_POINT('',#980);
#303=VERTEX_POINT('',#984);
#304=VERTEX_POINT('',#986);
#305=VERTEX_POINT('',#990);
#306=VERTEX_POINT('',#992);
#307=VERTEX_POINT('',#996);
#308=VERTEX_POINT('',#1000);
#309=VERTEX_POINT('',#1005);
#310=VERTEX_POINT('',#1010);
#311=VERTEX_POINT('',#1014);
#312=VERTEX_POINT('',#1018);
#313=VERTEX_POINT('',#1021);
#314=VERTEX_POINT('',#1024);
#315=VERTEX_POINT('',#1028);
#316=VERTEX_POINT('',#1032);
#317=VERTEX_POINT('',#1036);
#318=VERTEX_POINT('',#1040);
#319=VERTEX_POINT('',#1042);
#320=VERTEX_POINT('',#1044);
#321=VERTEX_POINT('',#1046);
#322=VERTEX_POINT('',#1048);
#323=VERTEX_POINT('',#1052);
#324=VERTEX_POINT('',#1054);
#325=VERTEX_POINT('',#1058);
#326=VERTEX_POINT('',#1062);
#327=VERTEX_POINT('',#1068);
#328=VERTEX_POINT('',#1070);
#329=VERTEX_POINT('',#1074);
#330=VERTEX_POINT('',#1079);
#331=VERTEX_POINT('',#1083);
#332=VERTEX_POINT('',#1087);
#333=EDGE_CURVE('',#281,#281,#239,.T.);
#334=EDGE_CURVE('',#281,#282,#240,.T.);
#335=EDGE_CURVE('',#282,#283,#241,.T.);
#336=EDGE_CURVE('',#283,#282,#242,.T.);
#337=EDGE_CURVE('',#284,#284,#243,.T.);
#338=EDGE_CURVE('',#284,#283,#53,.T.);
#339=EDGE_CURVE('',#285,#285,#244,.T.);
#340=EDGE_CURVE('',#286,#286,#245,.T.);
#341=EDGE_CURVE('',#287,#287,#246,.T.);
#342=EDGE_CURVE('',#288,#288,#247,.T.);
#343=EDGE_CURVE('',#289,#289,#248,.T.);
#344=EDGE_CURVE('',#290,#290,#249,.T.);
#345=EDGE_CURVE('',#290,#291,#250,.T.);
#346=EDGE_CURVE('',#291,#291,#251,.T.);
#347=EDGE_CURVE('',#291,#292,#54,.T.);
#348=EDGE_CURVE('',#292,#292,#252,.T.);
#349=EDGE_CURVE('',#293,#294,#55,.T.);
#350=EDGE_CURVE('',#295,#293,#56,.T.);
#351=EDGE_CURVE('',#295,#296,#57,.T.);
#352=EDGE_CURVE('',#294,#296,#58,.T.);
#353=EDGE_CURVE('',#297,#296,#59,.T.);
#354=EDGE_CURVE('',#297,#298,#60,.T.);
#355=EDGE_CURVE('',#298,#294,#61,.T.);
#356=EDGE_CURVE('',#299,#297,#62,.T.);
#357=EDGE_CURVE('',#299,#300,#63,.T.);
#358=EDGE_CURVE('',#300,#298,#64,.T.);
#359=EDGE_CURVE('',#301,#299,#65,.T.);
#360=EDGE_CURVE('',#301,#302,#66,.T.);
#361=EDGE_CURVE('',#302,#300,#67,.T.);
#362=EDGE_CURVE('',#303,#301,#253,.T.);
#363=EDGE_CURVE('',#303,#304,#68,.T.);
#364=EDGE_CURVE('',#304,#302,#254,.T.);
#365=EDGE_CURVE('',#305,#305,#255,.T.);
#366=EDGE_CURVE('',#305,#306,#256,.T.);
#367=EDGE_CURVE('',#306,#306,#257,.T.);
#368=EDGE_CURVE('',#306,#307,#69,.T.);
#369=EDGE_CURVE('',#307,#307,#258,.T.);
#370=EDGE_CURVE('',#308,#308,#259,.T.);
#371=EDGE_CURVE('',#308,#286,#70,.T.);
#372=EDGE_CURVE('',#309,#309,#260,.T.);
#373=EDGE_CURVE('',#309,#290,#71,.T.);
#374=EDGE_CURVE('',#310,#310,#261,.T.);
#375=EDGE_CURVE('',#310,#285,#72,.T.);
#376=EDGE_CURVE('',#311,#311,#262,.T.);
#377=EDGE_CURVE('',#311,#288,#73,.T.);
#378=EDGE_CURVE('',#312,#312,#263,.T.);
#379=EDGE_CURVE('',#313,#313,#264,.T.);
#380=EDGE_CURVE('',#314,#314,#265,.T.);
#381=EDGE_CURVE('',#314,#313,#74,.T.);
#382=EDGE_CURVE('',#315,#315,#266,.T.);
#383=EDGE_CURVE('',#315,#314,#267,.T.);
#384=EDGE_CURVE('',#316,#316,#268,.T.);
#385=EDGE_CURVE('',#316,#312,#75,.T.);
#386=EDGE_CURVE('',#317,#317,#269,.T.);
#387=EDGE_CURVE('',#317,#316,#270,.T.);
#388=EDGE_CURVE('',#318,#318,#271,.T.);
#389=EDGE_CURVE('',#319,#303,#76,.T.);
#390=EDGE_CURVE('',#295,#320,#77,.T.);
#391=EDGE_CURVE('',#320,#321,#272,.T.);
#392=EDGE_CURVE('',#321,#322,#78,.T.);
#393=EDGE_CURVE('',#322,#319,#79,.T.);
#394=EDGE_CURVE('',#320,#323,#80,.T.);
#395=EDGE_CURVE('',#323,#324,#273,.T.);
#396=EDGE_CURVE('',#321,#324,#81,.T.);
#397=EDGE_CURVE('',#324,#325,#82,.T.);
#398=EDGE_CURVE('',#322,#325,#83,.T.);
#399=EDGE_CURVE('',#325,#326,#84,.T.);
#400=EDGE_CURVE('',#319,#326,#85,.T.);
#401=EDGE_CURVE('',#326,#304,#86,.T.);
#402=EDGE_CURVE('',#327,#327,#274,.T.);
#403=EDGE_CURVE('',#327,#328,#87,.T.);
#404=EDGE_CURVE('',#328,#328,#275,.T.);
#405=EDGE_CURVE('',#329,#329,#276,.T.);
#406=EDGE_CURVE('',#293,#323,#88,.T.);
#407=EDGE_CURVE('',#318,#330,#277,.T.);
#408=EDGE_CURVE('',#330,#330,#278,.T.);
#409=EDGE_CURVE('',#330,#331,#89,.T.);
#410=EDGE_CURVE('',#331,#331,#279,.T.);
#411=EDGE_CURVE('',#332,#332,#280,.T.);
#412=EDGE_CURVE('',#332,#287,#90,.T.);
#413=EDGE_CURVE('',#289,#329,#91,.T.);
#414=ORIENTED_EDGE('',*,*,#333,.T.);
#415=ORIENTED_EDGE('',*,*,#334,.T.);
#416=ORIENTED_EDGE('',*,*,#335,.T.);
#417=ORIENTED_EDGE('',*,*,#336,.T.);
#418=ORIENTED_EDGE('',*,*,#334,.F.);
#419=ORIENTED_EDGE('',*,*,#337,.F.);
#420=ORIENTED_EDGE('',*,*,#338,.T.);
#421=ORIENTED_EDGE('',*,*,#335,.F.);
#422=ORIENTED_EDGE('',*,*,#336,.F.);
#423=ORIENTED_EDGE('',*,*,#338,.F.);
#424=ORIENTED_EDGE('',*,*,#333,.F.);
#425=ORIENTED_EDGE('',*,*,#339,.T.);
#426=ORIENTED_EDGE('',*,*,#340,.T.);
#427=ORIENTED_EDGE('',*,*,#341,.T.);
#428=ORIENTED_EDGE('',*,*,#342,.T.);
#429=ORIENTED_EDGE('',*,*,#343,.T.);
#430=ORIENTED_EDGE('',*,*,#344,.F.);
#431=ORIENTED_EDGE('',*,*,#345,.T.);
#432=ORIENTED_EDGE('',*,*,#346,.F.);
#433=ORIENTED_EDGE('',*,*,#345,.F.);
#434=ORIENTED_EDGE('',*,*,#346,.T.);
#435=ORIENTED_EDGE('',*,*,#347,.T.);
#436=ORIENTED_EDGE('',*,*,#348,.T.);
#437=ORIENTED_EDGE('',*,*,#347,.F.);
#438=ORIENTED_EDGE('',*,*,#349,.F.);
#439=ORIENTED_EDGE('',*,*,#350,.F.);
#440=ORIENTED_EDGE('',*,*,#351,.T.);
#441=ORIENTED_EDGE('',*,*,#352,.F.);
#442=ORIENTED_EDGE('',*,*,#352,.T.);
#443=ORIENTED_EDGE('',*,*,#353,.F.);
#444=ORIENTED_EDGE('',*,*,#354,.T.);
#445=ORIENTED_EDGE('',*,*,#355,.T.);
#446=ORIENTED_EDGE('',*,*,#356,.F.);
#447=ORIENTED_EDGE('',*,*,#357,.T.);
#448=ORIENTED_EDGE('',*,*,#358,.T.);
#449=ORIENTED_EDGE('',*,*,#354,.F.);
#450=ORIENTED_EDGE('',*,*,#359,.F.);
#451=ORIENTED_EDGE('',*,*,#360,.T.);
#452=ORIENTED_EDGE('',*,*,#361,.T.);
#453=ORIENTED_EDGE('',*,*,#357,.F.);
#454=ORIENTED_EDGE('',*,*,#362,.F.);
#455=ORIENTED_EDGE('',*,*,#363,.T.);
#456=ORIENTED_EDGE('',*,*,#364,.T.);
#457=ORIENTED_EDGE('',*,*,#360,.F.);
#458=ORIENTED_EDGE('',*,*,#365,.T.);
#459=ORIENTED_EDGE('',*,*,#366,.T.);
#460=ORIENTED_EDGE('',*,*,#367,.T.);
#461=ORIENTED_EDGE('',*,*,#366,.F.);
#462=ORIENTED_EDGE('',*,*,#367,.F.);
#463=ORIENTED_EDGE('',*,*,#368,.T.);
#464=ORIENTED_EDGE('',*,*,#369,.T.);
#465=ORIENTED_EDGE('',*,*,#368,.F.);
#466=ORIENTED_EDGE('',*,*,#369,.F.);
#467=ORIENTED_EDGE('',*,*,#370,.F.);
#468=ORIENTED_EDGE('',*,*,#370,.T.);
#469=ORIENTED_EDGE('',*,*,#371,.T.);
#470=ORIENTED_EDGE('',*,*,#340,.F.);
#471=ORIENTED_EDGE('',*,*,#371,.F.);
#472=ORIENTED_EDGE('',*,*,#372,.F.);
#473=ORIENTED_EDGE('',*,*,#373,.T.);
#474=ORIENTED_EDGE('',*,*,#344,.T.);
#475=ORIENTED_EDGE('',*,*,#373,.F.);
#476=ORIENTED_EDGE('',*,*,#337,.T.);
#477=ORIENTED_EDGE('',*,*,#348,.F.);
#478=ORIENTED_EDGE('',*,*,#374,.T.);
#479=ORIENTED_EDGE('',*,*,#375,.T.);
#480=ORIENTED_EDGE('',*,*,#339,.F.);
#481=ORIENTED_EDGE('',*,*,#375,.F.);
#482=ORIENTED_EDGE('',*,*,#376,.T.);
#483=ORIENTED_EDGE('',*,*,#377,.T.);
#484=ORIENTED_EDGE('',*,*,#342,.F.);
#485=ORIENTED_EDGE('',*,*,#377,.F.);
#486=ORIENTED_EDGE('',*,*,#378,.F.);
#487=ORIENTED_EDGE('',*,*,#374,.F.);
#488=ORIENTED_EDGE('',*,*,#379,.F.);
#489=ORIENTED_EDGE('',*,*,#376,.F.);
#490=ORIENTED_EDGE('',*,*,#380,.F.);
#491=ORIENTED_EDGE('',*,*,#381,.T.);
#492=ORIENTED_EDGE('',*,*,#379,.T.);
#493=ORIENTED_EDGE('',*,*,#381,.F.);
#494=ORIENTED_EDGE('',*,*,#382,.T.);
#495=ORIENTED_EDGE('',*,*,#383,.T.);
#496=ORIENTED_EDGE('',*,*,#380,.T.);
#497=ORIENTED_EDGE('',*,*,#383,.F.);
#498=ORIENTED_EDGE('',*,*,#384,.F.);
#499=ORIENTED_EDGE('',*,*,#385,.T.);
#500=ORIENTED_EDGE('',*,*,#378,.T.);
#501=ORIENTED_EDGE('',*,*,#385,.F.);
#502=ORIENTED_EDGE('',*,*,#386,.T.);
#503=ORIENTED_EDGE('',*,*,#387,.T.);
#504=ORIENTED_EDGE('',*,*,#384,.T.);
#505=ORIENTED_EDGE('',*,*,#387,.F.);
#506=ORIENTED_EDGE('',*,*,#372,.T.);
#507=ORIENTED_EDGE('',*,*,#388,.F.);
#508=ORIENTED_EDGE('',*,*,#389,.T.);
#509=ORIENTED_EDGE('',*,*,#362,.T.);
#510=ORIENTED_EDGE('',*,*,#359,.T.);
#511=ORIENTED_EDGE('',*,*,#356,.T.);
#512=ORIENTED_EDGE('',*,*,#353,.T.);
#513=ORIENTED_EDGE('',*,*,#351,.F.);
#514=ORIENTED_EDGE('',*,*,#390,.T.);
#515=ORIENTED_EDGE('',*,*,#391,.T.);
#516=ORIENTED_EDGE('',*,*,#392,.T.);
#517=ORIENTED_EDGE('',*,*,#393,.T.);
#518=ORIENTED_EDGE('',*,*,#365,.F.);
#519=ORIENTED_EDGE('',*,*,#382,.F.);
#520=ORIENTED_EDGE('',*,*,#386,.F.);
#521=ORIENTED_EDGE('',*,*,#391,.F.);
#522=ORIENTED_EDGE('',*,*,#394,.T.);
#523=ORIENTED_EDGE('',*,*,#395,.T.);
#524=ORIENTED_EDGE('',*,*,#396,.F.);
#525=ORIENTED_EDGE('',*,*,#392,.F.);
#526=ORIENTED_EDGE('',*,*,#396,.T.);
#527=ORIENTED_EDGE('',*,*,#397,.T.);
#528=ORIENTED_EDGE('',*,*,#398,.F.);
#529=ORIENTED_EDGE('',*,*,#393,.F.);
#530=ORIENTED_EDGE('',*,*,#398,.T.);
#531=ORIENTED_EDGE('',*,*,#399,.T.);
#532=ORIENTED_EDGE('',*,*,#400,.F.);
#533=ORIENTED_EDGE('',*,*,#389,.F.);
#534=ORIENTED_EDGE('',*,*,#400,.T.);
#535=ORIENTED_EDGE('',*,*,#401,.T.);
#536=ORIENTED_EDGE('',*,*,#363,.F.);
#537=ORIENTED_EDGE('',*,*,#402,.F.);
#538=ORIENTED_EDGE('',*,*,#403,.T.);
#539=ORIENTED_EDGE('',*,*,#404,.T.);
#540=ORIENTED_EDGE('',*,*,#403,.F.);
#541=ORIENTED_EDGE('',*,*,#405,.F.);
#542=ORIENTED_EDGE('',*,*,#404,.F.);
#543=ORIENTED_EDGE('',*,*,#401,.F.);
#544=ORIENTED_EDGE('',*,*,#399,.F.);
#545=ORIENTED_EDGE('',*,*,#397,.F.);
#546=ORIENTED_EDGE('',*,*,#395,.F.);
#547=ORIENTED_EDGE('',*,*,#406,.F.);
#548=ORIENTED_EDGE('',*,*,#349,.T.);
#549=ORIENTED_EDGE('',*,*,#355,.F.);
#550=ORIENTED_EDGE('',*,*,#358,.F.);
#551=ORIENTED_EDGE('',*,*,#361,.F.);
#552=ORIENTED_EDGE('',*,*,#364,.F.);
#553=ORIENTED_EDGE('',*,*,#402,.T.);
#554=ORIENTED_EDGE('',*,*,#388,.T.);
#555=ORIENTED_EDGE('',*,*,#407,.T.);
#556=ORIENTED_EDGE('',*,*,#408,.T.);
#557=ORIENTED_EDGE('',*,*,#407,.F.);
#558=ORIENTED_EDGE('',*,*,#408,.F.);
#559=ORIENTED_EDGE('',*,*,#409,.T.);
#560=ORIENTED_EDGE('',*,*,#410,.T.);
#561=ORIENTED_EDGE('',*,*,#409,.F.);
#562=ORIENTED_EDGE('',*,*,#410,.F.);
#563=ORIENTED_EDGE('',*,*,#411,.F.);
#564=ORIENTED_EDGE('',*,*,#411,.T.);
#565=ORIENTED_EDGE('',*,*,#412,.T.);
#566=ORIENTED_EDGE('',*,*,#341,.F.);
#567=ORIENTED_EDGE('',*,*,#412,.F.);
#568=ORIENTED_EDGE('',*,*,#343,.F.);
#569=ORIENTED_EDGE('',*,*,#413,.T.);
#570=ORIENTED_EDGE('',*,*,#405,.T.);
#571=ORIENTED_EDGE('',*,*,#413,.F.);
#572=ORIENTED_EDGE('',*,*,#406,.T.);
#573=ORIENTED_EDGE('',*,*,#394,.F.);
#574=ORIENTED_EDGE('',*,*,#390,.F.);
#575=ORIENTED_EDGE('',*,*,#350,.T.);
#576=TOROIDAL_SURFACE('',#635,42.5,0.5);
#577=TOROIDAL_SURFACE('',#648,38.5,3.25);
#578=TOROIDAL_SURFACE('',#661,3.75,1.);
#579=TOROIDAL_SURFACE('',#683,3.75,1.);
#580=TOROIDAL_SURFACE('',#688,3.75,1.);
#581=TOROIDAL_SURFACE('',#705,3.75,1.);
#582=ADVANCED_FACE('',(#146),#576,.T.);
#583=ADVANCED_FACE('',(#147),#131,.T.);
#584=ADVANCED_FACE('',(#148,#19,#20,#21,#22,#23),#36,.T.);
#585=ADVANCED_FACE('',(#149),#577,.F.);
#586=ADVANCED_FACE('',(#150),#132,.T.);
#587=ADVANCED_FACE('',(#151),#37,.T.);
#588=ADVANCED_FACE('',(#152),#38,.F.);
#589=ADVANCED_FACE('',(#153),#39,.F.);
#590=ADVANCED_FACE('',(#154),#40,.F.);
#591=ADVANCED_FACE('',(#155),#133,.F.);
#592=ADVANCED_FACE('',(#156),#578,.T.);
#593=ADVANCED_FACE('',(#157),#134,.F.);
#594=ADVANCED_FACE('',(#158,#24),#41,.T.);
#595=ADVANCED_FACE('',(#159),#135,.F.);
#596=ADVANCED_FACE('',(#160),#136,.T.);
#597=ADVANCED_FACE('',(#161,#25),#42,.F.);
#598=ADVANCED_FACE('',(#162),#137,.F.);
#599=ADVANCED_FACE('',(#163),#138,.F.);
#600=ADVANCED_FACE('',(#164,#26),#43,.T.);
#601=ADVANCED_FACE('',(#165,#27),#44,.T.);
#602=ADVANCED_FACE('',(#166),#139,.F.);
#603=ADVANCED_FACE('',(#167),#579,.T.);
#604=ADVANCED_FACE('',(#168),#140,.F.);
#605=ADVANCED_FACE('',(#169),#580,.T.);
#606=ADVANCED_FACE('',(#170,#28,#29,#30,#31,#32),#45,.F.);
#607=ADVANCED_FACE('',(#171),#141,.F.);
#608=ADVANCED_FACE('',(#172),#46,.F.);
#609=ADVANCED_FACE('',(#173),#47,.F.);
#610=ADVANCED_FACE('',(#174),#48,.F.);
#611=ADVANCED_FACE('',(#175),#142,.F.);
#612=ADVANCED_FACE('',(#176,#33),#49,.T.);
#613=ADVANCED_FACE('',(#177,#34),#50,.T.);
#614=ADVANCED_FACE('',(#178),#581,.T.);
#615=ADVANCED_FACE('',(#179),#143,.F.);
#616=ADVANCED_FACE('',(#180,#35),#51,.T.);
#617=ADVANCED_FACE('',(#181),#144,.F.);
#618=ADVANCED_FACE('',(#182),#145,.F.);
#619=ADVANCED_FACE('',(#183),#52,.F.);
#620=CLOSED_SHELL('',(#582,#583,#584,#585,#586,#587,#588,#589,#590,#591,
#592,#593,#594,#595,#596,#597,#598,#599,#600,#601,#602,#603,#604,#605,#606,
#607,#608,#609,#610,#611,#612,#613,#614,#615,#616,#617,#618,#619));
#621=DERIVED_UNIT_ELEMENT(#623,1.);
#622=DERIVED_UNIT_ELEMENT(#1102,-3.);
#623=(
MASS_UNIT()
NAMED_UNIT(*)
SI_UNIT(.KILO.,.GRAM.)
);
#624=DERIVED_UNIT((#621,#622));
#625=MEASURE_REPRESENTATION_ITEM('density measure',
POSITIVE_RATIO_MEASURE(7850.),#624);
#626=PROPERTY_DEFINITION_REPRESENTATION(#631,#628);
#627=PROPERTY_DEFINITION_REPRESENTATION(#632,#629);
#628=REPRESENTATION('material name',(#630),#1099);
#629=REPRESENTATION('density',(#625),#1099);
#630=DESCRIPTIVE_REPRESENTATION_ITEM('Steel','Steel');
#631=PROPERTY_DEFINITION('material property','material name',#1114);
#632=PROPERTY_DEFINITION('material property','density of part',#1114);
#633=AXIS2_PLACEMENT_3D('',#921,#716,#717);
#634=AXIS2_PLACEMENT_3D('',#922,#718,#719);
#635=AXIS2_PLACEMENT_3D('',#923,#720,#721);
#636=AXIS2_PLACEMENT_3D('',#925,#722,#723);
#637=AXIS2_PLACEMENT_3D('',#927,#724,#725);
#638=AXIS2_PLACEMENT_3D('',#929,#726,#727);
#639=AXIS2_PLACEMENT_3D('',#930,#728,#729);
#640=AXIS2_PLACEMENT_3D('',#931,#730,#731);
#641=AXIS2_PLACEMENT_3D('',#933,#732,#733);
#642=AXIS2_PLACEMENT_3D('',#935,#735,#736);
#643=AXIS2_PLACEMENT_3D('',#937,#737,#738);
#644=AXIS2_PLACEMENT_3D('',#939,#739,#740);
#645=AXIS2_PLACEMENT_3D('',#941,#741,#742);
#646=AXIS2_PLACEMENT_3D('',#943,#743,#744);
#647=AXIS2_PLACEMENT_3D('',#945,#745,#746);
#648=AXIS2_PLACEMENT_3D('',#946,#747,#748);
#649=AXIS2_PLACEMENT_3D('',#948,#749,#750);
#650=AXIS2_PLACEMENT_3D('',#950,#751,#752);
#651=AXIS2_PLACEMENT_3D('',#951,#753,#754);
#652=AXIS2_PLACEMENT_3D('',#952,#755,#756);
#653=AXIS2_PLACEMENT_3D('',#955,#758,#759);
#654=AXIS2_PLACEMENT_3D('',#956,#760,#761);
#655=AXIS2_PLACEMENT_3D('',#965,#766,#767);
#656=AXIS2_PLACEMENT_3D('',#971,#771,#772);
#657=AXIS2_PLACEMENT_3D('',#977,#776,#777);
#658=AXIS2_PLACEMENT_3D('',#983,#781,#782);
#659=AXIS2_PLACEMENT_3D('',#985,#783,#784);
#660=AXIS2_PLACEMENT_3D('',#988,#786,#787);
#661=AXIS2_PLACEMENT_3D('',#989,#788,#789);
#662=AXIS2_PLACEMENT_3D('',#991,#790,#791);
#663=AXIS2_PLACEMENT_3D('',#993,#792,#793);
#664=AXIS2_PLACEMENT_3D('',#994,#794,#795);
#665=AXIS2_PLACEMENT_3D('',#995,#796,#797);
#666=AXIS2_PLACEMENT_3D('',#998,#799,#800);
#667=AXIS2_PLACEMENT_3D('',#999,#801,#802);
#668=AXIS2_PLACEMENT_3D('',#1001,#803,#804);
#669=AXIS2_PLACEMENT_3D('',#1002,#805,#806);
#670=AXIS2_PLACEMENT_3D('',#1004,#808,#809);
#671=AXIS2_PLACEMENT_3D('',#1006,#810,#811);
#672=AXIS2_PLACEMENT_3D('',#1008,#813,#814);
#673=AXIS2_PLACEMENT_3D('',#1009,#815,#816);
#674=AXIS2_PLACEMENT_3D('',#1011,#817,#818);
#675=AXIS2_PLACEMENT_3D('',#1013,#820,#821);
#676=AXIS2_PLACEMENT_3D('',#1015,#822,#823);
#677=AXIS2_PLACEMENT_3D('',#1017,#825,#826);
#678=AXIS2_PLACEMENT_3D('',#1019,#827,#828);
#679=AXIS2_PLACEMENT_3D('',#1020,#829,#830);
#680=AXIS2_PLACEMENT_3D('',#1022,#831,#832);
#681=AXIS2_PLACEMENT_3D('',#1023,#833,#834);
#682=AXIS2_PLACEMENT_3D('',#1025,#835,#836);
#683=AXIS2_PLACEMENT_3D('',#1027,#838,#839);
#684=AXIS2_PLACEMENT_3D('',#1029,#840,#841);
#685=AXIS2_PLACEMENT_3D('',#1030,#842,#843);
#686=AXIS2_PLACEMENT_3D('',#1031,#844,#845);
#687=AXIS2_PLACEMENT_3D('',#1033,#846,#847);
#688=AXIS2_PLACEMENT_3D('',#1035,#849,#850);
#689=AXIS2_PLACEMENT_3D('',#1037,#851,#852);
#690=AXIS2_PLACEMENT_3D('',#1038,#853,#854);
#691=AXIS2_PLACEMENT_3D('',#1039,#855,#856);
#692=AXIS2_PLACEMENT_3D('',#1041,#857,#858);
#693=AXIS2_PLACEMENT_3D('',#1047,#861,#862);
#694=AXIS2_PLACEMENT_3D('',#1051,#865,#866);
#695=AXIS2_PLACEMENT_3D('',#1055,#868,#869);
#696=AXIS2_PLACEMENT_3D('',#1057,#871,#872);
#697=AXIS2_PLACEMENT_3D('',#1061,#875,#876);
#698=AXIS2_PLACEMENT_3D('',#1065,#879,#880);
#699=AXIS2_PLACEMENT_3D('',#1067,#882,#883);
#700=AXIS2_PLACEMENT_3D('',#1069,#884,#885);
#701=AXIS2_PLACEMENT_3D('',#1072,#887,#888);
#702=AXIS2_PLACEMENT_3D('',#1073,#889,#890);
#703=AXIS2_PLACEMENT_3D('',#1075,#891,#892);
#704=AXIS2_PLACEMENT_3D('',#1076,#893,#894);
#705=AXIS2_PLACEMENT_3D('',#1078,#896,#897);
#706=AXIS2_PLACEMENT_3D('',#1080,#898,#899);
#707=AXIS2_PLACEMENT_3D('',#1081,#900,#901);
#708=AXIS2_PLACEMENT_3D('',#1082,#902,#903);
#709=AXIS2_PLACEMENT_3D('',#1085,#905,#906);
#710=AXIS2_PLACEMENT_3D('',#1086,#907,#908);
#711=AXIS2_PLACEMENT_3D('',#1088,#909,#910);
#712=AXIS2_PLACEMENT_3D('',#1089,#911,#912);
#713=AXIS2_PLACEMENT_3D('',#1091,#914,#915);
#714=AXIS2_PLACEMENT_3D('',#1093,#917,#918);
#715=AXIS2_PLACEMENT_3D('',#1094,#919,#920);
#716=DIRECTION('axis',(0.,0.,1.));
#717=DIRECTION('refdir',(1.,0.,0.));
#718=DIRECTION('axis',(0.,0.,1.));
#719=DIRECTION('refdir',(1.,0.,0.));
#720=DIRECTION('center_axis',(0.,0.,1.));
#721=DIRECTION('ref_axis',(1.,0.,0.));
#722=DIRECTION('center_axis',(0.,0.,-1.));
#723=DIRECTION('ref_axis',(1.,-1.22640915510918E-16,0.));
#724=DIRECTION('center_axis',(1.22640915510918E-16,-1.,0.));
#725=DIRECTION('ref_axis',(-1.,-1.22640915510918E-16,0.));
#726=DIRECTION('center_axis',(0.,0.,1.));
#727=DIRECTION('ref_axis',(1.,-1.22640915510918E-16,0.));
#728=DIRECTION('center_axis',(0.,0.,1.));
#729=DIRECTION('ref_axis',(1.,-1.22640915510918E-16,0.));
#730=DIRECTION('center_axis',(0.,0.,-1.));
#731=DIRECTION('ref_axis',(-1.,0.,0.));
#732=DIRECTION('center_axis',(0.,0.,-1.));
#733=DIRECTION('ref_axis',(-1.,0.,0.));
#734=DIRECTION('',(0.,0.,1.));
#735=DIRECTION('center_axis',(0.,0.,1.));
#736=DIRECTION('ref_axis',(-1.,0.,0.));
#737=DIRECTION('center_axis',(0.,0.,-1.));
#738=DIRECTION('ref_axis',(1.,0.,0.));
#739=DIRECTION('center_axis',(0.,0.,-1.));
#740=DIRECTION('ref_axis',(1.,0.,0.));
#741=DIRECTION('center_axis',(0.,0.,-1.));
#742=DIRECTION('ref_axis',(1.,0.,0.));
#743=DIRECTION('center_axis',(0.,0.,-1.));
#744=DIRECTION('ref_axis',(1.,0.,0.));
#745=DIRECTION('center_axis',(0.,0.,-1.));
#746=DIRECTION('ref_axis',(-1.,0.,0.));
#747=DIRECTION('center_axis',(0.,0.,-1.));
#748=DIRECTION('ref_axis',(-1.,0.,0.));
#749=DIRECTION('center_axis',(0.,0.,-1.));
#750=DIRECTION('ref_axis',(-1.,0.,0.));
#751=DIRECTION('center_axis',(1.22988778177038E-16,1.,0.));
#752=DIRECTION('ref_axis',(1.,-1.22988778177038E-16,0.));
#753=DIRECTION('center_axis',(0.,0.,1.));
#754=DIRECTION('ref_axis',(-1.,0.,0.));
#755=DIRECTION('center_axis',(0.,0.,-1.));
#756=DIRECTION('ref_axis',(-1.,0.,0.));
#757=DIRECTION('',(0.,0.,1.));
#758=DIRECTION('center_axis',(0.,0.,-1.));
#759=DIRECTION('ref_axis',(-1.,0.,0.));
#760=DIRECTION('center_axis',(-0.64278760968654,0.766044443118977,0.));
#761=DIRECTION('ref_axis',(-0.766044443118977,-0.64278760968654,0.));
#762=DIRECTION('',(-0.766044443118977,-0.64278760968654,0.));
#763=DIRECTION('',(0.,0.,1.));
#764=DIRECTION('',(-0.766044443118977,-0.64278760968654,0.));
#765=DIRECTION('',(0.,0.,-1.));
#766=DIRECTION('center_axis',(-0.714117613614191,-0.700025738045376,0.));
#767=DIRECTION('ref_axis',(0.700025738045376,-0.714117613614191,0.));
#768=DIRECTION('',(0.700025738045376,-0.714117613614191,0.));
#769=DIRECTION('',(0.,0.,1.));
#770=DIRECTION('',(0.700025738045376,-0.714117613614191,0.));
#771=DIRECTION('center_axis',(-0.766044443118977,-0.642787609686541,0.));
#772=DIRECTION('ref_axis',(0.642787609686541,-0.766044443118977,0.));
#773=DIRECTION('',(0.642787609686541,-0.766044443118977,0.));
#774=DIRECTION('',(0.,0.,1.));
#775=DIRECTION('',(0.642787609686541,-0.766044443118977,0.));
#776=DIRECTION('center_axis',(-0.721487719139097,-0.692427231650708,0.));
#777=DIRECTION('ref_axis',(0.692427231650708,-0.721487719139097,0.));
#778=DIRECTION('',(0.692427231650708,-0.721487719139097,0.));
#779=DIRECTION('',(0.,0.,1.));
#780=DIRECTION('',(0.692427231650708,-0.721487719139097,0.));
#781=DIRECTION('center_axis',(0.,0.,1.));
#782=DIRECTION('ref_axis',(-0.721487719139088,-0.692427231650717,0.));
#783=DIRECTION('center_axis',(0.,0.,1.));
#784=DIRECTION('ref_axis',(-0.721487719139088,-0.692427231650717,0.));
#785=DIRECTION('',(0.,0.,1.));
#786=DIRECTION('center_axis',(0.,0.,1.));
#787=DIRECTION('ref_axis',(-0.721487719139088,-0.692427231650717,0.));
#788=DIRECTION('center_axis',(0.,0.,1.));
#789=DIRECTION('ref_axis',(1.,0.,0.));
#790=DIRECTION('center_axis',(0.,0.,-1.));
#791=DIRECTION('ref_axis',(1.,0.,0.));
#792=DIRECTION('center_axis',(0.,-1.,0.));
#793=DIRECTION('ref_axis',(-1.,0.,0.));
#794=DIRECTION('center_axis',(0.,0.,1.));
#795=DIRECTION('ref_axis',(1.,0.,0.));
#796=DIRECTION('center_axis',(0.,0.,1.));
#797=DIRECTION('ref_axis',(1.,0.,0.));
#798=DIRECTION('',(0.,0.,1.));
#799=DIRECTION('center_axis',(0.,0.,1.));
#800=DIRECTION('ref_axis',(1.,0.,0.));
#801=DIRECTION('center_axis',(0.,0.,-1.));
#802=DIRECTION('ref_axis',(1.,0.,0.));
#803=DIRECTION('center_axis',(0.,0.,-1.));
#804=DIRECTION('ref_axis',(1.,0.,0.));
#805=DIRECTION('center_axis',(0.,0.,1.));
#806=DIRECTION('ref_axis',(1.,0.,0.));
#807=DIRECTION('',(0.,0.,1.));
#808=DIRECTION('center_axis',(0.,0.,-1.));
#809=DIRECTION('ref_axis',(-1.,0.,0.));
#810=DIRECTION('center_axis',(0.,0.,-1.));
#811=DIRECTION('ref_axis',(-1.,0.,0.));
#812=DIRECTION('',(0.,0.,1.));
#813=DIRECTION('center_axis',(0.,0.,1.));
#814=DIRECTION('ref_axis',(-1.,0.,0.));
#815=DIRECTION('center_axis',(0.,0.,1.));
#816=DIRECTION('ref_axis',(1.,0.,0.));
#817=DIRECTION('center_axis',(0.,0.,-1.));
#818=DIRECTION('ref_axis',(1.,0.,0.));
#819=DIRECTION('',(0.,0.,1.));
#820=DIRECTION('center_axis',(0.,0.,1.));
#821=DIRECTION('ref_axis',(1.,0.,0.));
#822=DIRECTION('center_axis',(0.,0.,-1.));
#823=DIRECTION('ref_axis',(1.,0.,0.));
#824=DIRECTION('',(0.,0.,1.));
#825=DIRECTION('center_axis',(0.,0.,-1.));
#826=DIRECTION('ref_axis',(1.,0.,0.));
#827=DIRECTION('center_axis',(0.,0.,1.));
#828=DIRECTION('ref_axis',(1.,0.,0.));
#829=DIRECTION('center_axis',(0.,0.,-1.));
#830=DIRECTION('ref_axis',(1.,0.,0.));
#831=DIRECTION('center_axis',(0.,0.,1.));
#832=DIRECTION('ref_axis',(1.,0.,0.));
#833=DIRECTION('center_axis',(0.,0.,1.));
#834=DIRECTION('ref_axis',(1.,0.,0.));
#835=DIRECTION('center_axis',(0.,0.,1.));
#836=DIRECTION('ref_axis',(1.,0.,0.));
#837=DIRECTION('',(0.,0.,1.));
#838=DIRECTION('center_axis',(0.,0.,1.));
#839=DIRECTION('ref_axis',(1.,0.,0.));
#840=DIRECTION('center_axis',(0.,0.,-1.));
#841=DIRECTION('ref_axis',(1.,0.,0.));
#842=DIRECTION('center_axis',(1.1686558153949E-16,-1.,0.));
#843=DIRECTION('ref_axis',(-1.,-1.1686558153949E-16,0.));
#844=DIRECTION('center_axis',(0.,0.,1.));
#845=DIRECTION('ref_axis',(1.,0.,0.));
#846=DIRECTION('center_axis',(0.,0.,1.));
#847=DIRECTION('ref_axis',(1.,0.,0.));
#848=DIRECTION('',(0.,0.,1.));
#849=DIRECTION('center_axis',(0.,0.,1.));
#850=DIRECTION('ref_axis',(1.,0.,0.));
#851=DIRECTION('center_axis',(0.,0.,-1.));
#852=DIRECTION('ref_axis',(1.,0.,0.));
#853=DIRECTION('center_axis',(0.,-1.,0.));
#854=DIRECTION('ref_axis',(-1.,0.,0.));
#855=DIRECTION('center_axis',(0.,0.,1.));
#856=DIRECTION('ref_axis',(-1.,0.,0.));
#857=DIRECTION('center_axis',(0.,0.,-1.));
#858=DIRECTION('ref_axis',(1.,0.,0.));
#859=DIRECTION('',(0.341093818089194,-0.940029258726204,0.));
#860=DIRECTION('',(-0.590287972568177,0.80719273376397,0.));
#861=DIRECTION('center_axis',(0.,0.,1.));
#862=DIRECTION('ref_axis',(0.499146204290195,0.866517782127228,0.));
#863=DIRECTION('',(-0.866517782127241,0.499146204290173,0.));
#864=DIRECTION('',(-0.766044443118966,-0.642787609686554,0.));
#865=DIRECTION('center_axis',(0.,0.,1.));
#866=DIRECTION('ref_axis',(0.499146204290195,0.866517782127228,0.));
#867=DIRECTION('',(0.,0.,1.));
#868=DIRECTION('center_axis',(0.,0.,1.));
#869=DIRECTION('ref_axis',(0.499146204290195,0.866517782127228,0.));
#870=DIRECTION('',(0.,0.,1.));
#871=DIRECTION('center_axis',(0.499146204290173,0.866517782127241,0.));
#872=DIRECTION('ref_axis',(-0.866517782127241,0.499146204290173,0.));
#873=DIRECTION('',(-0.866517782127241,0.499146204290173,0.));
#874=DIRECTION('',(0.,0.,1.));
#875=DIRECTION('center_axis',(-0.642787609686554,0.766044443118966,0.));
#876=DIRECTION('ref_axis',(-0.766044443118966,-0.642787609686554,0.));
#877=DIRECTION('',(-0.766044443118966,-0.642787609686554,0.));
#878=DIRECTION('',(0.,0.,1.));
#879=DIRECTION('center_axis',(-0.940029258726204,-0.341093818089194,0.));
#880=DIRECTION('ref_axis',(0.341093818089194,-0.940029258726204,0.));
#881=DIRECTION('',(0.341093818089194,-0.940029258726204,0.));
#882=DIRECTION('center_axis',(0.,0.,1.));
#883=DIRECTION('ref_axis',(1.,0.,0.));
#884=DIRECTION('center_axis',(0.,0.,1.));
#885=DIRECTION('ref_axis',(1.,0.,0.));
#886=DIRECTION('',(0.,0.,1.));
#887=DIRECTION('center_axis',(0.,0.,1.));
#888=DIRECTION('ref_axis',(1.,0.,0.));
#889=DIRECTION('center_axis',(0.,0.,1.));
#890=DIRECTION('ref_axis',(-1.,0.,0.));
#891=DIRECTION('center_axis',(0.,0.,-1.));
#892=DIRECTION('ref_axis',(-1.,0.,0.));
#893=DIRECTION('center_axis',(0.,0.,-1.));
#894=DIRECTION('ref_axis',(1.,0.,0.));
#895=DIRECTION('',(-0.590287972568177,0.80719273376397,0.));
#896=DIRECTION('center_axis',(0.,0.,1.));
#897=DIRECTION('ref_axis',(1.,0.,0.));
#898=DIRECTION('center_axis',(1.1686558153949E-16,-1.,0.));
#899=DIRECTION('ref_axis',(-1.,-1.1686558153949E-16,0.));
#900=DIRECTION('center_axis',(0.,0.,1.));
#901=DIRECTION('ref_axis',(1.,0.,0.));
#902=DIRECTION('center_axis',(0.,0.,1.));
#903=DIRECTION('ref_axis',(1.,0.,0.));
#904=DIRECTION('',(0.,0.,1.));
#905=DIRECTION('center_axis',(0.,0.,1.));
#906=DIRECTION('ref_axis',(1.,0.,0.));
#907=DIRECTION('center_axis',(0.,0.,-1.));
#908=DIRECTION('ref_axis',(1.,0.,0.));
#909=DIRECTION('center_axis',(0.,0.,-1.));
#910=DIRECTION('ref_axis',(1.,0.,0.));
#911=DIRECTION('center_axis',(0.,0.,1.));
#912=DIRECTION('ref_axis',(1.,0.,0.));
#913=DIRECTION('',(0.,0.,1.));
#914=DIRECTION('center_axis',(0.,0.,-1.));
#915=DIRECTION('ref_axis',(-1.,0.,0.));
#916=DIRECTION('',(0.,0.,-1.));
#917=DIRECTION('center_axis',(0.80719273376397,0.590287972568177,0.));
#918=DIRECTION('ref_axis',(-0.590287972568177,0.80719273376397,0.));
#919=DIRECTION('',(0.,0.,1.));
#920=DIRECTION('',(1.,0.,0.));
#921=CARTESIAN_POINT('',(0.,0.,0.));
#922=CARTESIAN_POINT('',(0.,0.,0.));
#923=CARTESIAN_POINT('Origin',(21.2136756884011,1.18860597969882,0.849578438601116));
#924=CARTESIAN_POINT('',(-21.2863243115989,1.18860597969883,1.34957843860112));
#925=CARTESIAN_POINT('Origin',(21.2136756884011,1.18860597969882,1.34957843860112));
#926=CARTESIAN_POINT('',(-21.7863243115989,1.18860597969882,0.849578438601116));
#927=CARTESIAN_POINT('Origin',(-21.2863243115989,1.18860597969882,0.849578438601116));
#928=CARTESIAN_POINT('',(64.2136756884011,1.18860597969882,0.849578438601116));
#929=CARTESIAN_POINT('Origin',(21.2136756884011,1.18860597969882,0.849578438601116));
#930=CARTESIAN_POINT('Origin',(21.2136756884011,1.18860597969882,0.849578438601116));
#931=CARTESIAN_POINT('Origin',(21.2136756884011,1.18860597969882,1.34957843860112));
#932=CARTESIAN_POINT('',(64.2136756884011,1.18860597969882,-3.55042156139888));
#933=CARTESIAN_POINT('Origin',(21.2136756884011,1.18860597969882,-3.55042156139888));
#934=CARTESIAN_POINT('',(64.2136756884011,1.18860597969882,1.34957843860112));
#935=CARTESIAN_POINT('Origin',(21.2136756884011,1.18860597969882,1.34957843860112));
#936=CARTESIAN_POINT('',(19.7136756884011,26.1886059796988,1.34957843860112));
#937=CARTESIAN_POINT('Origin',(21.2136756884011,26.1886059796988,1.34957843860112));
#938=CARTESIAN_POINT('',(19.7136756884011,-23.8113940203012,1.34957843860112));
#939=CARTESIAN_POINT('Origin',(21.2136756884011,-23.8113940203012,1.34957843860112));
#940=CARTESIAN_POINT('',(-5.28632431159892,1.18860597969882,1.34957843860112));
#941=CARTESIAN_POINT('Origin',(-3.78632431159892,1.18860597969882,1.34957843860112));
#942=CARTESIAN_POINT('',(44.7136756884011,1.18860597969882,1.34957843860112));
#943=CARTESIAN_POINT('Origin',(46.2136756884011,1.18860597969882,1.34957843860112));
#944=CARTESIAN_POINT('',(23.7136756884011,1.18860597969882,1.34957843860112));
#945=CARTESIAN_POINT('Origin',(21.2136756884011,1.18860597969882,1.34957843860112));
#946=CARTESIAN_POINT('Origin',(21.2136756884011,1.18860597969883,-9.55042156139888));
#947=CARTESIAN_POINT('',(59.7136756884011,1.18860597969883,-12.8004215613989));
#948=CARTESIAN_POINT('Origin',(21.2136756884011,1.18860597969883,-12.8004215613989));
#949=CARTESIAN_POINT('',(59.7136756884011,1.18860597969884,-6.30042156139888));
#950=CARTESIAN_POINT('Origin',(59.7136756884011,1.18860597969883,-9.55042156139888));
#951=CARTESIAN_POINT('Origin',(21.2136756884011,1.18860597969883,-6.30042156139888));
#952=CARTESIAN_POINT('Origin',(21.2136756884011,1.18860597969882,-3.65042156139888));
#953=CARTESIAN_POINT('',(59.7136756884011,1.18860597969882,-3.55042156139888));
#954=CARTESIAN_POINT('',(59.7136756884011,1.18860597969882,-3.65042156139888));
#955=CARTESIAN_POINT('Origin',(21.2136756884011,1.18860597969882,-3.55042156139888));
#956=CARTESIAN_POINT('Origin',(43.5226292172293,-15.3425026652739,-15.6504215613989));
#957=CARTESIAN_POINT('',(43.5226292172293,-15.3425026652739,-6.65042156139889));
#958=CARTESIAN_POINT('',(33.5905028906774,-23.6765462026897,-6.65042156139889));
#959=CARTESIAN_POINT('',(41.0295703872599,-17.4344274100044,-6.65042156139888));
#960=CARTESIAN_POINT('',(43.5226292172293,-15.3425026652739,-15.6504215613989));
#961=CARTESIAN_POINT('',(43.5226292172293,-15.3425026652739,-15.6504215613989));
#962=CARTESIAN_POINT('',(33.5905028906774,-23.6765462026897,-15.6504215613989));
#963=CARTESIAN_POINT('',(38.5706258527748,-19.4977268619763,-15.6504215613989));
#964=CARTESIAN_POINT('',(33.5905028906774,-23.6765462026897,-15.6504215613989));
#965=CARTESIAN_POINT('Origin',(24.0823638812125,-13.977003499717,-15.6504215613989));
#966=CARTESIAN_POINT('',(24.0823638812125,-13.977003499717,-15.6504215613989));
#967=CARTESIAN_POINT('',(19.5888341193819,-9.39301668919946,-15.6504215613989));
#968=CARTESIAN_POINT('',(24.0823638812125,-13.977003499717,-6.65042156139889));
#969=CARTESIAN_POINT('',(24.0823638812125,-13.977003499717,-15.6504215613989));
#970=CARTESIAN_POINT('',(24.0823638812125,-13.977003499717,-6.65042156139889));
#971=CARTESIAN_POINT('Origin',(22.3429431055049,-11.9040425412344,-15.6504215613989));
#972=CARTESIAN_POINT('',(22.3429431055049,-11.9040425412344,-15.6504215613989));
#973=CARTESIAN_POINT('',(18.8862146157789,-7.78447394498074,-15.6504215613989));
#974=CARTESIAN_POINT('',(22.3429431055049,-11.9040425412344,-6.65042156139889));
#975=CARTESIAN_POINT('',(22.3429431055049,-11.9040425412344,-15.6504215613989));
#976=CARTESIAN_POINT('',(22.3429431055049,-11.9040425412344,-6.65042156139889));
#977=CARTESIAN_POINT('Origin',(16.2513953303485,-5.55683851829754,-15.6504215613989));
#978=CARTESIAN_POINT('',(16.2513953303485,-5.55683851829753,-15.6504215613989));
#979=CARTESIAN_POINT('',(15.7560545914207,-5.0407088174571,-15.6504215613989));
#980=CARTESIAN_POINT('',(16.2513953303485,-5.55683851829753,-6.65042156139889));
#981=CARTESIAN_POINT('',(16.2513953303485,-5.55683851829753,-15.6504215613989));
#982=CARTESIAN_POINT('',(35.9896904372151,-26.1235303891502,-6.65042156139889));
#983=CARTESIAN_POINT('Origin',(27.0737111174348,4.82956995646324,-15.6504215613989));
#984=CARTESIAN_POINT('',(12.9732722365419,-0.286837314875039,-15.6504215613989));
#985=CARTESIAN_POINT('Origin',(27.0737111174348,4.82956995646324,-15.6504215613989));
#986=CARTESIAN_POINT('',(12.9732722365419,-0.286837314875039,-6.65042156139889));
#987=CARTESIAN_POINT('',(12.9732722365419,-0.286837314875039,-15.6504215613989));
#988=CARTESIAN_POINT('Origin',(27.0737111174348,4.82956995646324,-6.65042156139889));
#989=CARTESIAN_POINT('Origin',(21.2136756884011,-23.8113940203012,-14.6504215613989));
#990=CARTESIAN_POINT('',(17.4636756884011,-23.8113940203012,-15.6504215613989));
#991=CARTESIAN_POINT('Origin',(21.2136756884011,-23.8113940203012,-15.6504215613989));
#992=CARTESIAN_POINT('',(18.4636756884011,-23.8113940203012,-14.6504215613989));
#993=CARTESIAN_POINT('Origin',(17.4636756884011,-23.8113940203012,-14.6504215613989));
#994=CARTESIAN_POINT('Origin',(21.2136756884011,-23.8113940203012,-14.6504215613989));
#995=CARTESIAN_POINT('Origin',(21.2136756884011,-23.8113940203012,-15.6504215613989));
#996=CARTESIAN_POINT('',(18.4636756884011,-23.8113940203012,-12.1504215613989));
#997=CARTESIAN_POINT('',(18.4636756884011,-23.8113940203012,-15.6504215613989));
#998=CARTESIAN_POINT('Origin',(21.2136756884011,-23.8113940203012,-12.1504215613989));
#999=CARTESIAN_POINT('Origin',(21.2136756884011,-23.8113940203012,-12.1504215613989));
#1000=CARTESIAN_POINT('',(19.7136756884011,-23.8113940203012,-12.1504215613989));
#1001=CARTESIAN_POINT('Origin',(21.2136756884011,-23.8113940203012,-12.1504215613989));
#1002=CARTESIAN_POINT('Origin',(21.2136756884011,-23.8113940203012,-15.6504215613989));
#1003=CARTESIAN_POINT('',(19.7136756884011,-23.8113940203012,-15.6504215613989));
#1004=CARTESIAN_POINT('Origin',(21.2136756884011,1.18860597969882,-3.65042156139888));
#1005=CARTESIAN_POINT('',(59.7136756884011,1.18860597969882,-15.6504215613989));
#1006=CARTESIAN_POINT('Origin',(21.2136756884011,1.18860597969882,-15.6504215613989));
#1007=CARTESIAN_POINT('',(59.7136756884011,1.18860597969882,-3.65042156139888));
#1008=CARTESIAN_POINT('Origin',(21.2136756884011,1.18860597969882,-3.55042156139888));
#1009=CARTESIAN_POINT('Origin',(21.2136756884011,26.1886059796988,-15.6504215613989));
#1010=CARTESIAN_POINT('',(19.7136756884011,26.1886059796988,-12.1504215613989));
#1011=CARTESIAN_POINT('Origin',(21.2136756884011,26.1886059796988,-12.1504215613989));
#1012=CARTESIAN_POINT('',(19.7136756884011,26.1886059796988,-15.6504215613989));
#1013=CARTESIAN_POINT('Origin',(46.2136756884011,1.18860597969882,-15.6504215613989));
#1014=CARTESIAN_POINT('',(44.7136756884011,1.18860597969882,-12.1504215613989));
#1015=CARTESIAN_POINT('Origin',(46.2136756884011,1.18860597969882,-12.1504215613989));
#1016=CARTESIAN_POINT('',(44.7136756884011,1.18860597969882,-15.6504215613989));
#1017=CARTESIAN_POINT('Origin',(21.2136756884011,26.1886059796988,-12.1504215613989));
#1018=CARTESIAN_POINT('',(18.4636756884011,26.1886059796988,-12.1504215613989));
#1019=CARTESIAN_POINT('Origin',(21.2136756884011,26.1886059796988,-12.1504215613989));
#1020=CARTESIAN_POINT('Origin',(46.2136756884011,1.18860597969882,-12.1504215613989));
#1021=CARTESIAN_POINT('',(43.4636756884011,1.18860597969882,-12.1504215613989));
#1022=CARTESIAN_POINT('Origin',(46.2136756884011,1.18860597969882,-12.1504215613989));
#1023=CARTESIAN_POINT('Origin',(46.2136756884011,1.18860597969882,-15.6504215613989));
#1024=CARTESIAN_POINT('',(43.4636756884011,1.18860597969882,-14.6504215613989));
#1025=CARTESIAN_POINT('Origin',(46.2136756884011,1.18860597969882,-14.6504215613989));
#1026=CARTESIAN_POINT('',(43.4636756884011,1.18860597969882,-15.6504215613989));
#1027=CARTESIAN_POINT('Origin',(46.2136756884011,1.18860597969882,-14.6504215613989));
#1028=CARTESIAN_POINT('',(42.4636756884011,1.18860597969882,-15.6504215613989));
#1029=CARTESIAN_POINT('Origin',(46.2136756884011,1.18860597969882,-15.6504215613989));
#1030=CARTESIAN_POINT('Origin',(42.4636756884011,1.18860597969882,-14.6504215613989));
#1031=CARTESIAN_POINT('Origin',(21.2136756884011,26.1886059796988,-15.6504215613989));
#1032=CARTESIAN_POINT('',(18.4636756884011,26.1886059796988,-14.6504215613989));
#1033=CARTESIAN_POINT('Origin',(21.2136756884011,26.1886059796988,-14.6504215613989));
#1034=CARTESIAN_POINT('',(18.4636756884011,26.1886059796988,-15.6504215613989));
#1035=CARTESIAN_POINT('Origin',(21.2136756884011,26.1886059796988,-14.6504215613989));
#1036=CARTESIAN_POINT('',(17.4636756884011,26.1886059796988,-15.6504215613989));
#1037=CARTESIAN_POINT('Origin',(21.2136756884011,26.1886059796988,-15.6504215613989));
#1038=CARTESIAN_POINT('Origin',(17.4636756884011,26.1886059796988,-14.6504215613989));
#1039=CARTESIAN_POINT('Origin',(21.2136756884011,1.18860597969882,-15.6504215613989));
#1040=CARTESIAN_POINT('',(-7.53632431159892,1.18860597969882,-15.6504215613989));
#1041=CARTESIAN_POINT('Origin',(-3.78632431159892,1.18860597969882,-15.6504215613989));
#1042=CARTESIAN_POINT('',(10.6747756202355,6.04764884648413,-15.6504215613989));
#1043=CARTESIAN_POINT('',(12.0668470500749,2.21120325618718,-15.6504215613989));
#1044=CARTESIAN_POINT('',(28.7172246351899,4.90323425371387,-15.6504215613989));
#1045=CARTESIAN_POINT('',(36.7082819767739,-6.02418375406682,-15.6504215613989));
#1046=CARTESIAN_POINT('',(24.0965266930831,9.0466813970998,-15.6504215613989));
#1047=CARTESIAN_POINT('Origin',(16.6093336287302,-3.95108533480864,-15.6504215613989));
#1048=CARTESIAN_POINT('',(18.2574053588233,12.410230663487,-15.6504215613989));
#1049=CARTESIAN_POINT('',(24.7136116381012,8.69121770739432,-15.6504215613989));
#1050=CARTESIAN_POINT('',(16.3620249325761,10.8198176468826,-15.6504215613989));
#1051=CARTESIAN_POINT('Origin',(16.6093336287302,-3.95108533480864,-15.6504215613989));
#1052=CARTESIAN_POINT('',(28.7172246351899,4.90323425371387,-6.65042156139889));
#1053=CARTESIAN_POINT('',(28.7172246351899,4.90323425371387,-15.6504215613989));
#1054=CARTESIAN_POINT('',(24.0965266930831,9.04668139709981,-6.65042156139889));
#1055=CARTESIAN_POINT('Origin',(16.6093336287302,-3.95108533480864,-6.65042156139889));
#1056=CARTESIAN_POINT('',(24.0965266930831,9.0466813970998,-15.6504215613989));
#1057=CARTESIAN_POINT('Origin',(24.0965266930831,9.0466813970998,-15.6504215613989));
#1058=CARTESIAN_POINT('',(18.2574053588233,12.410230663487,-6.65042156139889));
#1059=CARTESIAN_POINT('',(24.0965266930831,9.0466813970998,-6.65042156139889));
#1060=CARTESIAN_POINT('',(18.2574053588233,12.410230663487,-15.6504215613989));
#1061=CARTESIAN_POINT('Origin',(18.2574053588232,12.4102306634872,-15.6504215613989));
#1062=CARTESIAN_POINT('',(10.6747756202355,6.04764884648413,-6.65042156139889));
#1063=CARTESIAN_POINT('',(13.7000460464104,8.58615214529912,-6.65042156139889));
#1064=CARTESIAN_POINT('',(10.6747756202355,6.04764884648413,-15.6504215613989));
#1065=CARTESIAN_POINT('Origin',(10.6747756202355,6.04764884648413,-15.6504215613989));
#1066=CARTESIAN_POINT('',(12.9732722365419,-0.286837314875044,-6.65042156139889));
#1067=CARTESIAN_POINT('Origin',(21.2136756884011,1.18860597969882,-15.6504215613989));
#1068=CARTESIAN_POINT('',(19.6636756884011,1.18860597969882,-6.65042156139889));
#1069=CARTESIAN_POINT('Origin',(21.2136756884011,1.18860597969882,-6.65042156139889));
#1070=CARTESIAN_POINT('',(19.6636756884011,1.18860597969882,-0.150421561398885));
#1071=CARTESIAN_POINT('',(19.6636756884011,1.18860597969882,-15.6504215613989));
#1072=CARTESIAN_POINT('Origin',(21.2136756884011,1.18860597969882,-0.150421561398884));
#1073=CARTESIAN_POINT('Origin',(21.2136756884011,1.18860597969882,-0.150421561398885));
#1074=CARTESIAN_POINT('',(23.7136756884011,1.18860597969882,-0.150421561398885));
#1075=CARTESIAN_POINT('Origin',(21.2136756884011,1.18860597969882,-0.150421561398885));
#1076=CARTESIAN_POINT('Origin',(28.711882151035,-7.81781476392309,-6.65042156139889));
#1077=CARTESIAN_POINT('',(45.5439432678593,-18.1065603627821,-6.65042156139889));
#1078=CARTESIAN_POINT('Origin',(-3.78632431159892,1.18860597969882,-14.6504215613989));
#1079=CARTESIAN_POINT('',(-6.53632431159892,1.18860597969882,-14.6504215613989));
#1080=CARTESIAN_POINT('Origin',(-7.53632431159892,1.18860597969882,-14.6504215613989));
#1081=CARTESIAN_POINT('Origin',(-3.78632431159892,1.18860597969882,-14.6504215613989));
#1082=CARTESIAN_POINT('Origin',(-3.78632431159892,1.18860597969882,-15.6504215613989));
#1083=CARTESIAN_POINT('',(-6.53632431159892,1.18860597969882,-12.1504215613989));
#1084=CARTESIAN_POINT('',(-6.53632431159892,1.18860597969882,-15.6504215613989));
#1085=CARTESIAN_POINT('Origin',(-3.78632431159892,1.18860597969882,-12.1504215613989));
#1086=CARTESIAN_POINT('Origin',(-3.78632431159892,1.18860597969882,-12.1504215613989));
#1087=CARTESIAN_POINT('',(-5.28632431159892,1.18860597969882,-12.1504215613989));
#1088=CARTESIAN_POINT('Origin',(-3.78632431159892,1.18860597969882,-12.1504215613989));
#1089=CARTESIAN_POINT('Origin',(-3.78632431159892,1.18860597969882,-15.6504215613989));
#1090=CARTESIAN_POINT('',(-5.28632431159892,1.18860597969882,-15.6504215613989));
#1091=CARTESIAN_POINT('Origin',(21.2136756884011,1.18860597969882,1.34957843860112));
#1092=CARTESIAN_POINT('',(23.7136756884011,1.18860597969882,1.34957843860112));
#1093=CARTESIAN_POINT('Origin',(45.5439432678593,-18.1065603627821,-15.6504215613989));
#1094=CARTESIAN_POINT('',(0.,0.,0.));
#1095=UNCERTAINTY_MEASURE_WITH_UNIT(LENGTH_MEASURE(0.01),#1101,
'DISTANCE_ACCURACY_VALUE',
'Maximum model space distance between geometric entities at asserted c
onnectivities');
#1096=UNCERTAINTY_MEASURE_WITH_UNIT(LENGTH_MEASURE(0.01),#1101,
'DISTANCE_ACCURACY_VALUE',
'Maximum model space distance between geometric entities at asserted c
onnectivities');
#1097=UNCERTAINTY_MEASURE_WITH_UNIT(LENGTH_MEASURE(0.01),#1101,
'DISTANCE_ACCURACY_VALUE',
'Maximum model space distance between geometric entities at asserted c
onnectivities');
#1098=(
GEOMETRIC_REPRESENTATION_CONTEXT(3)
GLOBAL_UNCERTAINTY_ASSIGNED_CONTEXT((#1095))
GLOBAL_UNIT_ASSIGNED_CONTEXT((#1101,#1103,#1104))
REPRESENTATION_CONTEXT('','3D')
);
#1099=(
GEOMETRIC_REPRESENTATION_CONTEXT(3)
GLOBAL_UNCERTAINTY_ASSIGNED_CONTEXT((#1096))
GLOBAL_UNIT_ASSIGNED_CONTEXT((#1101,#1103,#1104))
REPRESENTATION_CONTEXT('','3D')
);
#1100=(
GEOMETRIC_REPRESENTATION_CONTEXT(3)
GLOBAL_UNCERTAINTY_ASSIGNED_CONTEXT((#1097))
GLOBAL_UNIT_ASSIGNED_CONTEXT((#1101,#1103,#1104))
REPRESENTATION_CONTEXT('','3D')
);
#1101=(
LENGTH_UNIT()
NAMED_UNIT(*)
SI_UNIT(.MILLI.,.METRE.)
);
#1102=(
LENGTH_UNIT()
NAMED_UNIT(*)
SI_UNIT($,.METRE.)
);
#1103=(
NAMED_UNIT(*)
PLANE_ANGLE_UNIT()
SI_UNIT($,.RADIAN.)
);
#1104=(
NAMED_UNIT(*)
SI_UNIT($,.STERADIAN.)
SOLID_ANGLE_UNIT()
);
#1105=SHAPE_DEFINITION_REPRESENTATION(#1107,#1110);
#1106=SHAPE_DEFINITION_REPRESENTATION(#1108,#1111);
#1107=PRODUCT_DEFINITION_SHAPE('',$,#1113);
#1108=PRODUCT_DEFINITION_SHAPE('',$,#1114);
#1109=PRODUCT_DEFINITION_SHAPE($,$,#14);
#1110=SHAPE_REPRESENTATION('',(#633,#715),#1098);
#1111=SHAPE_REPRESENTATION('',(#634),#1099);
#1112=PRODUCT_DEFINITION_CONTEXT('part definition',#1120,'design');
#1113=PRODUCT_DEFINITION('DSSERVO 80 kg','c_base v40',#1115,#1112);
#1114=PRODUCT_DEFINITION('base_connector v2','base_connector v2',#1116,
#1112);
#1115=PRODUCT_DEFINITION_FORMATION('',$,#1122);
#1116=PRODUCT_DEFINITION_FORMATION('',$,#1123);
#1117=PRODUCT_RELATED_PRODUCT_CATEGORY('c_base v40','c_base v40',(#1122));
#1118=PRODUCT_RELATED_PRODUCT_CATEGORY('base_connector v2',
'base_connector v2',(#1123));
#1119=APPLICATION_PROTOCOL_DEFINITION('international standard',
'automotive_design',2009,#1120);
#1120=APPLICATION_CONTEXT(
'Core Data for Automotive Mechanical Design Process');
#1121=PRODUCT_CONTEXT('part definition',#1120,'mechanical');
#1122=PRODUCT('DSSERVO 80 kg','c_base v40','STEP AP203',(#1121));
#1123=PRODUCT('base_connector v2','base_connector v2',$,(#1121));
#1124=PRESENTATION_STYLE_ASSIGNMENT((#1125));
#1125=SURFACE_STYLE_USAGE(.BOTH.,#1126);
#1126=SURFACE_SIDE_STYLE('',(#1127));
#1127=SURFACE_STYLE_FILL_AREA(#1128);
#1128=FILL_AREA_STYLE('Steel - Satin',(#1129));
#1129=FILL_AREA_STYLE_COLOUR('Steel - Satin',#1130);
#1130=COLOUR_RGB('Steel - Satin',0.627450980392157,0.627450980392157,0.627450980392157);
ENDSEC;
END-ISO-10303-21;
